<?xml version="1.0" standalone="no"?>
<!DOCTYPE svg PUBLIC "-//W3C//DTD SVG 1.1//EN" "http://www.w3.org/Graphics/SVG/1.1/DTD/svg11.dtd" >
<svg xmlns="http://www.w3.org/2000/svg">
<metadata>
Created by FontPrep 20130207 at Sat Jun 13 13:26:30 2015
 By Hendra Susanto
Copyright 1990-1998 Bitstream Inc.  All rights reserved.
</metadata>
<defs>
<font id="e83e18ab4cab48de048ce91988ae019f" horiz-adv-x='1024' >
  <font-face 
    font-family="BakerSignetBT-Roman"
    font-weight="400"
    font-stretch="normal"
    units-per-em="2048"
    panose-1="2 11 5 2 5 3 9 3 10 4"
    ascent="1556"
    descent="-492"
    x-height="915"
    cap-height="1313"
    bbox="-342 -598 2087 1876"
    underline-thickness="98"
    underline-position="-238"
    unicode-range="U+0020-F002"
  />
<missing-glyph horiz-adv-x="1229" 
d="M217 -248h795v1577h-795v-1577zM102 -362v1806h1024v-1806h-1024z" />
    <glyph glyph-name=".notdef" horiz-adv-x="1229" 
d="M217 -248h795v1577h-795v-1577zM102 -362v1806h1024v-1806h-1024z" />
    <glyph glyph-name=".null" horiz-adv-x="0" 
 />
    <glyph glyph-name="nonmarkingreturn" horiz-adv-x="537" 
 />
    <glyph glyph-name="space" unicode=" " horiz-adv-x="537" 
 />
    <glyph glyph-name="exclam" unicode="!" horiz-adv-x="537" 
d="M137 80l133 129l138 -103l-134 -131zM381 1312q-22 -201 -70 -1050l-73 4q-25 427 -78 1047z" />
    <glyph glyph-name="quotedbl" unicode="&#x22;" horiz-adv-x="590" 
d="M211 1434v-553h-117v553h117zM496 1434v-553h-119v553h119z" />
    <glyph glyph-name="numbersign" unicode="#" horiz-adv-x="1575" 
d="M922 1456l-166 -471h260l168 471h143l-164 -471h307l-43 -123h-311l-94 -272h330l-43 -123h-332l-166 -469h-145l168 469h-265l-168 -469h-143l166 469h-320l43 123h320l96 272h-342l43 123h344l168 471h146zM973 862h-264l-95 -272h263z" />
    <glyph glyph-name="dollar" unicode="$" horiz-adv-x="1071" 
d="M594 1237h-31v-473q355 -146 355 -381q0 -134 -100 -240t-255 -133v-180h-84v170q-197 12 -327 74v133q103 -129 327 -131v555q-167 68 -245 153t-78 204t88 207.5t235 111.5v153h84v-149q147 0 262 -35l-8 -121q-84 82 -223 82zM322 1022q0 -146 157 -225v430
q-74 -22 -115.5 -76.5t-41.5 -128.5zM743 340q0 90 -42 150t-138 110v-510q87 28 133.5 94t46.5 156z" />
    <glyph glyph-name="percent" unicode="%" horiz-adv-x="1255" 
d="M96 0l944 1313h117l-944 -1313h-117zM578 997q0 -354 -260 -354q-130 0 -187 79.5t-57 257.5q0 356 259 357q129 0 187 -80t58 -260zM201 985q0 -270 126 -269.5t126 276.5t-121 276q-63 0 -97 -74t-34 -209zM1182 329q0 -354 -261 -354q-131 0 -188 79.5t-57 257.5
q0 358 270 358q121 0 178.5 -80.5t57.5 -260.5zM805 317q0 -270 126 -269.5t126 276.5t-121 276q-62 0 -96.5 -74t-34.5 -209z" />
    <glyph glyph-name="ampersand" unicode="&#x26;" horiz-adv-x="1251" 
d="M76 291q0 132 72.5 240t226.5 219q-154 194 -154 312t93.5 196.5t225.5 78.5t210.5 -61.5t78.5 -147.5t-63 -162.5t-205 -172.5l324 -451q112 134 112 246q0 43 -18 69h211q-37 -45 -116.5 -170.5t-135.5 -195.5l149 -182q44 -56 107 -109h-264l-113 152
q-171 -177 -368 -177q-165 0 -269 92t-104 224zM248 383q0 -125 74.5 -202t199.5 -77t248 113l-348 471q-174 -131 -174 -305zM666 1090q0 75 -39.5 122.5t-100.5 47.5t-100 -39t-39 -92t28.5 -113.5t102.5 -165.5q148 108 148 240z" />
    <glyph glyph-name="quotesingle" unicode="'" horiz-adv-x="305" 
d="M211 1434v-553h-117v553h117z" />
    <glyph glyph-name="parenleft" unicode="(" horiz-adv-x="541" 
d="M516 1421q-219 -374 -219 -837t201 -920q-178 129 -274.5 364t-96.5 540t101.5 528t287.5 325z" />
    <glyph glyph-name="parenright" unicode=")" horiz-adv-x="541" 
d="M25 -336q219 374 219 835t-201 922q179 -128 275 -362.5t96 -540.5t-102 -529t-287 -325z" />
    <glyph glyph-name="asterisk" unicode="*" 
d="M340 537l-129 96l235 256l-337 72l47 149l315 -143l-29 346h140l-29 -346l315 143l47 -149l-337 -72l235 -256l-129 -96l-172 303z" />
    <glyph glyph-name="plus" unicode="+" horiz-adv-x="1706" 
d="M913 1221v-551h539v-117h-539v-553h-118v553h-541v117h541v551h118z" />
    <glyph glyph-name="comma" unicode="," horiz-adv-x="537" 
d="M367 20q0 -60 -47 -115.5t-170 -131.5q51 84 51 164q0 79 -49 167l167 80q48 -104 48 -164z" />
    <glyph glyph-name="hyphen" unicode="-" horiz-adv-x="678" 
d="M96 406q-26 0 -34 6l90 116h464l-88 -122h-432z" />
    <glyph glyph-name="period" unicode="." horiz-adv-x="537" 
d="M246 -25l-113 134l166 100l104 -131z" />
    <glyph glyph-name="slash" unicode="/" horiz-adv-x="569" 
d="M-49 -190l557 1527h110l-557 -1527h-110z" />
    <glyph glyph-name="zero" unicode="0" horiz-adv-x="1071" 
d="M997 664q1 -689 -477 -689q-236 0 -341 155t-105 509t118 526t359 172t343.5 -160t102.5 -513zM258 606q0 -551 278.5 -551t278.5 580q0 317 -64.5 471t-203.5 154t-214 -166t-75 -488z" />
    <glyph glyph-name="one" unicode="1" horiz-adv-x="1071" 
d="M616 524q0 -272 12 -383t42 -141h-267q30 29 42 146t12 507v201q0 246 -12 323t-42 101l229 59q-16 -541 -16 -813z" />
    <glyph glyph-name="two" unicode="2" horiz-adv-x="1071" 
d="M694 974q0 111 -67.5 178t-199.5 67t-280 -121v14q0 101 101.5 163t264.5 62t259 -86t96 -231q0 -196 -200 -430l-396 -467l441 8q112 0 182 39l-2 -25q0 -40 -35 -145h-778l309 385q161 201 233 339.5t72 249.5z" />
    <glyph glyph-name="three" unicode="3" horiz-adv-x="1071" 
d="M209 1159q1 178 297 178q146 0 226.5 -70t80.5 -182q0 -243 -289 -335q178 -59 264 -155t86 -246t-122 -262t-290 -112q-331 0 -335 203q114 -96 256 -96t224.5 81t82.5 215t-91.5 227t-262.5 132q149 47 226 122t77 171t-57.5 148.5t-163.5 52.5t-209 -72z" />
    <glyph glyph-name="four" unicode="4" horiz-adv-x="1071" 
d="M797 1337v-778h47q76 0 176 8q-21 -53 -65.5 -75.5t-157.5 -28.5v-68q0 -218 9.5 -296t33.5 -99h-248q24 21 33.5 99t9.5 296v66h-602q404 557 678 876h86zM637 559l8 594l-446 -594h438z" />
    <glyph glyph-name="five" unicode="5" horiz-adv-x="1071" 
d="M666 1307q179 0 229 30q-4 -59 -43 -141q-68 -16 -240 -16q-173 0 -243 6l-43 -248q269 -128 394.5 -262.5t125.5 -299.5t-116 -283t-278 -118t-236 56t-78 173q122 -108 250 -108t201 81.5t73 212.5t-106 240t-333 208l84 474q180 -5 359 -5z" />
    <glyph glyph-name="six" unicode="6" horiz-adv-x="1071" 
d="M614 793q160 0 250 -92.5t90 -276.5t-120.5 -316.5t-304.5 -132.5t-298 146t-114 385q0 383 161 607t435 224q85 0 153 -16q-276 -49 -406 -206t-153 -474q41 71 122.5 111.5t184.5 40.5zM770 400q0 304 -223 305q-110 0 -175 -78.5t-65 -232.5t59.5 -248.5t167.5 -94.5
t172 98.5t64 250.5z" />
    <glyph glyph-name="seven" unicode="7" horiz-adv-x="1071" 
d="M179 1315q138 -10 390 -10t457 8l-22 -37q-74 -121 -95 -160l-403 -698q-143 -249 -226 -344t-157 -107q200 319 635 1215h-164q-358 0 -440 -43q2 109 25 176z" />
    <glyph glyph-name="eight" unicode="8" horiz-adv-x="1071" 
d="M891 1108q0 -209 -244 -342q180 -110 252 -208t72 -226q0 -163 -121 -260t-319 -97t-314.5 87.5t-116.5 215.5t81 233t251 206q-109 62 -167 144.5t-58 174.5q0 141 98.5 221t260.5 80t243.5 -60.5t81.5 -168.5zM266 313q0 -114 74 -189t190 -75t188.5 74.5t72.5 188.5
t-67 199t-220 169q-238 -148 -238 -367zM723 1068q0 89 -47 143.5t-122 54.5t-125 -53.5t-50 -135.5t49 -147.5t158 -130.5q65 37 101 108.5t36 160.5z" />
    <glyph glyph-name="nine" unicode="9" horiz-adv-x="1071" 
d="M129 968q0 158 118 263.5t306 105.5q377 0 377 -393q0 -182 -76 -379.5t-188 -329.5t-255 -205t-261 -73q-48 0 -80 4q169 50 313 186q174 167 268 371.5t94 389.5q0 354 -215 354q-100 0 -160.5 -75.5t-60.5 -211.5t79 -219.5t216 -83.5h4q-48 -54 -174 -54t-215.5 96
t-89.5 254z" />
    <glyph glyph-name="colon" unicode=":" horiz-adv-x="537" 
d="M246 707l-113 133l166 98l104 -131zM246 -25l-113 134l166 100l104 -131z" />
    <glyph glyph-name="semicolon" unicode=";" horiz-adv-x="537" 
d="M246 707l-113 133l166 98l104 -131zM367 20q0 -60 -47 -115.5t-170 -131.5q51 84 51 164q0 79 -49 167l167 80q48 -104 48 -164z" />
    <glyph glyph-name="less" unicode="&#x3c;" horiz-adv-x="1706" 
d="M1442 1018l-1000 -408l1000 -405v-129l-1178 483v103l1178 483v-127z" />
    <glyph glyph-name="equal" unicode="=" horiz-adv-x="1706" 
d="M1452 860v-117h-1198v117h1198zM1452 477v-117h-1198v117h1198z" />
    <glyph glyph-name="greater" unicode="&#x3e;" horiz-adv-x="1706" 
d="M1442 662v-103l-1178 -483v129l1000 405l-1000 408v127z" />
    <glyph glyph-name="question" unicode="?" horiz-adv-x="721" 
d="M127 57l131 142l150 -82l-121 -142zM231 377q0 147 107 286t134.5 210t27.5 151t-60 140.5t-136 60.5q-140 0 -228 -82l12 110q100 84 255 84t242 -81t87 -214q0 -180 -180 -397q-119 -143 -167.5 -232.5t-74.5 -172.5q-19 65 -19 137z" />
    <glyph glyph-name="at" unicode="@" horiz-adv-x="2048" 
d="M1055 905q-146 0 -244 -131.5t-98 -327.5q0 -110 51 -169.5t149 -59.5t179.5 70.5t109.5 185.5l60 242q-17 90 -72 140t-135 50zM1035 1001q188 0 257 -157l58 121h110l-141 -568q-12 -48 -12 -80q0 -90 104 -90t201 82t147.5 202.5t50.5 254.5q0 266 -195.5 428
t-526.5 162t-564 -205q-282 -246 -282 -637q0 -340 247 -534q209 -168 549 -168t617 188l45 -66q-298 -221 -671 -221t-613 185q-303 232 -303 624q0 330 200 578q297 358 803 358q165 0 311 -43.5t248 -124.5q262 -201 262 -512q0 -347 -245 -545q-141 -112 -312 -112
q-198 0 -198 155q0 3 1 11t1 12q-104 -178 -297 -178q-153 0 -233.5 85t-80.5 247q0 230 137 389t325 159z" />
    <glyph glyph-name="A" unicode="A" horiz-adv-x="1241" 
d="M188 63q0 -27 10 -63h-261q183 221 385 694q87 203 143.5 363t56.5 191t-16 65h254q310 -1031 508 -1313h-224l-206 569h-478l-90 -220q-82 -197 -82 -286zM393 645h414l-193 529z" />
    <glyph glyph-name="B" unicode="B" horiz-adv-x="1100" 
d="M170 600v84q0 386 -11.5 492.5t-39.5 136.5h172l371 14q150 0 232.5 -65t82.5 -183q0 -225 -318 -334q183 -21 283 -113.5t100 -240.5q0 -180 -135.5 -291.5t-361.5 -111.5l-287 12h-139q28 30 39.5 138t11.5 462zM346 682v-252q0 -253 16 -310t162 -57q147 0 227 82
t80 229t-92.5 227.5t-263.5 80.5h-129zM780 1036q0 205 -297 205q-54 0 -118 -6q-19 -82 -19 -410v-67h55q184 0 281.5 72t97.5 206z" />
    <glyph glyph-name="C" unicode="C" horiz-adv-x="1214" 
d="M753 1247q-223 0 -348.5 -145t-125.5 -404t137.5 -415t364.5 -156t370 162q-36 -143 -161.5 -228.5t-301.5 -85.5q-268 0 -440 186.5t-172 496.5t185 494.5t511 184.5l305 -24l-12 -281q-89 215 -312 215z" />
    <glyph glyph-name="D" unicode="D" horiz-adv-x="1403" 
d="M170 600v84q0 386 -11.5 492.5t-39.5 136.5h149q90 0 241 12t214 12q282 0 443 -165.5t161 -454.5q0 -336 -193 -531.5t-524 -195.5l-352 10h-139q28 30 39.5 138t11.5 462zM346 807v-299q0 -276 9 -336t56.5 -78t182.5 -18q250 0 387 151t137 431t-144 435.5t-409 155.5
q-107 0 -203 -20q-16 -94 -16 -422z" />
    <glyph glyph-name="E" unicode="E" horiz-adv-x="1014" 
d="M170 600v84q0 386 -11.5 492.5t-39.5 136.5h127l518 6l72 -2l16 -193q-24 63 -96.5 88t-276.5 25h-114q-19 -82 -19 -430v-68q50 -4 218 -4t292 23q-56 -65 -148.5 -92t-308.5 -27l-53 2v-133q0 -350 19 -432h118q203 0 305 32.5t158 108.5l-35 -205q-82 -16 -204 -16
l-420 4h-168q28 30 39.5 138t11.5 462z" />
    <glyph glyph-name="F" unicode="F" horiz-adv-x="901" 
d="M868 1137q-54 102 -286 102q-138 0 -217 -6q-19 -87 -19 -426v-98q110 -7 231 -7t263 25q-42 -66 -123.5 -92.5t-294.5 -26.5h-76v-100q0 -301 11.5 -388.5t39.5 -119.5h-278q28 30 39.5 138t11.5 462v84q0 386 -11.5 492.5t-39.5 136.5h141l379 6q135 0 221 -12z" />
    <glyph glyph-name="G" unicode="G" horiz-adv-x="1374" 
d="M1040 334q0 265 -51 325h275q-26 -36 -36.5 -111.5t-10.5 -274.5t22 -263l-467 -35q-337 0 -516.5 166.5t-179.5 488.5t219.5 514.5t599.5 192.5q141 0 319 -24v-240q-150 170 -395 170q-246 0 -388 -158.5t-142 -430.5t154.5 -425t428.5 -153q84 0 152 16q16 104 16 242
z" />
    <glyph glyph-name="H" unicode="H" horiz-adv-x="1305" 
d="M958 739v68q0 288 -11.5 380t-41.5 126h281q-29 -29 -40 -133t-11 -443v-159q0 -340 11 -444.5t40 -133.5h-281q30 35 41.5 133t11.5 375v156h-612v-156q0 -301 11.5 -388.5t39.5 -119.5h-278q28 30 39.5 138t11.5 462v84q0 386 -11.5 492.5t-39.5 136.5h278
q-28 -32 -39.5 -119t-11.5 -387v-68h612z" />
    <glyph glyph-name="I" unicode="I" horiz-adv-x="516" 
d="M170 600v84q0 386 -11.5 492.5t-39.5 136.5h278q-28 -29 -39.5 -133t-11.5 -443v-159q0 -340 11.5 -444.5t39.5 -133.5h-278q28 30 39.5 138t11.5 462z" />
    <glyph glyph-name="J" unicode="J" horiz-adv-x="516" 
d="M346 727v-244q0 -466 -55.5 -606.5t-198.5 -189.5l-2 6q44 97 62 277t18 640t-11.5 566.5t-39.5 136.5h278q-28 -28 -39.5 -140t-11.5 -446z" />
    <glyph glyph-name="K" unicode="K" horiz-adv-x="1071" 
d="M864 0q-54 0 -82 39l-395 610h-41v-141q0 -301 11.5 -388.5t39.5 -119.5h-278q28 30 39.5 138t11.5 462v84q0 386 -11.5 492.5t-39.5 136.5h278q-28 -32 -39.5 -119t-11.5 -387v-88q75 7 213 155q182 196 241.5 277.5t59.5 124.5v10q0 14 -5 27h271q-141 -90 -596 -596
l330 -467q10 -14 28 -40q110 -157 179 -210h-203z" />
    <glyph glyph-name="L" unicode="L" horiz-adv-x="901" 
d="M170 600v84q0 386 -11.5 492.5t-39.5 136.5h278q-28 -30 -39.5 -138t-11.5 -460v-84q0 -468 19 -555q40 -2 154 -2q242 0 341 143l-45 -205q-84 -16 -205 -16l-420 4h-71q28 30 39.5 138t11.5 462z" />
    <glyph glyph-name="M" unicode="M" horiz-adv-x="1587" 
d="M1208 0q54 82 54 236q0 62 -2 107t-3 131l-12 716l-512 -1219l-473 1219l-4 -895v-64q0 -160 47 -231h-233q58 51 84 326.5t26 842.5q0 93 -51 144h229q28 0 37 -7.5t17 -29.5l370 -989l412 979q11 28 24.5 37.5t43.5 9.5h200q-49 -64 -49 -320q0 -514 21.5 -719.5
t74.5 -273.5h-301z" />
    <glyph glyph-name="N" unicode="N" horiz-adv-x="1356" 
d="M170 778q0 315 -16.5 409.5t-59.5 125.5h213q58 0 129 -108q18 -29 52 -79t236 -356q200 -306 370 -537l2 574q0 276 -12 373.5t-42 132.5h195q-30 -28 -41.5 -149.5t-11.5 -491.5v-678h-133q-68 108 -339 500t-454 663l6 -661q2 -238 17.5 -340.5t50.5 -155.5h-238
q76 97 76 778z" />
    <glyph glyph-name="O" unicode="O" horiz-adv-x="1421" 
d="M737 1337q609 0 609 -643q0 -327 -182 -523t-478 -196t-453 170.5t-157 499.5t170 510.5t491 181.5zM726 74q202 0 308.5 145t106.5 419t-114 440.5t-315 166.5t-315 -146.5t-114 -424.5t120.5 -439t322.5 -161z" />
    <glyph glyph-name="P" unicode="P" horiz-adv-x="1014" 
d="M592 1331q385 0 385 -355q0 -177 -106 -291t-273 -114q-119 0 -205 45h21q167 0 261.5 94t94.5 248t-66 222.5t-202 68.5q-77 0 -137 -10q-19 -82 -19 -539q0 -458 11.5 -564t39.5 -136h-278q28 30 39.5 138t11.5 462v84q0 386 -11.5 492.5t-39.5 136.5h65q91 0 226.5 9
t181.5 9z" />
    <glyph glyph-name="Q" unicode="Q" horiz-adv-x="1384" 
d="M283 679q0 -266 119.5 -418t308.5 -152t290 139.5t101 399.5t-110 428.5t-281 168.5q-204 0 -316 -150t-112 -416zM76 631q0 342 170.5 524t490.5 182q275 0 421.5 -161.5t146.5 -451.5t-136 -473t-372 -224q160 -83 317.5 -128.5t280.5 -45.5q32 0 89 5
q-106 -110 -269 -110q-325 0 -705 266q-211 30 -322.5 188t-111.5 429z" />
    <glyph glyph-name="R" unicode="R" horiz-adv-x="1081" 
d="M432 705q149 0 229 78t80 223q0 239 -247 239q-79 0 -129 -6q-19 -84 -19 -410v-116q36 -8 86 -8zM938 1065q0 -257 -311 -387l293 -408q145 -201 245 -270h-194q-39 0 -59.5 10.5t-43.5 42.5l-350 492q-38 54 -71 71t-85 17h-16v-125q0 -301 11.5 -388.5t39.5 -119.5
h-278q28 30 39.5 138t11.5 462v84q0 386 -11.5 492.5t-39.5 136.5h59q120 0 268 7t177 7q155 0 235 -66.5t80 -195.5z" />
    <glyph glyph-name="S" unicode="S" horiz-adv-x="985" 
d="M696 305q0 97 -50 162t-169 129l-27 15q-346 189 -346 384q0 151 118 246.5t308 95.5l218 -8l38 -2h52v-213q-80 133 -271 133q-128 0 -202 -56t-74 -151q0 -141 271 -284l13 -6q170 -90 243 -178t73 -199q0 -165 -135.5 -281.5t-333.5 -116.5q-156 0 -363 78v223
q126 -208 307 -208t255.5 70t74.5 167z" />
    <glyph glyph-name="T" unicode="T" horiz-adv-x="1114" 
d="M467 657q0 305 -12 545h-217q-126 0 -203 -51l49 162h1040q-35 -56 -86 -80.5t-135 -24.5l-249 -2q-11 -249 -11 -607q0 -357 11.5 -463t39.5 -136h-278q28 30 39.5 134t11.5 444v79z" />
    <glyph glyph-name="U" unicode="U" horiz-adv-x="1346" 
d="M344 602q0 -315 71 -415.5t251 -100.5t256.5 125t76.5 488t-11 473.5t-40 140.5h281q-30 -30 -41.5 -140.5t-11.5 -515.5t11.5 -516t41.5 -141h-225l6 193q-64 -105 -174 -161.5t-250 -56.5q-217 0 -317.5 105.5t-100.5 333.5l2 243q0 404 -11.5 514.5t-39.5 141.5h278
q-30 -28 -41.5 -154.5t-11.5 -556.5z" />
    <glyph glyph-name="V" unicode="V" horiz-adv-x="1128" 
d="M940 1211q0 51 -14 101l260 1q-144 -204 -432 -950q-94 -242 -146 -373h-166q-126 478 -249 830t-211 493h149q51 0 74.5 -17.5t132.5 -373.5l240 -766l223 559q63 160 101 302.5t38 193.5z" />
    <glyph glyph-name="W" unicode="W" horiz-adv-x="1655" 
d="M1460 1185q0 72 -39 128h271q-73 -79 -152.5 -324.5t-255.5 -998.5h-170q-17 117 -70 299l-229 811q-62 -249 -181 -616.5t-151 -493.5h-176q-64 511 -152 887.5t-147 435.5h131q70 0 91.5 -27.5t48.5 -152.5q80 -396 160 -962l1 -11l199 600q88 266 88 403q0 81 -53 150
h350q-47 -67 -47 -117q0 -51 24 -145l238 -891l143 579q78 306 78 446z" />
    <glyph glyph-name="X" unicode="X" horiz-adv-x="1214" 
d="M272 75q0 -50 29 -75h-307q142 107 287 299l247 330l-229 348q-118 180 -176 249.5t-100 86.5h219q37 0 59 -16t68 -89l268 -434l143 199q125 174 125 270q0 36 -18 70h268q-96 -101 -264 -335l-205 -282l379 -542q73 -107 154 -154h-195q-53 0 -81.5 16t-61.5 68
l-301 473l-136 -191q-172 -241 -172 -291z" />
    <glyph glyph-name="Y" unicode="Y" horiz-adv-x="995" 
d="M389 297q0 201 -52 371.5t-170 373.5t-196 271h166q63 0 95 -24.5t104 -172.5t180 -483l187 343q102 191 102 243t-37 94h262q-294 -438 -379 -600q-47 -94 -67.5 -194.5t-20.5 -309.5q0 -119 41 -209h-268q53 96 53 297z" />
    <glyph glyph-name="Z" unicode="Z" horiz-adv-x="1270" 
d="M698 76q253 0 356.5 33.5t164.5 115.5l-39 -225h-1180q426 547 606 792t305 437h-293q-257 0 -356 -24.5t-158 -84.5l29 197q40 -4 103 -4h612q323 0 345 4l-47 -63q-638 -827 -861 -1168q350 -10 413 -10z" />
    <glyph glyph-name="bracketleft" unicode="[" horiz-adv-x="541" 
d="M199 1421h284q-83 -38 -115 -113.5t-32 -312.5v-905q0 -237 32 -312.5t115 -113.5h-284v1757z" />
    <glyph glyph-name="backslash" unicode="\" horiz-adv-x="569" 
d="M508 -190l-557 1527h110l557 -1527h-110z" />
    <glyph glyph-name="bracketright" unicode="]" horiz-adv-x="541" 
d="M342 -336h-285q84 38 116 113.5t32 312.5v905q0 237 -32 312.5t-116 113.5h285v-1757z" />
    <glyph glyph-name="asciicircum" unicode="^" horiz-adv-x="2048" 
d="M1104 1458l520 -557h-158l-442 438l-442 -438h-160l520 557h162z" />
    <glyph glyph-name="underscore" unicode="_" 
d="M1024 -365v-118h-1024v118h1024z" />
    <glyph glyph-name="grave" unicode="`" 
d="M262 1399h178q75 -172 209 -350q-226 49 -387 350z" />
    <glyph glyph-name="a" unicode="a" horiz-adv-x="829" 
d="M41 187q0 83 63 142t232 133t197 109.5t28 123.5q0 177 -172 177q-86 0 -125 -55q-8 -12 -22 -44q-38 -91 -99 -91q-33 0 -54 21t-21 55q0 79 106 129.5t262 50.5t215.5 -45.5t59.5 -151.5l-11 -399q0 -300 70 -342l-184 -12q-23 61 -27 159q-83 -172 -260 -172
q-106 0 -182 64.5t-76 147.5zM209 234q0 -64 43.5 -101t127.5 -37q174 0 175 252v144q-230 -92 -288 -143t-58 -115z" />
    <glyph glyph-name="b" unicode="b" horiz-adv-x="967" 
d="M129 629q0 417 -15.5 580t-56.5 190l215 37v-682q49 85 132.5 134.5t177.5 49.5q146 0 234.5 -123.5t88.5 -346.5t-114.5 -358t-319.5 -135q-51 0 -140 13.5t-127 13.5t-93 -10q18 220 18 637zM486 49q118 0 186.5 104t68.5 283t-66.5 282t-181.5 103t-169 -94.5
t-54 -304.5t49 -291.5t167 -81.5z" />
    <glyph glyph-name="c" unicode="c" horiz-adv-x="834" 
d="M550 88q149 0 234 115v-4q0 -102 -82.5 -163t-218.5 -61q-182 0 -302 129.5t-120 341.5t136.5 352t351.5 140q112 0 199 -25l-7 -215q-54 168 -197 168t-228 -114t-85 -288t85 -275t234 -101z" />
    <glyph glyph-name="d" unicode="d" horiz-adv-x="985" 
d="M848 692q0 -502 11 -585.5t40 -106.5l-192 -12q-9 43 -9 90v24q-91 -127 -264 -127q-172 0 -272.5 123t-100.5 344t146 358.5t401 137.5q55 0 99 -4v215q0 199 -37 256l207 31q-29 -242 -29 -744zM504 84q116 0 158.5 58t42.5 227q-1 408 -13 440q-22 57 -121 57
q-160 0 -253 -109t-93 -288t81.5 -282t197.5 -103z" />
    <glyph glyph-name="e" unicode="e" horiz-adv-x="872" 
d="M534 104q142 0 259 119v-24q0 -82 -100 -153t-228 -71q-184 0 -294 129.5t-110 350.5t116 352t310 131q142 0 231 -76.5t89 -193.5q0 -48 -54 -64t-245 -16t-264 4q-15 -51 -15 -117q0 -172 81.5 -271.5t223.5 -99.5zM438 647q136 0 167.5 14.5t31.5 66.5t-48.5 96
t-125.5 44t-136.5 -60.5t-70.5 -156.5h18l138 -4h26z" />
    <glyph glyph-name="f" unicode="f" horiz-adv-x="483" 
d="M285 260q0 -139 9.5 -190.5t33.5 -69.5h-234q24 18 33.5 69.5t9.5 190.5v584q-39 0 -81 6l-1 65h82v99q0 152 7 212t24 91q30 56 112 88.5t174 32.5q166 0 167 -84q0 -26 -22.5 -44t-58.5 -18t-85 37t-70 37q-54 0 -78 -80t-24 -206t2 -164l157 -1l2 -16q0 -29 -27 -40
t-132 -15v-584z" />
    <glyph glyph-name="g" unicode="g" horiz-adv-x="930" 
d="M780 682q0 -110 -79 -188.5t-228 -108.5q-186 -86 -186 -147q0 -49 243 -111l31 -8q225 -59 299 -120t74 -155t-51.5 -160t-208.5 -161l-24 -15q-176 -106 -312 -106t-236 79.5t-100 192.5q0 132 208 300q62 50 95 79q-103 23 -147.5 55.5t-44.5 88.5q0 57 93 103t140 85
q-91 12 -148 85t-57 190t100 197.5t263 80.5q90 0 160 -33q160 7 178 12q1 -7 4 -24l-2 -21q-34 -22 -121 -22q57 -58 57 -168zM621 644q0 96 -46.5 165.5t-116.5 69.5t-112.5 -53.5t-42.5 -148.5t50 -161.5t119 -66.5t109 49.5t40 145.5zM150 -252q0 -96 91.5 -157.5
t224.5 -61.5t218.5 78.5t85.5 176.5t-71 149t-298 100q-135 -84 -193 -150.5t-58 -134.5z" />
    <glyph glyph-name="h" unicode="h" horiz-adv-x="938" 
d="M664 608q0 119 -40 167t-144 48t-149.5 -62.5t-45.5 -303.5v-197q0 -139 9.5 -190.5t33.5 -69.5h-234q26 15 36.5 93t10.5 269l-4 599v165q0 147 -9.5 201.5t-33.5 73.5l203 35l-16 -662q69 89 137 126.5t154 37.5q169 0 219 -150q20 -64 20 -346v-227q0 -110 9.5 -152
t33.5 -63h-200q10 186 10 608z" />
    <glyph glyph-name="i" unicode="i" horiz-adv-x="422" 
d="M285 373v-117q0 -134 9.5 -185.5t33.5 -70.5h-234q24 18 33.5 69.5t9.5 190.5v311q0 204 -9.5 266.5t-32.5 77.5q114 4 200 22q-10 -78 -10 -564zM166 1055l-88 139l153 96l86 -141z" />
    <glyph glyph-name="j" unicode="j" horiz-adv-x="422" 
d="M147 1063l-63 147l162 80l69 -147zM137 314q0 451 -9.5 518t-33.5 83l201 23q-12 -134 -12 -328l8 -682q0 -242 -59.5 -371t-182.5 -155l-4 6q52 39 72 247t20 659z" />
    <glyph glyph-name="k" unicode="k" horiz-adv-x="825" 
d="M285 260q0 -139 9.5 -190.5t33.5 -69.5h-234q25 16 35 82t10 235l-2 385l2 371q0 171 -14 240t-49 92l209 31v-897q129 90 205.5 177.5t76.5 131.5t-16 67h207l-264 -282q-44 -44 -78 -72q105 -134 248.5 -339t185.5 -222h-213l-301 455q-26 41 -45 41l-6 -2v-234z" />
    <glyph glyph-name="l" unicode="l" horiz-adv-x="422" 
d="M285 424v-162q0 -140 9.5 -192t33.5 -70h-234q25 16 35 82.5t10 236.5l-2 388v315q0 218 -9.5 291.5t-33.5 87.5l201 34q-10 -97 -10 -1011z" />
    <glyph glyph-name="m" unicode="m" horiz-adv-x="1413" 
d="M137 260v260q0 222 -9.5 290t-33.5 85l187 20q10 -48 10 -90v-20q121 133 278 133t207 -147q135 147 283 147q75 0 128.5 -38t70.5 -90t21.5 -121.5t4.5 -235.5v-246q0 -107 9.5 -147t33.5 -60h-198q10 192 10 512v27q0 189 -36 239.5t-129 50.5t-149 -75
q-22 -30 -31.5 -94t-9.5 -220v-223q0 -181 43 -217h-231q23 18 32 64.5t9 183.5v377q0 108 -38 156t-127 48t-146 -75q-24 -30 -33.5 -92.5t-9.5 -200.5l2 -244q0 -102 9.5 -150t33.5 -67h-234q24 18 33.5 69.5t9.5 190.5z" />
    <glyph glyph-name="n" unicode="n" horiz-adv-x="938" 
d="M664 510v49q0 172 -38 218t-144 46t-151.5 -62.5t-45.5 -303.5v-197q0 -139 9.5 -190.5t33.5 -69.5h-234q24 18 33.5 69.5t9.5 190.5v260q0 222 -9.5 290t-33.5 85l187 20q10 -44 10 -102v-27q61 80 129.5 116t159.5 36q130 0 180.5 -86.5t50.5 -378.5v-266
q0 -107 9.5 -147t33.5 -60h-200q10 224 10 510z" />
    <glyph glyph-name="o" unicode="o" horiz-adv-x="995" 
d="M516 938q200 0 309 -114.5t109 -337.5t-122 -367t-326 -144t-314.5 122.5t-110.5 344.5t127.5 359t327.5 137zM526 53q242 0 242 402q0 181 -78.5 294t-203.5 113t-192 -97t-67 -289t81 -307.5t218 -115.5z" />
    <glyph glyph-name="p" unicode="p" horiz-adv-x="973" 
d="M141 -147v423q0 346 -10.5 477t-36.5 162l186 23q-5 -60 -8 -131q149 131 291 131q141 0 243.5 -130t102.5 -340t-162 -351.5t-411 -141.5q-26 0 -51 5v-37l-2 -123q0 -202 10 -281t35 -112h-234q26 32 36.5 125.5t10.5 300.5zM274 393v-59q0 -170 39 -212t165 -42
t200 87.5t74 258.5t-79.5 285t-199.5 114q-44 0 -91 -19.5t-69 -46.5t-30.5 -100.5t-8.5 -265.5z" />
    <glyph glyph-name="q" unicode="q" horiz-adv-x="977" 
d="M1163 -299q-290 0 -714 280q-183 5 -285.5 126t-102.5 339t128.5 355t322.5 137t298.5 -113t104.5 -307t-71 -319.5t-205 -173.5q395 -240 682 -240q25 0 53 2q-60 -86 -211 -86zM508 61q242 0 242 400q0 180 -72.5 290.5t-194.5 110.5t-189 -97t-67 -287t76.5 -303.5
t204.5 -113.5z" />
    <glyph glyph-name="r" unicode="r" horiz-adv-x="635" 
d="M137 260v260q0 222 -9.5 290t-33.5 85l154 25q31 -1 33 -85q1 -26 2 -40q92 143 217 143q50 0 80 -21.5t30 -56.5q0 -61 -80 -61l-110 6q-84 0 -110.5 -56t-26.5 -264l2 -258q0 -107 9.5 -157.5t33.5 -69.5h-234q24 18 33.5 69.5t9.5 190.5z" />
    <glyph glyph-name="s" unicode="s" horiz-adv-x="729" 
d="M502 213q0 67 -36 110t-160 111t-175 130t-51 157t82.5 156t232.5 61q92 0 219 -27l-6 -174q-74 131 -215 131q-72 0 -114.5 -34.5t-42.5 -92.5q0 -101 207 -221l18 -10q124 -70 165.5 -123.5t41.5 -126.5q0 -116 -109 -200.5t-241 -84.5t-206.5 26.5t-74.5 68.5t14 157
q67 -178 254 -178q87 0 142 48.5t55 115.5z" />
    <glyph glyph-name="t" unicode="t" horiz-adv-x="559" 
d="M139 233v17l11 588l-99 4v65l101 8l4 254l149 45l-6 -299h166q11 0 13.5 -2t2.5 -10q0 -61 -166 -61h-16l-10 -539v-14q0 -104 24.5 -148.5t83.5 -44.5t117 62l-6 -92q-77 -91 -195 -91q-174 0 -174 258z" />
    <glyph glyph-name="u" unicode="u" horiz-adv-x="958" 
d="M819 381v-115q0 -139 10 -192t35 -74l-162 -12h-10q-8 0 -8 10v8l-6 150q-47 -86 -119.5 -133.5t-154.5 -47.5q-167 0 -236 131q-22 44 -31.5 108t-9.5 210v39l4 373q0 59 -42 79l147 23q28 0 35.5 -12.5t7.5 -59.5l-5 -475v-12q0 -150 45 -214.5t152 -64.5t154 78.5
t47 290.5v238q0 184 -41 208l200 23q-12 -187 -12 -557z" />
    <glyph glyph-name="v" unicode="v" horiz-adv-x="797" 
d="M635 828q0 54 -18 87h212q-46 -44 -150 -298t-226 -627h-121q-266 904 -348 921l149 17h19q45 0 156 -382q72 -247 122 -407q95 255 150 445t55 244z" />
    <glyph glyph-name="w" unicode="w" horiz-adv-x="1190" 
d="M528 809q0 65 -32 106h247q-20 -32 -20 -78t166 -702l4 -14q143 513 143 710q0 52 -26 84h192q-46 -62 -106 -262t-168 -663h-129q-166 634 -207 751q-54 -212 -134.5 -460.5t-90.5 -290.5h-134q-88 502 -135.5 695.5t-87.5 229.5l117 9q20 2 33 4q58 0 126 -474
q30 -207 50 -333q192 524 192 688z" />
    <glyph glyph-name="x" unicode="x" horiz-adv-x="758" 
d="M624 -25q-46 0 -100 101l-174 330l-148 -259q-48 -87 -48 -124q0 -8 5 -23h-192q76 52 196 241l142 222l-145 291q-47 91 -71 122t-48 39l143 11l15 2q21 0 35.5 -14t44.5 -72l120 -250l142 219q88 138 227 238l-322 -519l189 -354q78 -148 139 -176l-108 -20
q-20 -5 -42 -5z" />
    <glyph glyph-name="y" unicode="y" horiz-adv-x="772" 
d="M295 -22q0 56 -49.5 248t-115.5 384t-91 242t-49 59l141 17h19q43 0 154 -413q62 -230 104 -376q93 251 147.5 442t54.5 247t-18 87h213q-65 -75 -202 -439q-64 -171 -103 -269q-182 -462 -320 -633.5t-309 -171.5q-74 0 -125 30.5t-51 69.5q0 21 20 29t84 8l90 -2
q106 0 154 20t105 91t102 172.5t45 157.5z" />
    <glyph glyph-name="z" unicode="z" horiz-adv-x="895" 
d="M463 66q197 0 278 28.5t131 98.5l-26 -193h-852l639 848h-195q-168 0 -244 -28t-116 -95l39 190h733l-639 -849h252z" />
    <glyph glyph-name="braceleft" unicode="{" 
d="M461 868v244q0 153 22.5 215.5t70.5 94.5t108.5 43.5t160.5 11.5h35v-127l-45 2q-121 0 -164 -47t-43 -197v-242q0 -166 -43.5 -235.5t-154.5 -100.5q111 -30 154.5 -99.5t43.5 -235.5v-242q0 -149 43.5 -195.5t169.5 -46.5h39v-125h-35q-184 0 -262 52q-55 36 -77.5 100
t-22.5 213v244q0 152 -55 213t-189 61l-45 -2v127l45 -2q134 0 189 61.5t55 214.5z" />
    <glyph glyph-name="bar" unicode="|" 
d="M575 1565v-2048h-126v2048h126z" />
    <glyph glyph-name="braceright" unicode="}" 
d="M418 -45v240q0 166 43.5 235.5t154.5 99.5q-111 31 -154.5 100.5t-43.5 235.5v242q0 149 -44 196.5t-169 47.5h-39v125h35q183 0 264 -52q54 -35 76 -98t22 -215v-244q0 -152 55.5 -214t190.5 -62l45 2v-127l-45 2q-135 0 -190.5 -62t-55.5 -214v-242
q0 -153 -22.5 -216.5t-68.5 -94.5t-104.5 -42.5t-160.5 -11.5h-41v125l45 -2q120 0 163.5 47.5t43.5 198.5z" />
    <glyph glyph-name="asciitilde" unicode="~" horiz-adv-x="1706" 
d="M1143 483q-82 1 -151 23q-70 22 -127 43q-202 72 -302 72q-157 0 -385 -160v133q209 145 387 145q114 1 304 -69q189 -70 276 -70q159 0 385 158v-131q-202 -144 -387 -144z" />
    <glyph glyph-name="euro" horiz-adv-x="1071" 
d="M688 1247q-159 0 -255.5 -116t-119.5 -334h504l-33 -72h-477v-61q0 -58 3 -76h413l-31 -72h-373q32 -180 141.5 -283.5t268.5 -103.5q196 0 313 160q-32 -145 -138 -229.5t-257 -84.5q-202 0 -344.5 148t-175.5 393h-123l31 72h88q-2 28 -2 57l1 80h-138l32 72h115
q41 263 192 401.5t396 138.5l260 -24l-10 -281q-39 111 -107 163t-174 52z" />
    <glyph glyph-name="euro" unicode="&#x20ac;" horiz-adv-x="1071" 
d="M688 1247q-159 0 -255.5 -116t-119.5 -334h504l-33 -72h-477v-61q0 -58 3 -76h413l-31 -72h-373q32 -180 141.5 -283.5t268.5 -103.5q196 0 313 160q-32 -145 -138 -229.5t-257 -84.5q-202 0 -344.5 148t-175.5 393h-123l31 72h88q-2 28 -2 57l1 80h-138l32 72h115
q41 263 192 401.5t396 138.5l260 -24l-10 -281q-39 111 -107 163t-174 52z" />
    <glyph glyph-name="nonbreakingspace" unicode="&#xa0;" horiz-adv-x="1071" 
 />
    <glyph glyph-name="exclamdown" unicode="&#xa1;" horiz-adv-x="537" 
d="M397 1235l-133 -131l-137 102l133 131zM154 0q23 261 69 1051l76 -4q21 -419 78 -1047h-223z" />
    <glyph glyph-name="cent" unicode="&#xa2;" horiz-adv-x="1071" 
d="M635 0h-76v186q-178 14 -281.5 133t-103.5 313t104 325t281 159v164h76v-158h10q60 0 121.5 -14t79.5 -27t18 -88q0 -76 -4 -104q-69 161 -225 163v-755h10q65 0 128.5 31t100.5 81q-3 -92 -58 -142.5t-181 -76.5v-190zM342 673q0 -155 52.5 -242t164.5 -128v746
q-102 -18 -159.5 -119.5t-57.5 -256.5z" />
    <glyph glyph-name="sterling" unicode="&#xa3;" horiz-adv-x="1071" 
d="M37 118q0 60 48 100t134 40t219 -78q29 48 29 84q0 108 -154 389h-209v72h175q-86 151 -86 264q0 154 110.5 251t271.5 97t275 -39l-10 -159q-117 121 -265 121q-110 0 -173.5 -51t-63.5 -135t121 -287q24 -40 37 -62h268v-72h-232q60 -137 60 -231q0 -140 -84 -272
q62 -29 151 -29q208 0 316 116q2 -10 2 -20q0 -94 -82 -168t-186 -74q-64 0 -123.5 22t-141.5 79q-103 -101 -223 -101q-80 0 -132 41.5t-52 101.5zM215 190q-44 0 -71 -19t-27 -51t28 -51.5t76 -19.5q102 0 162 72q-87 69 -168 69z" />
    <glyph glyph-name="currency" unicode="&#xa4;" horiz-adv-x="1071" 
d="M688 1247q-159 0 -255.5 -116t-119.5 -334h504l-33 -72h-477v-61q0 -58 3 -76h413l-31 -72h-373q32 -180 141.5 -283.5t268.5 -103.5q196 0 313 160q-32 -145 -138 -229.5t-257 -84.5q-202 0 -344.5 148t-175.5 393h-123l31 72h88q-2 28 -2 57l1 80h-138l32 72h115
q41 263 192 401.5t396 138.5l260 -24l-10 -281q-39 111 -107 163t-174 52z" />
    <glyph glyph-name="yen" unicode="&#xa5;" horiz-adv-x="1071" 
d="M834 1219q0 52 -37 94h227q-188 -301 -297 -502h236v-72h-273l-65 -137h338v-72h-359v-135q0 -218 9.5 -296t33.5 -99h-246q23 20 32 93.5t9 301.5v135h-333v72h315l-59 137h-256v72h229l-123 258q-99 212 -166 244l131 4q59 0 117.5 -46t249.5 -648l174 329l10 20
q103 195 103 247z" />
    <glyph glyph-name="brokenbar" unicode="&#xa6;" 
d="M575 1432v-758h-126v758h126zM575 408v-758h-126v758h126z" />
    <glyph glyph-name="section" unicode="&#xa7;" 
d="M696 -104q0 112 -244 271q-40 26 -61 40t-62 40q-259 164 -259 328q0 205 231 316q-90 81 -90 193t93 182.5t257 70.5q86 0 242 -28l-8 -193q-88 148 -242 148q-82 0 -129 -38.5t-47 -105.5q0 -101 269 -268q53 -32 69 -43q260 -164 260 -330q0 -200 -246 -307
q131 -106 131 -232t-120 -218.5t-268 -92.5t-227 29t-79 80t14 167q82 -206 285 -206q102 0 166.5 55t64.5 142zM203 637q0 -141 305 -324q103 -62 162 -100q89 42 129.5 97.5t40.5 133.5q0 112 -245 262q-144 88 -233 150q-84 -42 -121.5 -93.5t-37.5 -125.5z" />
    <glyph glyph-name="dieresis" unicode="&#xa8;" 
d="M371 1329l102 -123l-143 -119l-101 121zM692 1329l103 -123l-144 -119l-102 121z" />
    <glyph glyph-name="copyright" unicode="&#xa9;" horiz-adv-x="1706" 
d="M1587 725q0 -309 -211 -516q-225 -219 -524 -219t-516 216t-217 517t214 519t521 218t520 -213t213 -522zM1315 272q186 184 186 453t-188 458t-459 189t-459 -191t-188 -454t190 -457q192 -190 456 -190t462 192zM856 1075q-117 0 -182.5 -92.5t-65.5 -256.5
t66.5 -255.5t167.5 -91.5t159.5 48.5t73.5 133.5h129q-11 -127 -108.5 -207t-259.5 -80t-266.5 121t-104.5 327t107.5 331t287.5 125q137 0 230 -74.5t104 -192.5h-129q-15 77 -70.5 120.5t-138.5 43.5z" />
    <glyph glyph-name="ordfeminine" unicode="&#xaa;" horiz-adv-x="623" 
d="M225 563q-80 0 -137 44.5t-57 102.5t46.5 100t174.5 94t149 76t21 86q0 124 -129 124q-65 0 -94 -39q-7 -8 -17 -31q-29 -63 -73 -63q-26 0 -42 14.5t-16 38.5q0 56 79.5 91.5t196.5 35.5t161 -32.5t44 -106.5l-6 -279q0 -208 51 -239l-137 -9q-16 44 -20 110
q-64 -118 -195 -118zM158 744q0 -45 33 -71t95 -26q130 0 130 176v101q-169 -63 -213.5 -99t-44.5 -81z" />
    <glyph glyph-name="guillemotleft" unicode="&#xab;" horiz-adv-x="891" 
d="M508 842q-12 -82 -59 -142l-203 -235l203 -236q45 -51 59 -141l-447 377zM829 842q-12 -89 -57 -142l-203 -235l203 -236q45 -49 57 -140l-446 376z" />
    <glyph glyph-name="logicalnot" unicode="&#xac;" horiz-adv-x="1706" 
d="M1452 858v-502h-115v385h-1083v117h1198z" />
    <glyph glyph-name="sfthyphen" unicode="&#xad;" horiz-adv-x="678" 
d="M96 406q-26 0 -34 6l90 116h464l-88 -122h-432z" />
    <glyph glyph-name="registered" unicode="&#xae;" horiz-adv-x="1706" 
d="M340 1249q207 211 513 211t520 -214t214 -522t-219 -521t-518 -213t-515 216t-216 519t221 524zM1315 1182q-192 190 -462 190t-458 -190t-188 -454t189 -456t456 -192t458 188t191 457t-186 457zM872 1157q351 0 351 -231q0 -89 -53 -148.5t-144 -75.5l188 -385h-157
l-176 365h-179v-365h-141v840h311zM846 1065h-144v-291h148q123 0 175 33t52 110t-54.5 112.5t-176.5 35.5z" />
    <glyph glyph-name="macron" unicode="&#xaf;" 
d="M254 1270h516v-125h-516v125z" />
    <glyph glyph-name="degree" unicode="&#xb0;" horiz-adv-x="674" 
d="M338 1454q118 0 200.5 -83t82.5 -199t-83.5 -199.5t-201.5 -83.5t-199.5 82.5t-81.5 200.5t82.5 200t200.5 82zM539 1171q0 84 -58.5 142.5t-142.5 58.5t-143.5 -58.5t-59.5 -142.5t59.5 -143t143.5 -59t142.5 59t58.5 143z" />
    <glyph glyph-name="plusminus" unicode="&#xb1;" horiz-adv-x="1706" 
d="M913 1180v-344h539v-117h-539v-344h-118v344h-541v117h541v344h118zM1452 158v-117h-1198v117h1198z" />
    <glyph glyph-name="twosuperior" unicode="&#xb2;" horiz-adv-x="707" 
d="M590 612q0 -19 -23 -88h-514l203 232q203 228 203 350q0 69 -45 109t-132 40t-184 -71v8q0 60 67 97.5t174 37.5t170.5 -51.5t63.5 -125.5q0 -135 -133 -271l-260 -281l291 4q71 0 119 25v-15z" />
    <glyph glyph-name="threesuperior" unicode="&#xb3;" horiz-adv-x="707" 
d="M137 1221q0 106 196 106q96 0 150 -42.5t54 -108.5q0 -147 -191 -201q232 -71 232 -236q0 -95 -81 -162t-191 -67q-217 0 -222 120q78 -57 170 -57t146.5 49t54.5 129t-60 135.5t-174 80.5q201 57 201 176q0 56 -38.5 88.5t-105.5 32.5t-141 -43z" />
    <glyph glyph-name="acute" unicode="&#xb4;" 
d="M375 1049q135 182 209 350h178q-82 -153 -176 -238t-211 -112z" />
    <glyph glyph-name="mu" unicode="&#xb5;" horiz-adv-x="1128" 
d="M420 -18q-175 0 -262 137l-113 -545h-156l316 1495h157l-126 -595q-15 -62 -15 -154q0 -93 57 -152t171 -59t197 101t128 308l121 551h156l-162 -754q-23 -100 -23 -135q0 -65 72 -65q17 0 35 2l-27 -125q-42 -10 -102 -10q-124 0 -135 147q-41 -70 -117 -108.5
t-172 -38.5z" />
    <glyph glyph-name="paragraph" unicode="&#xb6;" 
d="M948 1401h-125v-1401h-94v1401h-182v-1401h-96v782q-173 8 -274 102.5t-101 248.5t107.5 250t285.5 96h479v-78z" />
    <glyph glyph-name="glyph122" unicode="&#xb7;" horiz-adv-x="537" 
d="M156 657q0 45 33.5 78t78.5 33t78 -33t33 -77t-33 -78.5t-78 -34.5t-78.5 33.5t-33.5 78.5z" />
    <glyph glyph-name="cedilla" unicode="&#xb8;" 
d="M498 -190q-16 0 -58 -3v193h72v-106h23q227 0 227 -177q0 -182 -248 -182q-133 0 -191.5 33.5t-64.5 114.5q116 -56 245 -56q130 0 130 88q0 95 -135 95z" />
    <glyph glyph-name="onesuperior" unicode="&#xb9;" horiz-adv-x="707" 
d="M418 1327q-12 -353 -12 -561t34 -242l-173 1q19 17 26.5 89t7.5 301v121q0 145 -7.5 192.5t-27.5 61.5z" />
    <glyph glyph-name="ordmasculine" unicode="&#xba;" horiz-adv-x="748" 
d="M387 1237q150 0 231.5 -80.5t81.5 -236.5t-92 -256.5t-244 -100.5t-234.5 85t-82.5 241t95 252t245 96zM395 616q180 0 180 281q0 127 -58 207t-152 80t-144.5 -69t-50.5 -203t61 -215t164 -81z" />
    <glyph glyph-name="guillemotright" unicode="&#xbb;" horiz-adv-x="891" 
d="M61 88q14 90 58 141l203 236l-203 235q-45 51 -57 141l446 -376zM383 88q12 84 59 141l203 236l-203 235q-48 56 -59 142l446 -377z" />
    <glyph glyph-name="onequarter" unicode="&#xbc;" horiz-adv-x="1692" 
d="M387 866q0 -146 7 -208.5t26 -79.5h-166q18 15 25.5 83.5t7.5 282.5v113q0 133 -7.5 177.5t-25.5 57.5l143 35q-10 -315 -10 -461zM334 -25l921 1362h103l-922 -1362h-102zM1520 750v-437h30q61 0 111 4q-13 -30 -42 -42.5t-99 -14.5v-39q0 -124 5.5 -166.5t20.5 -54.5
h-155q26 22 26 221v37h-379q263 319 428 492h54zM1419 313l4 332l-280 -332h276z" />
    <glyph glyph-name="onehalf" unicode="&#xbd;" horiz-adv-x="1692" 
d="M387 866q0 -146 7 -208.5t26 -79.5h-166q18 15 25.5 83.5t7.5 282.5v113q0 133 -7.5 177.5t-25.5 57.5l143 35q-10 -315 -10 -461zM334 -25l921 1362h103l-922 -1362h-102zM1581 82q0 -16 -22 -82h-490l195 215q192 215 192 328q0 64 -43 101.5t-128 37.5t-175 -68v9
q0 56 64 91.5t166 35.5t163.5 -49t61.5 -117t-31 -127t-96 -127l-248 -260l276 4q75 0 115 20v-12z" />
    <glyph glyph-name="threequarters" unicode="&#xbe;" horiz-adv-x="1692" 
d="M403 1155q0 53 -36.5 83t-103.5 30t-132 -41q0 100 197 100q81 0 132.5 -39.5t51.5 -101.5q0 -138 -182 -189q221 -63 221 -219q0 -90 -76.5 -152.5t-182.5 -62.5q-209 0 -212 114q71 -54 160 -54q90 0 142 45.5t52 120.5t-57.5 127.5t-165.5 74.5q192 53 192 164z
M332 -25l921 1362h103l-922 -1362h-102zM1518 750v-437h30q61 0 111 4q-14 -30 -42.5 -42.5t-98.5 -14.5v-39q0 -124 5.5 -166.5t20.5 -54.5h-155q26 22 26 221v37h-379q263 319 428 492h54zM1417 313l4 332l-280 -332h276z" />
    <glyph glyph-name="questiondown" unicode="&#xbf;" horiz-adv-x="721" 
d="M592 1255l-131 -141l-148 82l121 141zM489 938q0 -144 -112 -294q-17 -22 -63 -86q-96 -131 -95 -240q0 -108 60 -168t137 -60q141 0 229 82l-12 -113q-110 -84 -262 -84t-238 83t-86 238t183 374q113 132 163.5 225.5t77.5 179.5q18 -66 18 -137z" />
    <glyph glyph-name="Agrave" unicode="&#xc0;" horiz-adv-x="1241" 
d="M188 63q0 -27 10 -63h-261q183 221 385 694q88 203 144 363t56 191t-16 65h254q310 -1031 508 -1313h-224l-206 569h-478l-90 -220q-82 -197 -82 -286zM393 645h414l-193 529zM389 1796h178q75 -172 209 -350q-226 49 -387 350z" />
    <glyph glyph-name="Aacute" unicode="&#xc1;" horiz-adv-x="1241" 
d="M188 63q0 -27 10 -63h-261q183 221 385 694q88 203 144 363t56 191t-16 65h254q310 -1031 508 -1313h-224l-206 569h-478l-90 -220q-82 -197 -82 -286zM393 645h414l-193 529zM502 1446q135 182 209 350h178q-82 -153 -176 -238t-211 -112z" />
    <glyph glyph-name="Acircumflex" unicode="&#xc2;" horiz-adv-x="1241" 
d="M188 63q0 -27 10 -63h-261q183 221 385 694q88 203 144 363t56 191t-16 65h254q310 -1031 508 -1313h-224l-206 569h-478l-90 -220q-82 -197 -82 -286zM393 645h414l-193 529zM352 1446q143 227 197 350h178q58 -132 197 -350h-90q-107 109 -195 243q-94 -140 -195 -243
h-92z" />
    <glyph glyph-name="Atilde" unicode="&#xc3;" horiz-adv-x="1241" 
d="M188 63q0 -27 10 -63h-261q183 221 385 694q88 203 144 363t56 191t-16 65h254q310 -1031 508 -1313h-224l-206 569h-478l-90 -220q-82 -197 -82 -286zM393 645h414l-193 529zM533 1568q-69 0 -97 -63h-88q43 186 197 186q27 0 61 -10l79 -27q34 -10 60 -10q70 0 97 70
h88q-49 -191 -199 -191q-37 0 -66 11l-79 26q-24 8 -53 8z" />
    <glyph glyph-name="Adieresis" unicode="&#xc4;" horiz-adv-x="1241" 
d="M188 63q0 -27 10 -63h-261q183 221 385 694q88 203 144 363t56 191t-16 65h254q310 -1031 508 -1313h-224l-206 569h-478l-90 -220q-82 -197 -82 -286zM393 645h414l-193 529zM498 1726l102 -123l-143 -119l-101 121zM819 1726l103 -123l-144 -119l-102 121z" />
    <glyph glyph-name="Aring" unicode="&#xc5;" horiz-adv-x="1241" 
d="M393 645h414l-193 529zM188 63q0 -27 10 -63h-261q183 221 385 694q87 203 143.5 363t56.5 191t-16 65h254q310 -1031 508 -1313h-224l-206 569h-478l-90 -220q-82 -197 -82 -286zM636 1876q104 0 176.5 -72t72.5 -176t-72.5 -176t-176.5 -72t-175.5 72t-71.5 176
t71.5 176t175.5 72zM638 1769q-60 0 -101 -41.5t-41 -101.5t41.5 -100.5t101.5 -40.5t100.5 40.5t40.5 100.5t-41 101.5t-101 41.5z" />
    <glyph glyph-name="AE" unicode="&#xc6;" horiz-adv-x="1651" 
d="M162 68q0 -40 14 -68h-272q78 84 174 234.5t314 554.5t218 460q0 31 -22 64h293l518 6l71 -2l17 -193q-24 63 -96.5 88t-276.5 25h-115q-18 -86 -18 -430v-68q50 -4 218 -4t292 23q-56 -65 -148.5 -92t-308.5 -27l-53 2v-133q0 -346 18 -432h119q203 0 305 32.5
t158 108.5l-35 -205q-84 -16 -205 -16l-419 4h-168q53 64 53 502h-461l-80 -148q-104 -197 -104 -286zM805 844v151q0 153 -9 199.5t-32 46.5q-18 0 -33 -15.5t-43 -68.5l-303 -579h422q-2 102 -2 266z" />
    <glyph glyph-name="Ccedilla" unicode="&#xc7;" horiz-adv-x="1214" 
d="M753 1247q-223 0 -349 -145t-125 -404q-1 -259 137 -415t365 -156t370 162q-35 -143 -161 -229t-302 -85h-20v-81h23q227 0 227 -177q0 -182 -248 -182q-134 -1 -192 33t-64 115q116 -56 245 -56q130 0 130 88q0 95 -135 95q-16 0 -58 -3v174q-206 27 -348 181
q-172 186 -172 496t185 494t511 185l305 -24l-12 -281q-89 215 -312 215z" />
    <glyph glyph-name="Egrave" unicode="&#xc8;" horiz-adv-x="1014" 
d="M170 600v84q0 386 -12 492t-39 137h127l518 6l72 -2l16 -193q-24 63 -96 88t-277 25h-114q-19 -82 -19 -430v-68q50 -4 218 -4t292 23q-56 -65 -148 -92t-309 -27l-53 2v-133q0 -350 19 -432h118q203 0 305 32t158 109l-35 -205q-82 -16 -204 -16l-420 4h-168
q27 30 39 138t12 462zM231 1796h178q75 -172 209 -350q-226 49 -387 350z" />
    <glyph glyph-name="Eacute" unicode="&#xc9;" horiz-adv-x="1014" 
d="M170 600v84q0 386 -12 492t-39 137h127l518 6l72 -2l16 -193q-24 63 -96 88t-277 25h-114q-19 -82 -19 -430v-68q50 -4 218 -4t292 23q-56 -65 -148 -92t-309 -27l-53 2v-133q0 -350 19 -432h118q203 0 305 32t158 109l-35 -205q-82 -16 -204 -16l-420 4h-168
q27 30 39 138t12 462zM344 1446q135 182 209 350h178q-82 -153 -176 -238t-211 -112z" />
    <glyph glyph-name="Ecircumflex" unicode="&#xca;" horiz-adv-x="1014" 
d="M170 600v84q0 386 -12 492t-39 137h127l518 6l72 -2l16 -193q-24 63 -96 88t-277 25h-114q-19 -82 -19 -430v-68q50 -4 218 -4t292 23q-56 -65 -148 -92t-309 -27l-53 2v-133q0 -350 19 -432h118q203 0 305 32t158 109l-35 -205q-82 -16 -204 -16l-420 4h-168
q27 30 39 138t12 462zM194 1446q143 227 197 350h178q58 -132 197 -350h-90q-107 109 -195 243q-94 -140 -195 -243h-92z" />
    <glyph glyph-name="Edieresis" unicode="&#xcb;" horiz-adv-x="1014" 
d="M170 600v84q0 386 -12 492t-39 137h127l518 6l72 -2l16 -193q-24 63 -96 88t-277 25h-114q-19 -82 -19 -430v-68q50 -4 218 -4t292 23q-56 -65 -148 -92t-309 -27l-53 2v-133q0 -350 19 -432h118q203 0 305 32t158 109l-35 -205q-82 -16 -204 -16l-420 4h-168
q27 30 39 138t12 462zM340 1726l102 -123l-143 -119l-101 121zM661 1726l103 -123l-144 -119l-102 121z" />
    <glyph glyph-name="Igrave" unicode="&#xcc;" horiz-adv-x="516" 
d="M170 600v84q0 386 -12 492t-39 137h278q-27 -29 -39 -133t-12 -443v-159q0 -340 12 -444t39 -134h-278q27 30 39 138t12 462zM8 1796h178q75 -172 209 -350q-226 49 -387 350z" />
    <glyph glyph-name="Iacute" unicode="&#xcd;" horiz-adv-x="516" 
d="M170 600v84q0 386 -12 492t-39 137h278q-27 -29 -39 -133t-12 -443v-159q0 -340 12 -444t39 -134h-278q27 30 39 138t12 462zM121 1446q135 182 209 350h178q-82 -153 -176 -238t-211 -112z" />
    <glyph glyph-name="Icircumflex" unicode="&#xce;" horiz-adv-x="516" 
d="M170 600v84q0 386 -12 492t-39 137h278q-27 -29 -39 -133t-12 -443v-159q0 -340 12 -444t39 -134h-278q27 30 39 138t12 462zM-29 1446q143 227 197 350h178q58 -132 197 -350h-90q-107 109 -195 243q-94 -140 -195 -243h-92z" />
    <glyph glyph-name="Idieresis" unicode="&#xcf;" horiz-adv-x="516" 
d="M170 600v84q0 386 -12 492t-39 137h278q-27 -29 -39 -133t-12 -443v-159q0 -340 12 -444t39 -134h-278q27 30 39 138t12 462zM117 1726l102 -123l-143 -119l-101 121zM438 1726l103 -123l-144 -119l-102 121z" />
    <glyph glyph-name="Eth" unicode="&#xd0;" horiz-adv-x="1450" 
d="M217 569v90h-170v84h170v56q0 283 -11.5 382.5t-39.5 131.5h149q90 0 241 12t214 12q282 0 443 -165.5t161 -454.5q0 -336 -193 -531.5t-524 -195.5l-352 10h-139q29 31 40 134.5t11 434.5zM393 807v-64h328v-84h-328v-151q0 -261 10 -346q8 -51 55.5 -68.5t182.5 -17.5
q250 0 388 151t138 431t-144 435.5t-409 155.5q-110 0 -204 -20q-17 -89 -17 -422z" />
    <glyph glyph-name="Ntilde" unicode="&#xd1;" horiz-adv-x="1356" 
d="M170 778q0 316 -16 410t-60 125h213q58 0 129 -108q18 -29 52 -79t236 -356q200 -306 370 -537l2 574q0 275 -12 373t-42 133h195q-29 -27 -41 -149t-12 -492v-678h-133q-68 108 -339 500t-454 663l6 -661q2 -238 18 -340t50 -156h-238q76 97 76 778zM590 1568
q-69 0 -97 -63h-88q43 186 197 186q27 0 61 -10l79 -27q34 -10 60 -10q70 0 97 70h88q-49 -191 -199 -191q-37 0 -66 11l-79 26q-24 8 -53 8z" />
    <glyph glyph-name="Ograve" unicode="&#xd2;" horiz-adv-x="1421" 
d="M737 1337q609 0 609 -643q0 -327 -182 -523t-478 -196q-296 1 -454 171q-156 170 -156 499t170 511t491 181zM726 74q202 0 308 144t107 420q0 274 -114 440t-315 167q-201 0 -315 -147q-114 -146 -114 -424q1 -278 121 -439t322 -161zM461 1796h178q75 -172 209 -350
q-226 49 -387 350z" />
    <glyph glyph-name="Oacute" unicode="&#xd3;" horiz-adv-x="1421" 
d="M737 1337q609 0 609 -643q0 -327 -182 -523t-478 -196q-296 1 -454 171q-156 170 -156 499t170 511t491 181zM726 74q202 0 308 144t107 420q0 274 -114 440t-315 167q-201 0 -315 -147q-114 -146 -114 -424q1 -278 121 -439t322 -161zM574 1446q135 182 209 350h178
q-82 -153 -176 -238t-211 -112z" />
    <glyph glyph-name="Ocircumflex" unicode="&#xd4;" horiz-adv-x="1421" 
d="M737 1337q609 0 609 -643q0 -327 -182 -523t-478 -196q-296 1 -454 171q-156 170 -156 499t170 511t491 181zM726 74q202 0 308 144t107 420q0 274 -114 440t-315 167q-201 0 -315 -147q-114 -146 -114 -424q1 -278 121 -439t322 -161zM424 1446q143 227 197 350h178
q58 -132 197 -350h-90q-107 109 -195 243q-94 -140 -195 -243h-92z" />
    <glyph glyph-name="Otilde" unicode="&#xd5;" horiz-adv-x="1421" 
d="M737 1337q609 0 609 -643q0 -327 -182 -523t-478 -196q-296 1 -454 171q-156 170 -156 499t170 511t491 181zM726 74q202 0 308 144t107 420q0 274 -114 440t-315 167q-201 0 -315 -147q-114 -146 -114 -424q1 -278 121 -439t322 -161zM605 1568q-69 0 -97 -63h-88
q43 186 197 186q27 0 61 -10l79 -27q34 -10 60 -10q70 0 97 70h88q-49 -191 -199 -191q-37 0 -66 11l-79 26q-24 8 -53 8z" />
    <glyph glyph-name="Odieresis" unicode="&#xd6;" horiz-adv-x="1421" 
d="M737 1337q609 0 609 -643q0 -327 -182 -523t-478 -196q-296 1 -454 171q-156 170 -156 499t170 511t491 181zM726 74q202 0 308 144t107 420q0 274 -114 440t-315 167q-201 0 -315 -147q-114 -146 -114 -424q1 -278 121 -439t322 -161zM570 1726l102 -123l-143 -119
l-101 121zM891 1726l103 -123l-144 -119l-102 121z" />
    <glyph glyph-name="multiply" unicode="&#xd7;" horiz-adv-x="1706" 
d="M858 692l475 477l82 -82l-475 -477l475 -475l-82 -82l-475 475l-477 -475l-80 82l475 475l-475 477l80 82z" />
    <glyph glyph-name="Oslash" unicode="&#xd8;" horiz-adv-x="1421" 
d="M1034.5 218.5q106.5 144.5 106.5 382.5t-70 396l-665 -764q126 -159 324 -159t304.5 144.5zM283 682q0 -201 69 -365l670 766q-107 162 -309 162t-316 -148t-114 -415zM76 629q0 344 170 526t491 182q257 0 404 -114l131 151h127l-189 -217q136 -175 136 -483
q0 -309 -182 -504t-486 -195q-126 0 -217.5 29.5t-173.5 93.5l-137 -159h-125l194 223q-143 171 -143 467z" />
    <glyph glyph-name="Ugrave" unicode="&#xd9;" horiz-adv-x="1346" 
d="M344 602q0 -316 71 -416t251 -100t256 125t77 488q0 363 -11 473t-40 141h281q-29 -31 -41 -141t-12 -515t12 -516t41 -141h-225l6 193q-64 -105 -174 -161t-250 -57q-218 -1 -318 105t-100 334l2 243q0 405 -12 515t-39 141h278q-29 -29 -41 -155t-12 -556zM424 1796
h178q75 -172 209 -350q-226 49 -387 350z" />
    <glyph glyph-name="Uacute" unicode="&#xda;" horiz-adv-x="1346" 
d="M344 602q0 -316 71 -416t251 -100t256 125t77 488q0 363 -11 473t-40 141h281q-29 -31 -41 -141t-12 -515t12 -516t41 -141h-225l6 193q-64 -105 -174 -161t-250 -57q-218 -1 -318 105t-100 334l2 243q0 405 -12 515t-39 141h278q-29 -29 -41 -155t-12 -556zM537 1446
q135 182 209 350h178q-82 -153 -176 -238t-211 -112z" />
    <glyph glyph-name="Ucircumflex" unicode="&#xdb;" horiz-adv-x="1346" 
d="M344 602q0 -316 71 -416t251 -100t256 125t77 488q0 363 -11 473t-40 141h281q-29 -31 -41 -141t-12 -515t12 -516t41 -141h-225l6 193q-64 -105 -174 -161t-250 -57q-218 -1 -318 105t-100 334l2 243q0 405 -12 515t-39 141h278q-29 -29 -41 -155t-12 -556zM387 1446
q143 227 197 350h178q58 -132 197 -350h-90q-107 109 -195 243q-94 -140 -195 -243h-92z" />
    <glyph glyph-name="Udieresis" unicode="&#xdc;" horiz-adv-x="1346" 
d="M344 602q0 -316 71 -416t251 -100t256 125t77 488q0 363 -11 473t-40 141h281q-29 -31 -41 -141t-12 -515t12 -516t41 -141h-225l6 193q-64 -105 -174 -161t-250 -57q-218 -1 -318 105t-100 334l2 243q0 405 -12 515t-39 141h278q-29 -29 -41 -155t-12 -556zM533 1726
l102 -123l-143 -119l-101 121zM854 1726l103 -123l-144 -119l-102 121z" />
    <glyph glyph-name="Yacute" unicode="&#xdd;" horiz-adv-x="995" 
d="M389 297q0 201 -52 371t-170 374q-118 203 -196 271h166q63 -1 95 -25t104 -172t180 -483l187 343q102 191 102 243t-37 94h262q-294 -438 -379 -600q-47 -95 -67 -195t-21 -309q0 -119 41 -209h-268q53 96 53 297zM361 1446q135 182 209 350h178q-82 -153 -176 -238
t-211 -112z" />
    <glyph glyph-name="Thorn" unicode="&#xde;" horiz-adv-x="1014" 
d="M592 1069q188 0 286.5 -90.5t98.5 -266.5t-106 -290.5t-273 -114.5q-119 0 -205 45h21q167 0 261.5 93.5t94.5 261.5q0 280 -268 280q-72 0 -152 -16q-4 -134 -4 -314v-79q0 -340 11.5 -444.5t39.5 -133.5h-278q28 30 39.5 138t11.5 462v84q0 386 -11.5 492.5
t-39.5 136.5h278q-47 -60 -47 -232q2 -6 2 -28q160 16 240 16z" />
    <glyph glyph-name="germandbls" unicode="&#xdf;" horiz-adv-x="977" 
d="M285 1012v-752q0 -139 9.5 -190.5t33.5 -69.5h-234q24 18 33.5 69.5t9.5 190.5v584q-39 0 -81 6l-1 65h82v105q0 222 26 285q54 131 304 131q133 0 211 -65.5t78 -180.5t-115 -199q-17 -11 -47 -31q-72 -45 -72 -73q0 -23 78 -83t119 -97q108 -97 152 -183t44 -194
q0 -157 -88 -256t-229 -99q-88 0 -146.5 26t-58.5 71t17 141q19 -78 68.5 -122t121.5 -44t117 64.5t45 162.5q0 187 -146 316q-15 14 -44 39q-181 161 -181 221q0 26 15.5 47.5t77.5 67.5t89 91.5t27 124.5t-45.5 137t-124.5 58t-112 -65t-33 -299z" />
    <glyph glyph-name="agrave" unicode="&#xe0;" horiz-adv-x="829" 
d="M41 187q0 83 63 142t232 133t197 110q28 35 28 123q0 177 -172 177q-86 0 -125 -55q-8 -12 -22 -44q-38 -91 -99 -91q-33 0 -54 21t-21 55q0 80 106 130t262 50t216 -46t59 -151l-11 -399q0 -300 70 -342l-184 -12q-23 61 -27 159q-83 -172 -260 -172q-106 1 -182 65
t-76 147zM209 234q0 -64 44 -101q43 -37 127 -37q174 0 175 252v144q-230 -92 -288 -142q-58 -52 -58 -116zM176 1399h178q75 -172 209 -350q-226 49 -387 350z" />
    <glyph glyph-name="aacute" unicode="&#xe1;" horiz-adv-x="829" 
d="M41 187q0 83 63 142t232 133t197 110q28 35 28 123q0 177 -172 177q-86 0 -125 -55q-8 -12 -22 -44q-38 -91 -99 -91q-33 0 -54 21t-21 55q0 80 106 130t262 50t216 -46t59 -151l-11 -399q0 -300 70 -342l-184 -12q-23 61 -27 159q-83 -172 -260 -172q-106 1 -182 65
t-76 147zM209 234q0 -64 44 -101q43 -37 127 -37q174 0 175 252v144q-230 -92 -288 -142q-58 -52 -58 -116zM289 1049q135 182 209 350h178q-82 -153 -176 -238t-211 -112z" />
    <glyph glyph-name="acircumflex" unicode="&#xe2;" horiz-adv-x="829" 
d="M41 187q0 83 63 142t232 133t197 110q28 35 28 123q0 177 -172 177q-86 0 -125 -55q-8 -12 -22 -44q-38 -91 -99 -91q-33 0 -54 21t-21 55q0 80 106 130t262 50t216 -46t59 -151l-11 -399q0 -300 70 -342l-184 -12q-23 61 -27 159q-83 -172 -260 -172q-106 1 -182 65
t-76 147zM209 234q0 -64 44 -101q43 -37 127 -37q174 0 175 252v144q-230 -92 -288 -142q-58 -52 -58 -116zM139 1049q143 227 197 350h178q58 -132 197 -350h-90q-107 109 -195 243q-94 -140 -195 -243h-92z" />
    <glyph glyph-name="atilde" unicode="&#xe3;" horiz-adv-x="829" 
d="M41 187q0 83 63 142t232 133t197 110q28 35 28 123q0 177 -172 177q-86 0 -125 -55q-8 -12 -22 -44q-38 -91 -99 -91q-33 0 -54 21t-21 55q0 80 106 130t262 50t216 -46t59 -151l-11 -399q0 -300 70 -342l-184 -12q-23 61 -27 159q-83 -172 -260 -172q-106 1 -182 65
t-76 147zM209 234q0 -64 44 -101q43 -37 127 -37q174 0 175 252v144q-230 -92 -288 -142q-58 -52 -58 -116zM320 1171q-69 0 -97 -63h-88q43 186 197 186q27 0 61 -10l79 -27q34 -10 60 -10q70 0 97 70h88q-49 -191 -199 -191q-37 0 -66 11l-79 26q-24 8 -53 8z" />
    <glyph glyph-name="adieresis" unicode="&#xe4;" horiz-adv-x="829" 
d="M41 187q0 83 63 142t232 133t197 110q28 35 28 123q0 177 -172 177q-86 0 -125 -55q-8 -12 -22 -44q-38 -91 -99 -91q-33 0 -54 21t-21 55q0 80 106 130t262 50t216 -46t59 -151l-11 -399q0 -300 70 -342l-184 -12q-23 61 -27 159q-83 -172 -260 -172q-106 1 -182 65
t-76 147zM209 234q0 -64 44 -101q43 -37 127 -37q174 0 175 252v144q-230 -92 -288 -142q-58 -52 -58 -116zM285 1329l102 -123l-143 -119l-101 121zM606 1329l103 -123l-144 -119l-102 121z" />
    <glyph glyph-name="aring" unicode="&#xe5;" horiz-adv-x="829" 
d="M209 234q0 -64 43.5 -101t127.5 -37q174 0 175 252v144q-230 -92 -288 -143t-58 -115zM41 187q0 83 63 142t232 133t197 109.5t28 123.5q0 177 -172 177q-86 0 -125 -55q-8 -12 -22 -44q-38 -91 -99 -91q-33 0 -54 21t-21 55q0 79 106 129.5t262 50.5t215.5 -45.5
t59.5 -151.5l-11 -399q0 -300 70 -342l-184 -12q-23 61 -27 159q-83 -172 -260 -172q-106 0 -182 64.5t-76 147.5zM436 1501q104 0 176 -72.5t72 -176.5t-72 -175t-176 -71t-176 72t-72 176t72 175.5t176 71.5zM436 1395q-60 0 -100.5 -41t-40.5 -101t40.5 -101.5
t100.5 -41.5t102 41t42 101t-42 101.5t-102 41.5z" />
    <glyph glyph-name="ae" unicode="&#xe6;" horiz-adv-x="1337" 
d="M999 104q142 0 258 119v-24q0 -81 -100.5 -152.5t-224.5 -71.5t-211 55t-129 154q-35 -98 -109 -153.5t-180 -55.5t-184 63.5t-78 147.5t63 143t232 133t197 109t28 123t-41 132t-130 44t-126 -53q-8 -12 -22 -44q-38 -91 -99 -91q-33 0 -54 21t-21 55q0 79 106 129.5
t291 50.5t225 -86q104 86 255 86q150 0 238.5 -76t88.5 -194q0 -48 -54 -64t-244 -16t-265 4q-15 -51 -15 -117q0 -172 81.5 -271.5t223.5 -99.5zM903 647q136 0 167.5 14.5t31.5 66.5t-49 97t-125 45t-136.5 -61t-70.5 -158h16l140 -4h26zM209 234q0 -64 43.5 -101
t127.5 -37q174 0 175 252v144q-230 -92 -288 -143t-58 -115z" />
    <glyph glyph-name="ccedilla" unicode="&#xe7;" horiz-adv-x="834" 
d="M550 88q149 0 234 115v-4q0 -102 -82 -163t-219 -61h-14v-81h23q227 0 227 -177q0 -182 -248 -182q-133 -1 -191 33t-65 115q116 -56 245 -56q130 0 130 88q0 95 -135 95q-16 0 -58 -3v176q-126 24 -216 122q-120 129 -120 341q1 212 137 352t351 140q112 0 199 -25
l-7 -215q-54 168 -197 168t-228 -114t-85 -288t85 -275t234 -101z" />
    <glyph glyph-name="egrave" unicode="&#xe8;" horiz-adv-x="872" 
d="M534 104q142 0 259 119v-24q0 -82 -100 -153t-228 -71q-184 -1 -294 129t-110 351t116 352t310 131q142 0 231 -76t89 -194q0 -48 -54 -64t-245 -16t-264 4q-15 -51 -15 -117q-1 -171 81 -271t224 -100zM438 647q136 1 168 15t31 66t-49 96t-125 44t-137 -60t-70 -157h18
l138 -4h26zM225 1399h178q75 -172 209 -350q-226 49 -387 350z" />
    <glyph glyph-name="eacute" unicode="&#xe9;" horiz-adv-x="872" 
d="M534 104q142 0 259 119v-24q0 -82 -100 -153t-228 -71q-184 -1 -294 129t-110 351t116 352t310 131q142 0 231 -76t89 -194q0 -48 -54 -64t-245 -16t-264 4q-15 -51 -15 -117q-1 -171 81 -271t224 -100zM438 647q136 1 168 15t31 66t-49 96t-125 44t-137 -60t-70 -157h18
l138 -4h26zM338 1049q135 182 209 350h178q-82 -153 -176 -238t-211 -112z" />
    <glyph glyph-name="ecircumflex" unicode="&#xea;" horiz-adv-x="872" 
d="M534 104q142 0 259 119v-24q0 -82 -100 -153t-228 -71q-184 -1 -294 129t-110 351t116 352t310 131q142 0 231 -76t89 -194q0 -48 -54 -64t-245 -16t-264 4q-15 -51 -15 -117q-1 -171 81 -271t224 -100zM438 647q136 1 168 15t31 66t-49 96t-125 44t-137 -60t-70 -157h18
l138 -4h26zM188 1049q143 227 197 350h178q58 -132 197 -350h-90q-107 109 -195 243q-94 -140 -195 -243h-92z" />
    <glyph glyph-name="edieresis" unicode="&#xeb;" horiz-adv-x="872" 
d="M534 104q142 0 259 119v-24q0 -82 -100 -153t-228 -71q-184 -1 -294 129t-110 351t116 352t310 131q142 0 231 -76t89 -194q0 -48 -54 -64t-245 -16t-264 4q-15 -51 -15 -117q-1 -171 81 -271t224 -100zM438 647q136 1 168 15t31 66t-49 96t-125 44t-137 -60t-70 -157h18
l138 -4h26zM334 1329l102 -123l-143 -119l-101 121zM655 1329l103 -123l-144 -119l-102 121z" />
    <glyph glyph-name="igrave" unicode="&#xec;" horiz-adv-x="422" 
d="M285 373v-117q-1 -134 9 -186t34 -70h-234q24 18 34 70t9 190v311q1 205 -9 267t-33 77q114 4 200 22q-10 -78 -10 -564zM-39 1399h178q75 -172 209 -350q-226 49 -387 350z" />
    <glyph glyph-name="iacute" unicode="&#xed;" horiz-adv-x="422" 
d="M285 373v-117q-1 -134 9 -186t34 -70h-234q24 18 34 70t9 190v311q1 205 -9 267t-33 77q114 4 200 22q-10 -78 -10 -564zM74 1049q135 182 209 350h178q-82 -153 -176 -238t-211 -112z" />
    <glyph glyph-name="icircumflex" unicode="&#xee;" horiz-adv-x="422" 
d="M285 373v-117q-1 -134 9 -186t34 -70h-234q24 18 34 70t9 190v311q1 205 -9 267t-33 77q114 4 200 22q-10 -78 -10 -564zM-76 1049q143 227 197 350h178q58 -132 197 -350h-90q-107 109 -195 243q-94 -140 -195 -243h-92z" />
    <glyph glyph-name="idieresis" unicode="&#xef;" horiz-adv-x="422" 
d="M285 373v-117q-1 -134 9 -186t34 -70h-234q24 18 34 70t9 190v311q1 205 -9 267t-33 77q114 4 200 22q-10 -78 -10 -564zM70 1329l102 -123l-143 -119l-101 121zM391 1329l103 -123l-144 -119l-102 121z" />
    <glyph glyph-name="eth" unicode="&#xf0;" horiz-adv-x="995" 
d="M526 53q242 0 242 402q0 181 -78.5 294t-203.5 113t-192 -97t-67 -289t81 -307.5t218 -115.5zM934 508q0 -245 -122 -389t-326 -144t-314.5 122t-110.5 343t123.5 357.5t321.5 136.5q83 0 147 -35q-53 119 -174 277l-313 -132l-31 72l295 123q-63 80 -219 197
q167 -11 321 -156l287 121l33 -68l-256 -108q338 -364 338 -717z" />
    <glyph glyph-name="ntilde" unicode="&#xf1;" horiz-adv-x="938" 
d="M664 510v49q0 172 -38 218t-144 46q-106 -1 -152 -63t-45 -303v-197q-1 -138 9 -190t34 -70h-234q24 18 34 70t9 190v260q1 222 -9 290t-34 85l187 20q10 -44 10 -102v-27q61 80 129 116t160 36q130 0 180 -86t51 -379v-266q-1 -107 9 -147t34 -60h-200q10 224 10 510z
M363 1171q-69 0 -97 -63h-88q43 186 197 186q27 0 61 -10l79 -27q34 -10 60 -10q70 0 97 70h88q-49 -191 -199 -191q-37 0 -66 11l-79 26q-24 8 -53 8z" />
    <glyph glyph-name="ograve" unicode="&#xf2;" horiz-adv-x="995" 
d="M516 938q200 0 309 -114t109 -338q0 -223 -122 -367t-326 -144t-314 122q-110 123 -111 345q0 222 128 359q127 137 327 137zM526 53q242 0 242 402q0 181 -78 294t-204 113q-125 0 -192 -97t-67 -289t81 -308t218 -115zM248 1399h178q75 -172 209 -350q-226 49 -387 350
z" />
    <glyph glyph-name="oacute" unicode="&#xf3;" horiz-adv-x="995" 
d="M516 938q200 0 309 -114t109 -338q0 -223 -122 -367t-326 -144t-314 122q-110 123 -111 345q0 222 128 359q127 137 327 137zM526 53q242 0 242 402q0 181 -78 294t-204 113q-125 0 -192 -97t-67 -289t81 -308t218 -115zM361 1049q135 182 209 350h178
q-82 -153 -176 -238t-211 -112z" />
    <glyph glyph-name="ocircumflex" unicode="&#xf4;" horiz-adv-x="995" 
d="M516 938q200 0 309 -114t109 -338q0 -223 -122 -367t-326 -144t-314 122q-110 123 -111 345q0 222 128 359q127 137 327 137zM526 53q242 0 242 402q0 181 -78 294t-204 113q-125 0 -192 -97t-67 -289t81 -308t218 -115zM211 1049q143 227 197 350h178q58 -132 197 -350
h-90q-107 109 -195 243q-94 -140 -195 -243h-92z" />
    <glyph glyph-name="otilde" unicode="&#xf5;" horiz-adv-x="995" 
d="M516 938q200 0 309 -114t109 -338q0 -223 -122 -367t-326 -144t-314 122q-110 123 -111 345q0 222 128 359q127 137 327 137zM526 53q242 0 242 402q0 181 -78 294t-204 113q-125 0 -192 -97t-67 -289t81 -308t218 -115zM392 1171q-69 0 -97 -63h-88q43 186 197 186
q27 0 61 -10l79 -27q34 -10 60 -10q70 0 97 70h88q-49 -191 -199 -191q-37 0 -66 11l-79 26q-24 8 -53 8z" />
    <glyph glyph-name="odieresis" unicode="&#xf6;" horiz-adv-x="995" 
d="M516 938q200 0 309 -114t109 -338q0 -223 -122 -367t-326 -144t-314 122q-110 123 -111 345q0 222 128 359q127 137 327 137zM526 53q242 0 242 402q0 181 -78 294t-204 113q-125 0 -192 -97t-67 -289t81 -308t218 -115zM357 1329l102 -123l-143 -119l-101 121zM678 1329
l103 -123l-144 -119l-102 121z" />
    <glyph glyph-name="divide" unicode="&#xf7;" horiz-adv-x="1706" 
d="M854 1085q48 0 81.5 -33.5t33.5 -81.5t-33.5 -81t-81.5 -33t-81.5 33t-33.5 81t33.5 81.5t81.5 33.5zM1452 670v-117h-1198v117h1198zM854 365q47 0 81 -34t34 -81t-33.5 -81t-81.5 -34t-81.5 33.5t-33.5 81.5t34 81.5t81 33.5z" />
    <glyph glyph-name="oslash" unicode="&#xf8;" horiz-adv-x="995" 
d="M526 53q250 0 250 402q0 123 -47 237l-416 -532q91 -107 213 -107zM291 766.5q-70 -95.5 -70 -252.5t51 -287l414 531q-67 104 -196 104t-199 -95.5zM61 451q0 212 127 349.5t334 137.5q150 0 250 -70l111 142h96l-150 -191q105 -129 105 -311q0 -246 -122 -389.5
t-331 -143.5q-153 0 -252 74l-125 -158h-96l164 209q-111 139 -111 351z" />
    <glyph glyph-name="ugrave" unicode="&#xf9;" horiz-adv-x="958" 
d="M819 381v-115q0 -139 10 -192t35 -74l-162 -12h-10q-8 0 -8 10v8l-6 150q-48 -86 -120 -134t-154 -47q-167 0 -236 131q-22 44 -32 108t-9 210v39l4 373q0 59 -42 79l147 23q28 0 36 -12t7 -60l-5 -475v-12q0 -151 45 -215t152 -64t154 78t47 291v238q0 184 -41 208
l200 23q-12 -187 -12 -557zM229 1399h178q75 -172 209 -350q-226 49 -387 350z" />
    <glyph glyph-name="uacute" unicode="&#xfa;" horiz-adv-x="958" 
d="M819 381v-115q0 -139 10 -192t35 -74l-162 -12h-10q-8 0 -8 10v8l-6 150q-48 -86 -120 -134t-154 -47q-167 0 -236 131q-22 44 -32 108t-9 210v39l4 373q0 59 -42 79l147 23q28 0 36 -12t7 -60l-5 -475v-12q0 -151 45 -215t152 -64t154 78t47 291v238q0 184 -41 208
l200 23q-12 -187 -12 -557zM342 1049q135 182 209 350h178q-82 -153 -176 -238t-211 -112z" />
    <glyph glyph-name="ucircumflex" unicode="&#xfb;" horiz-adv-x="958" 
d="M819 381v-115q0 -139 10 -192t35 -74l-162 -12h-10q-8 0 -8 10v8l-6 150q-48 -86 -120 -134t-154 -47q-167 0 -236 131q-22 44 -32 108t-9 210v39l4 373q0 59 -42 79l147 23q28 0 36 -12t7 -60l-5 -475v-12q0 -151 45 -215t152 -64t154 78t47 291v238q0 184 -41 208
l200 23q-12 -187 -12 -557zM192 1049q143 227 197 350h178q58 -132 197 -350h-90q-107 109 -195 243q-94 -140 -195 -243h-92z" />
    <glyph glyph-name="udieresis" unicode="&#xfc;" horiz-adv-x="958" 
d="M819 381v-115q0 -139 10 -192t35 -74l-162 -12h-10q-8 0 -8 10v8l-6 150q-48 -86 -120 -134t-154 -47q-167 0 -236 131q-22 44 -32 108t-9 210v39l4 373q0 59 -42 79l147 23q28 0 36 -12t7 -60l-5 -475v-12q0 -151 45 -215t152 -64t154 78t47 291v238q0 184 -41 208
l200 23q-12 -187 -12 -557zM338 1329l102 -123l-143 -119l-101 121zM659 1329l103 -123l-144 -119l-102 121z" />
    <glyph glyph-name="yacute" unicode="&#xfd;" horiz-adv-x="772" 
d="M295 -22q0 56 -50 248q-49 192 -115 384t-91 242t-49 59l141 17h19q43 0 154 -413q62 -230 104 -376q94 251 148 442t54 247t-18 87h213q-65 -75 -202 -439q-64 -171 -103 -269q-182 -461 -320 -633t-309 -172q-74 0 -125 30t-51 70q0 21 20 29t84 8l90 -2q106 0 154 20
t105 91q57 70 102 172t45 158zM250 1049q135 182 209 350h178q-82 -153 -176 -238t-211 -112z" />
    <glyph glyph-name="thorn" unicode="&#xfe;" horiz-adv-x="973" 
d="M137 -147v1169q0 218 -9.5 291.5t-33.5 87.5l201 35q-12 -162 -12 -346t2 -272q143 120 281 120t240.5 -130t102.5 -340t-162 -351.5t-411 -141.5q-26 0 -51 5v-37l-2 -123q0 -202 10 -281t35 -112h-234q24 30 33.5 115t9.5 311zM274 393v-59q0 -170 39 -212t165 -42
t200 87.5t74 258.5t-79.5 285t-199.5 114q-44 0 -91 -19.5t-69 -46.5t-30.5 -100.5t-8.5 -265.5z" />
    <glyph glyph-name="ydieresis" unicode="&#xff;" horiz-adv-x="772" 
d="M295 -22q0 56 -50 248q-49 192 -115 384t-91 242t-49 59l141 17h19q43 0 154 -413q62 -230 104 -376q94 251 148 442t54 247t-18 87h213q-65 -75 -202 -439q-64 -171 -103 -269q-182 -461 -320 -633t-309 -172q-74 0 -125 30t-51 70q0 21 20 29t84 8l90 -2q106 0 154 20
t105 91q57 70 102 172t45 158zM246 1329l102 -123l-143 -119l-101 121zM567 1329l103 -123l-144 -119l-102 121z" />
    <glyph glyph-name="Cacute" unicode="&#x106;" horiz-adv-x="1214" 
d="M753 1247q-223 0 -349 -145t-125 -404q-1 -259 137 -415t365 -156t370 162q-35 -143 -161 -229t-302 -85q-268 0 -440 187q-172 186 -172 496t185 494t511 185l305 -24l-12 -281q-89 215 -312 215zM576 1446q135 182 209 350h178q-82 -153 -176 -238t-211 -112z" />
    <glyph glyph-name="cacute" unicode="&#x107;" horiz-adv-x="834" 
d="M550 88q149 0 234 115v-4q0 -102 -82 -163t-219 -61q-182 0 -302 130q-120 129 -120 341q1 212 137 352t351 140q112 0 199 -25l-7 -215q-54 168 -197 168t-228 -114t-85 -288t85 -275t234 -101zM375 1049q135 182 209 350h178q-82 -153 -176 -238t-211 -112z" />
    <glyph glyph-name="Ccaron" unicode="&#x10c;" horiz-adv-x="1214" 
d="M753 1247q-223 0 -349 -145t-125 -404q-1 -259 137 -415t365 -156t370 162q-35 -143 -161 -229t-302 -85q-268 0 -440 187q-172 186 -172 496t185 494t511 185l305 -24l-12 -281q-89 215 -312 215zM998 1796q-142 -224 -197 -350h-178q-68 147 -197 350h92
q103 -103 195 -244q92 139 193 244h92z" />
    <glyph glyph-name="ccaron" unicode="&#x10d;" horiz-adv-x="834" 
d="M550 88q149 0 234 115v-4q0 -102 -82 -163t-219 -61q-182 0 -302 130q-120 129 -120 341q1 212 137 352t351 140q112 0 199 -25l-7 -215q-54 168 -197 168t-228 -114t-85 -288t85 -275t234 -101zM797 1399q-142 -224 -197 -350h-178q-68 147 -197 350h92
q103 -103 195 -244q92 139 193 244h92z" />
    <glyph glyph-name="dcroat" unicode="&#x111;" horiz-adv-x="1010" 
d="M985 1190v-76h-127l-2 -63l-8 -562q0 -301 11 -383.5t40 -105.5l-192 -12q-9 43 -9 90v24q-91 -127 -264 -127q-172 0 -272.5 123t-100.5 344t146 358.5t401 137.5q55 0 99 -4v180h-261v76h261l-2 45q0 108 -35 170l206 31q-10 -93 -16 -246h125zM705 647
q0 146 -26 182.5t-108 36.5q-160 0 -253 -109t-93 -288t81.5 -282t209.5 -103q93 0 142 54t49 210l-2 152v147z" />
    <glyph glyph-name="Gbreve" unicode="&#x11e;" horiz-adv-x="1374" 
d="M1040 334q0 265 -51 325h275q-26 -35 -36 -111t-11 -275q0 -199 22 -263l-467 -35q-336 0 -516 167q-180 166 -180 488t220 514t599 193q141 0 319 -24v-240q-150 170 -395 170q-246 -1 -388 -159t-142 -430q1 -272 155 -426q154 -152 428 -152q84 0 152 16
q16 104 16 242zM688 1603q179 0 193 154l86 -31q-16 -126 -83 -184t-196 -58q-253 0 -279 242l86 31q14 -154 193 -154z" />
    <glyph glyph-name="gbreve" unicode="&#x11f;" horiz-adv-x="930" 
d="M780 682q0 -110 -79 -188t-228 -109q-186 -86 -186 -147q0 -49 243 -111l31 -8q225 -59 299 -120t74 -155t-52 -160t-208 -161l-24 -15q-176 -106 -312 -106t-236 80t-100 192q0 132 208 300q62 50 95 79q-103 23 -147 55t-45 89q0 57 93 103t140 85q-91 12 -148 85
t-57 190q0 118 100 198t263 80q90 0 160 -33q160 7 178 12q1 -7 4 -24l-2 -21q-34 -22 -121 -22q57 -58 57 -168zM621 644q0 96 -47 166q-46 70 -116 69q-70 1 -112 -53t-43 -149q0 -95 50 -161t119 -67t109 49t40 146zM150 -252q0 -96 92 -158t224 -61t218 79t86 176
t-71 149t-298 100q-135 -85 -193 -151t-58 -134zM465 1206q179 0 193 154l86 -31q-16 -125 -83 -183t-196 -59q-253 0 -279 242l86 31q14 -154 193 -154z" />
    <glyph glyph-name="Idotaccent" unicode="&#x130;" horiz-adv-x="516" 
d="M170 600v84q0 386 -12 492t-39 137h278q-27 -29 -39 -133t-12 -443v-159q0 -340 12 -444t39 -134h-278q27 30 39 138t12 462zM281 1732l106 -129l-152 -127l-106 129z" />
    <glyph glyph-name="dotlessi" unicode="&#x131;" horiz-adv-x="422" 
d="M285 373v-117q0 -134 9.5 -185.5t33.5 -70.5h-234q24 18 33.5 69.5t9.5 190.5v311q0 204 -9.5 266.5t-32.5 77.5q114 4 200 22q-10 -78 -10 -564z" />
    <glyph glyph-name="Lslash" unicode="&#x141;" horiz-adv-x="948" 
d="M217 498v118l-170 -114v100l170 115v129q0 244 -11.5 339.5t-39.5 127.5h280q-29 -35 -41 -128.5t-12 -328.5v-51l328 221v-102l-328 -219v-99q0 -443 19 -530q40 -2 154 -2q242 0 341 143l-45 -205q-84 -16 -205 -16l-419 4h-72q28 32 39.5 134t11.5 364z" />
    <glyph glyph-name="lslash" unicode="&#x142;" horiz-adv-x="422" 
d="M137 1069q0 187 -9.5 252t-32.5 80l200 34q-10 -97 -10 -534v-90l137 92v-90l-137 -92v-168l-2 -264q0 -151 10 -211.5t35 -77.5h-234q25 17 35 77.5t10 211.5l-2 264v76l-137 -92v90l137 92v350z" />
    <glyph glyph-name="OE" unicode="&#x152;" horiz-adv-x="1933" 
d="M1266 508q0 -355 18 -432h119q203 0 304.5 32.5t158.5 108.5l-35 -205q-88 -16 -205 -16l-358 4q-107 0 -290.5 -12.5t-260.5 -12.5q-317 0 -479 168t-162 500t176.5 513t505.5 181q37 0 182 -12t254 -12l489 6h9q33 -2 63 -2l17 -193q-24 63 -96.5 88t-276.5 25h-115
q-18 -77 -18 -430v-68q50 -4 217 -4t293 23q-57 -65 -149.5 -92t-307.5 -27l-53 2v-133zM1090 950q0 162 -76.5 231.5t-247.5 69.5q-238 0 -360.5 -143.5t-122.5 -431.5t124.5 -448t354.5 -160q182 0 255 73.5t73 284.5v524z" />
    <glyph glyph-name="oe" unicode="&#x153;" horiz-adv-x="1554" 
d="M1218 104q142 0 259 119v-24q0 -81 -101 -152.5t-229 -71.5q-206 0 -318 166q-127 -166 -337 -166t-320.5 122.5t-110.5 344.5t128 359t339 137t320 -145q120 145 323 145q142 0 231 -76.5t89 -193.5q0 -47 -54.5 -63.5t-238.5 -16.5t-264 4h-6q-15 -51 -15 -117
q0 -172 81.5 -271.5t223.5 -99.5zM1120 647q136 0 167.5 14.5t31.5 66.5t-47.5 96t-124.5 44t-138 -60.5t-71 -156.5h18l138 -4h26zM524 53q244 0 244 402q0 181 -78 294t-204 113t-192.5 -97t-66.5 -289t81 -307.5t216 -115.5z" />
    <glyph glyph-name="Scedilla" unicode="&#x15e;" horiz-adv-x="985" 
d="M696 305q0 97 -50 162t-169 129l-27 15q-346 189 -346 384q0 151 118 247t308 95l218 -8l38 -2h52v-213q-80 133 -271 133q-128 0 -202 -56t-74 -151q0 -141 271 -284l13 -6q170 -90 243 -178t73 -199q1 -165 -135 -281q-110 -95 -262 -113v-85h23q227 0 227 -177
q0 -182 -248 -182q-134 -1 -192 33t-64 115q116 -56 245 -56q130 0 130 88q0 95 -135 95q-16 0 -58 -3v168q-156 0 -363 78v223q126 -208 369 -208q120 0 194 70t74 167z" />
    <glyph glyph-name="scedilla" unicode="&#x15f;" horiz-adv-x="729" 
d="M502 213q0 67 -36 110t-160 111t-176 130q-50 62 -50 157t82 156t233 61q92 0 219 -27l-6 -174q-74 131 -215 131q-73 0 -115 -34t-42 -93q0 -101 207 -221l18 -10q123 -70 165 -124t42 -126q0 -116 -109 -200q-84 -65 -194 -81v-85h23q227 0 227 -177q0 -182 -248 -182
q-133 -1 -191 33t-65 115q116 -56 245 -56q130 0 130 88q0 95 -135 95q-16 0 -58 -3v168q-109 0 -183 27q-73 26 -73 68t14 157q67 -178 254 -178q87 1 142 49t55 115z" />
    <glyph glyph-name="Scaron" unicode="&#x160;" horiz-adv-x="985" 
d="M696 305q0 97 -50 162t-169 129l-27 15q-346 189 -346 384q0 151 118 247t308 95l218 -8l38 -2h52v-213q-80 133 -271 133q-128 0 -202 -56t-74 -151q0 -141 271 -284l13 -6q170 -90 243 -178t73 -199q1 -165 -135 -281t-334 -117q-156 0 -363 78v223q126 -208 369 -208
q120 0 194 70t74 167zM779 1796q-142 -224 -197 -350h-178q-68 147 -197 350h92q103 -103 195 -244q92 139 193 244h92z" />
    <glyph glyph-name="scaron" unicode="&#x161;" horiz-adv-x="729" 
d="M502 213q0 67 -36 110t-160 111t-176 130q-50 62 -50 157t82 156t233 61q92 0 219 -27l-6 -174q-74 131 -215 131q-73 0 -115 -34t-42 -93q0 -101 207 -221l18 -10q123 -70 165 -124t42 -126q0 -116 -109 -200t-241 -85q-132 1 -207 27q-74 26 -74 68t14 157
q67 -178 254 -178q87 1 142 49t55 115zM650 1399q-142 -224 -197 -350h-178q-68 147 -197 350h92q103 -103 195 -244q92 139 193 244h92z" />
    <glyph glyph-name="Ydieresis" unicode="&#x178;" horiz-adv-x="995" 
d="M389 297q0 201 -52 371t-170 374q-118 203 -196 271h166q63 -1 95 -25t104 -172t180 -483l187 343q102 191 102 243t-37 94h262q-294 -438 -379 -600q-47 -95 -67 -195t-21 -309q0 -119 41 -209h-268q53 96 53 297zM357 1726l102 -123l-143 -119l-101 121zM678 1726
l103 -123l-144 -119l-102 121z" />
    <glyph glyph-name="Zcaron" unicode="&#x17d;" horiz-adv-x="1270" 
d="M698 76q252 0 356 34t165 115l-39 -225h-1180q426 547 606 792t305 437h-293q-257 -1 -356 -25t-158 -84l29 197q40 -4 103 -4h612q323 0 345 4l-47 -63q-638 -827 -861 -1168q350 -10 413 -10zM920 1796q-142 -224 -197 -350h-178q-68 147 -197 350h92
q103 -103 195 -244q92 139 193 244h92z" />
    <glyph glyph-name="zcaron" unicode="&#x17e;" horiz-adv-x="895" 
d="M463 66q197 0 278 28t131 99l-26 -193h-852l639 848h-195q-168 0 -244 -28t-116 -95l39 190h733l-639 -849h252zM734 1399q-142 -224 -197 -350h-178q-68 147 -197 350h92q103 -103 195 -244q92 139 193 244h92z" />
    <glyph glyph-name="florin" unicode="&#x192;" horiz-adv-x="1071" 
d="M993 1257q1 -69 -75 -69q-36 0 -82.5 40t-67.5 40q-52 0 -89.5 -105.5t-70.5 -347.5h158l2 -16q0 -31 -30 -42.5t-142 -13.5l-55 -335q-101 -612 -206 -809t-288 -197q-78 0 -126 25.5t-48 60.5t22.5 54.5t60.5 19.5t95 -33t78 -33q112 0 243 824q42 269 68 425
q-61 0 -108 7v63h121q32 277 122 399.5t259 122.5q75 0 117 -23t42 -57z" />
    <glyph glyph-name="circumflex" unicode="&#x2c6;" 
d="M225 1049q143 227 197 350h178q58 -132 197 -350h-90q-107 109 -195 243q-94 -140 -195 -243h-92z" />
    <glyph glyph-name="caron" unicode="&#x2c7;" 
d="M797 1399q-142 -224 -197 -350h-178q-68 147 -197 350h92q103 -103 195 -244q92 139 193 244h92z" />
    <glyph glyph-name="breve" unicode="&#x2d8;" 
d="M512 1206q179 0 193 154l86 -31q-16 -125 -83 -183.5t-258 -58.5t-217 242l86 31q14 -154 193 -154z" />
    <glyph glyph-name="dotaccent" unicode="&#x2d9;" 
d="M535 1335l106 -129l-152 -127l-106 129z" />
    <glyph glyph-name="ring" unicode="&#x2da;" 
d="M512 1526q104 0 176 -72t72 -176t-72 -176t-176 -72t-176 72t-72 176t72 176t176 72zM512 1421q-60 0 -100.5 -41.5t-40.5 -101.5t40.5 -101.5t100.5 -41.5t101.5 41.5t41.5 101.5t-41.5 101.5t-101.5 41.5z" />
    <glyph glyph-name="ogonek" unicode="&#x2db;" 
d="M477 -225q0 -84 96 -84q40 0 104 26l-18 -127q-51 -26 -127 -26t-127 42t-51 114t38.5 131.5t150.5 148.5h71q-137 -121 -137 -225z" />
    <glyph glyph-name="tilde" unicode="&#x2dc;" 
d="M406 1171q-69 0 -97 -63h-88q43 186 197 186q27 0 61 -10l79 -27q34 -10 60 -10q70 0 97 70h88q-49 -191 -199 -191q-37 0 -66 11l-79 26q-24 8 -53 8z" />
    <glyph glyph-name="hungarumlaut" unicode="&#x2dd;" 
d="M580 1049q113 174 174 350h149q-74 -159 -152 -243t-171 -107zM322 1049q110 202 155 350h150q-68 -156 -142 -240.5t-163 -109.5z" />
    <glyph glyph-name="Omega" unicode="&#x3a9;" horiz-adv-x="1573" 
d="M111 776q0 329 188.5 533t486.5 204t487 -202.5t189 -530.5q0 -186 -78.5 -338.5t-242.5 -285.5h332v-156h-590v150q193 111 296 279t103 374q0 251 -137 405t-359 154t-359.5 -155t-137.5 -404q0 -205 103 -373.5t298 -279.5v-150h-590v156h332q-321 260 -321 620z" />
    <glyph glyph-name="pi" unicode="&#x3c0;" horiz-adv-x="1186" 
d="M815 223q0 -104 87 -104q62 0 116 10l-29 -129q-80 -16 -104 -16q-110 0 -168 51.5t-58 143.5t56 358l84 393h-348l-197 -930h-158l197 930h-39q-55 0 -84.5 -31t-40.5 -100h-145q26 153 94 211.5t223 58.5h866l-28 -139h-185l-110 -516q-29 -136 -29 -191z" />
    <glyph glyph-name="endash" unicode="&#x2013;" 
d="M-39 418l78 98h1024l-78 -98h-1024z" />
    <glyph glyph-name="emdash" unicode="&#x2014;" horiz-adv-x="2048" 
d="M2087 516l-78 -98h-2048l78 98h2048z" />
    <glyph glyph-name="quoteleft" unicode="&#x2018;" horiz-adv-x="537" 
d="M170 1110q0 141 162 231q-25 -50 -25 -113t76 -165l-141 -115q-72 91 -72 162z" />
    <glyph glyph-name="quoteright" unicode="&#x2019;" horiz-adv-x="537" 
d="M377 1176q0 -139 -162 -232q27 60 27 118q0 57 -78 161l141 114q72 -89 72 -161z" />
    <glyph glyph-name="quotesinglbase" unicode="&#x201a;" horiz-adv-x="537" 
d="M373 47q0 -139 -164 -231q27 58 27 118t-76 160l141 115q72 -92 72 -162z" />
    <glyph glyph-name="quotedblleft" unicode="&#x201c;" horiz-adv-x="840" 
d="M170 1110q0 141 162 231q-25 -50 -25 -113t76 -165l-141 -115q-72 91 -72 162zM473 1110q0 139 164 231q-27 -54 -27 -115t76 -163l-141 -115q-72 92 -72 162z" />
    <glyph glyph-name="quotedblright" unicode="&#x201d;" horiz-adv-x="840" 
d="M377 1176q0 -139 -162 -232q27 60 27 118q0 57 -78 161l141 114q72 -89 72 -161zM682 1174q0 -138 -164 -230q27 56 27 115q0 60 -78 164l141 114q74 -94 74 -163z" />
    <glyph glyph-name="quotedblbase" unicode="&#x201e;" horiz-adv-x="840" 
d="M373 47q0 -139 -164 -231q27 58 27 118t-76 160l141 115q72 -92 72 -162zM676 47q0 -139 -164 -231q27 58 27 118t-76 160l141 115q72 -92 72 -162z" />
    <glyph glyph-name="dagger" unicode="&#x2020;" 
d="M446 788h-172q-125 0 -202 -53l49 164h325v66q0 192 -11.5 259t-41.5 89h238q-30 -22 -41.5 -89t-11.5 -259v-66h407q-36 -56 -86 -80.5t-135 -25.5l-186 -2v-658q0 -289 11.5 -382t41.5 -126h-238q30 35 41.5 133.5t11.5 374.5v655z" />
    <glyph glyph-name="daggerdbl" unicode="&#x2021;" 
d="M578 285h407q-36 -55 -85 -79t-137 -26l-185 -2v-205q0 -192 11.5 -259t41.5 -89h-238q30 22 41.5 89t11.5 259v201h-172q-121 0 -202 -53l49 164h325v503h-172q-125 0 -202 -53l49 164h325v66q0 192 -11.5 259t-41.5 89h238q-30 -22 -41.5 -89t-11.5 -259v-66h407
q-36 -56 -86 -80.5t-135 -25.5l-186 -2v-506z" />
    <glyph glyph-name="bullet" unicode="&#x2022;" horiz-adv-x="1208" 
d="M307 762q0 123 87.5 209t209.5 86t208.5 -86.5t86.5 -208.5t-87.5 -209.5t-209.5 -87.5t-208.5 87t-86.5 210z" />
    <glyph glyph-name="ellipsis" unicode="&#x2026;" horiz-adv-x="2048" 
d="M320 -25l-113 134l166 100l104 -131zM1002 -25l-113 134l166 100l104 -131zM1686 -25l-113 134l166 100l104 -131z" />
    <glyph glyph-name="perthousand" unicode="&#x2030;" horiz-adv-x="1858" 
d="M96 0l944 1313h117l-944 -1313h-117zM578 997q0 -354 -260 -354q-130 0 -187 79.5t-57 257.5q0 356 259 357q129 0 187 -80t58 -260zM201 985q0 -270 126 -269.5t126 276.5t-121 276q-63 0 -97 -74t-34 -209zM1182 329q0 -354 -261 -354q-131 0 -188 79.5t-57 257.5
q0 358 270 358q121 0 178.5 -80.5t57.5 -260.5zM805 317q0 -270 126 -269.5t126 276.5t-121 276q-62 0 -96.5 -74t-34.5 -209zM1784 329q0 -354 -261 -354q-131 0 -188 79.5t-57 257.5q0 358 270 358q121 0 178.5 -80.5t57.5 -260.5zM1532 47q125 1 125 277t-119 276
q-62 0 -96.5 -74t-34.5 -209q0 -270 125 -270z" />
    <glyph glyph-name="guilsinglleft" unicode="&#x2039;" horiz-adv-x="569" 
d="M508 842q-12 -82 -59 -142l-203 -235l203 -236q45 -51 59 -141l-447 377z" />
    <glyph glyph-name="guilsinglright" unicode="&#x203a;" horiz-adv-x="569" 
d="M508 465l-447 -377q14 90 58 141l203 236l-203 235q-45 51 -57 141z" />
    <glyph glyph-name="franc" unicode="&#x20a3;" horiz-adv-x="1536" 
d="M868 1137q-54 102 -286 102q-138 0 -217 -6q-19 -87 -19 -426v-98q110 -7 231 -7t263 25q-42 -67 -124 -93t-294 -26h-76v-100q0 -300 12 -388t39 -120h-278q27 30 39 138t12 462v84q0 386 -12 492t-39 137h141l379 6q135 0 221 -12zM1038 260v260q0 222 -10 290t-33 85
l154 25q31 -1 33 -85q1 -26 2 -40q92 143 217 143q50 0 80 -22t30 -56q0 -61 -80 -61l-110 6q-85 0 -111 -56t-26 -264l2 -258q0 -107 10 -157t33 -70h-234q23 18 33 70t10 190z" />
    <glyph glyph-name="trademark" unicode="&#x2122;" horiz-adv-x="1706" 
d="M694 1456v-67h-172v-467h-94v467h-174v67h440zM1389 1456v-534h-82v458l-172 -458h-54l-180 458v-458h-82v534h129l160 -405l149 405h132z" />
    <glyph glyph-name="partialdiff" unicode="&#x2202;" horiz-adv-x="1044" 
d="M709 483q0 117 -45 180.5t-127 63.5q-113 0 -184.5 -127.5t-71.5 -333.5q0 -117 44 -178t128 -61q111 0 183.5 128t72.5 328zM780 915q0 149 -40 225.5t-102 76.5t-126 -63.5t-101 -63.5t-59 21.5t-22 51.5q0 59 68 105.5t163 46.5q171 0 273 -152.5t102 -412.5
q0 -335 -139 -555t-344 -220q-147 0 -241.5 106.5t-94.5 284.5t108.5 304.5t266.5 126.5q99 0 162.5 -47t99.5 -146q26 162 26 311z" />
    <glyph glyph-name="Delta" unicode="&#x2206;" horiz-adv-x="1356" 
d="M780 1473l586 -1473h-1374l586 1473h202zM1122 158l-444 1138l-445 -1138h889z" />
    <glyph glyph-name="product" unicode="&#x220f;" horiz-adv-x="1528" 
d="M160 1473h1208v-1866h-201v1693h-809v-1693h-198v1866z" />
    <glyph glyph-name="summation" unicode="&#x2211;" horiz-adv-x="1346" 
d="M51 1473h1239v-166h-989l690 -744l-719 -792h1035v-164h-1289v139l738 813l-705 758v156z" />
    <glyph glyph-name="minus" unicode="&#x2212;" horiz-adv-x="1706" 
d="M1452 670v-119h-1198v119h1198z" />
    <glyph glyph-name="fraction" unicode="&#x2215;" horiz-adv-x="342" 
d="M-342 -25l922 1362h102l-922 -1362h-102z" />
    <glyph glyph-name="periodcentered" unicode="&#x2219;" horiz-adv-x="537" 
d="M156 657q0 45 33.5 78t78.5 33t78 -33t33 -77t-33 -78.5t-78 -34.5t-78.5 33.5t-33.5 78.5z" />
    <glyph glyph-name="radical" unicode="&#x221a;" horiz-adv-x="1288" 
d="M1288 1647v-82h-119l-594 -1606h-53l-323 893l-119 -43l-23 68l262 92l265 -729l522 1407h182z" />
    <glyph glyph-name="infinity" unicode="&#x221e;" horiz-adv-x="1706" 
d="M1161 997q134 0 226 -108.5t92 -276.5t-82 -273.5t-213 -105.5q-96 0 -169 60t-149 201q-71 -138 -148 -201.5t-173 -63.5q-134 0 -226 108.5t-92 276.5t82.5 273.5t214.5 105.5q97 0 172 -63t144 -203q131 270 321 270zM293 604q0 -110 61 -181t149 -71t155 69t145 245
q-102 190 -273 190q-105 0 -171 -71t-66 -181zM1415 622q0 109 -61 180.5t-149 71.5t-156.5 -72.5t-143.5 -242.5q101 -188 275 -188q102 0 168.5 71t66.5 180z" />
    <glyph glyph-name="integral" unicode="&#x222b;" horiz-adv-x="1020" 
d="M274 -224q0 -44 27 -44q103 0 116 664q3 141 5 216q12 503 102 719.5t281 216.5q76 0 122 -39t46 -95t-31 -86t-83 -30t-84 35t-32 92q0 8 -6 15.5t-14 7.5q-105 0 -119 -634q-10 -508 -34.5 -683.5t-69.5 -279.5t-118.5 -163t-157.5 -59t-130.5 38t-46.5 94t31.5 87
t81.5 31t82 -29.5t32 -73.5z" />
    <glyph glyph-name="approxequal" unicode="&#x2248;" horiz-adv-x="1706" 
d="M1143 659q-100 0 -289.5 69t-281.5 69t-180.5 -36t-213.5 -122v131q211 145 387 145q111 0 300 -68.5t277 -68.5t176 35t212 121v-131q-205 -144 -387 -144zM1141 307q-98 0 -288 69.5t-281 69.5t-178.5 -35.5t-215.5 -123.5v131q211 145 387 145q111 0 301 -68.5
t276 -68.5t174.5 35.5t213.5 122.5v-131q-208 -146 -389 -146z" />
    <glyph glyph-name="notequal" unicode="&#x2260;" horiz-adv-x="1706" 
d="M1452 860v-115h-424l-211 -270h635v-115h-709l-251 -319l-89 70l197 249h-346v115h420l211 270h-631v115h704l252 320l88 -70l-196 -250h350z" />
    <glyph glyph-name="lessequal" unicode="&#x2264;" horiz-adv-x="1706" 
d="M1444 1067l-977 -324l977 -323v-125l-1182 399v101l1182 397v-125zM1444 150v-117h-1182v117h1182z" />
    <glyph glyph-name="greaterequal" unicode="&#x2265;" horiz-adv-x="1706" 
d="M1444 795v-101l-1182 -399v125l979 323l-979 324v125zM1444 150v-117h-1182v117h1182z" />
    <glyph glyph-name="lozenge" unicode="&#x25ca;" horiz-adv-x="1012" 
d="M506 1653l500 -1061l-500 -1069l-500 1069zM506 1409l-385 -817l385 -825l385 825z" />
    <glyph glyph-name="apple" unicode="&#xf000;" horiz-adv-x="1618" 
d="M1272 741q0 -113 60 -200t173 -138q-114 -247 -205 -342.5t-204 -95.5q-50 0 -131.5 33t-124.5 33t-129.5 -33t-138.5 -33t-116 44t-148 158t-139.5 269.5t-55.5 300.5q0 219 125 356.5t323 137.5q68 0 154.5 -34t122.5 -34t123 35t175 35q194 0 337 -164
q-201 -128 -201 -328zM834 1253q0 124 95 229.5t236 131.5q2 -20 2 -62q0 -131 -103.5 -234.5t-203.5 -103.5h-8l-16 2q-2 12 -2 37z" />
    <glyph glyph-name="fi" unicode="&#xf001;" horiz-adv-x="905" 
d="M768 373v-117q0 -134 9.5 -185.5t33.5 -70.5h-233q23 18 33 69.5t10 190.5v311q0 204 -9.5 266.5t-33.5 77.5q119 4 200 23q-10 -94 -10 -565zM649 1055l-86 139l152 96l86 -141zM285 260q0 -139 9.5 -190.5t33.5 -69.5h-234q24 18 33.5 69.5t9.5 190.5v584q-39 0 -81 6
l-1 65h82v99q0 152 7 212t24 91q30 56 112.5 88.5t196.5 32.5q141 0 141 -84q0 -27 -21 -44.5t-57 -17.5t-85 37t-70 37q-54 0 -78 -80t-24 -206t2 -164l157 -1l2 -16q0 -29 -27 -40t-132 -15v-584z" />
    <glyph glyph-name="fl" unicode="&#xf002;" horiz-adv-x="905" 
d="M285 260q0 -139 9.5 -190.5t33.5 -69.5h-234q24 18 33.5 69.5t9.5 190.5v584q-39 0 -81 6l-1 65h82v144q0 132 10.5 189.5t38.5 97.5t108.5 66t173.5 26t146 -31l164 28q-10 -114 -10 -1011v-162q0 -140 9.5 -192t33.5 -70h-233q24 16 34.5 82t10.5 235l-2 390v315
q0 238 -9 303q-20 -33 -64 -33t-93 37t-70 37q-54 0 -78 -80t-24 -206t2 -164l157 -1l2 -16q0 -29 -27 -40t-132 -15v-584z" />
    </font>
</defs>
</svg>
