<?xml version="1.0" standalone="no"?>
<!DOCTYPE svg PUBLIC "-//W3C//DTD SVG 1.1//EN" "http://www.w3.org/Graphics/SVG/1.1/DTD/svg11.dtd" >
<svg xmlns="http://www.w3.org/2000/svg">
<metadata>
Created by FontPrep 20130207 at Sun Jun  7 22:06:15 2015
 By Hendra Susanto
Copyright (c) 1990, 1992 Adobe Systems Incorporated.  All Rights Reserved.Glypha is a trademark of Linotype-Hell AG and/or its subsidiaries.
</metadata>
<defs>
<font id="9d5eeb8844225cb255e2b29f51801a58" horiz-adv-x='1024' >
  <font-face 
    font-family="Glypha45-Light"
    font-weight="300"
    font-stretch="normal"
    units-per-em="2048"
    panose-1="2 2 4 0 0 0 0 0 0 0"
    ascent="1638"
    descent="-410"
    x-height="1057"
    cap-height="1466"
    bbox="-33 -512 2048 1884"
    underline-thickness="102"
    underline-position="-102"
    unicode-range="U+0020-2122"
  />
<missing-glyph horiz-adv-x="1028" 
d="M18 20h983v984h-983v-984zM-2 0v1024h1024v-1024h-1024z" />
    <glyph glyph-name=".notdef" horiz-adv-x="1028" 
d="M18 20h983v984h-983v-984zM-2 0v1024h1024v-1024h-1024z" />
    <glyph glyph-name=".null" horiz-adv-x="0" 
 />
    <glyph glyph-name="nonmarkingreturn" horiz-adv-x="681" 
 />
    <glyph glyph-name="space" unicode=" " horiz-adv-x="512" 
 />
    <glyph glyph-name="exclam" unicode="!" horiz-adv-x="679" 
d="M297 315l-31 1151h148l-31 -1151h-86zM266 0v147h148v-147h-148z" />
    <glyph glyph-name="quotedbl" unicode="&#x22;" horiz-adv-x="909" 
d="M260 1057v409h111v-409h-111zM539 1057v409h110v-409h-110z" />
    <glyph glyph-name="numbersign" unicode="#" 
d="M20 473v98h220l45 324h-207v98h219l65 473h99l-66 -473h303l64 473h98l-63 -473h207v-98h-222l-43 -324h207v-98h-221l-66 -473h-98l66 473h-301l-66 -473h-98l65 473h-207zM641 571l43 324h-301l-45 -324h303z" />
    <glyph glyph-name="dollar" unicode="$" 
d="M170 205v-205h-98v504h98q10 -188 84 -307t221 -136v646q-98 33 -161.5 59.5t-152.5 91.5t-89 241q0 177 109.5 284.5t293.5 107.5v182h74v-190q190 -30 270 -195h4v178h99v-495h-99q-8 376 -274 426v-598q96 -31 249.5 -95.5t153.5 -308.5q0 -178 -105.5 -296.5
t-297.5 -123.5v-182h-74v182q-237 34 -301 230h-4zM829 378q0 128 -71.5 190.5t-208.5 107.5v-615q135 16 207.5 102.5t72.5 214.5zM195 1116q0 -119 71.5 -180.5t208.5 -106.5v576q-129 -2 -204.5 -86t-75.5 -203z" />
    <glyph glyph-name="percent" unicode="%" horiz-adv-x="1593" 
d="M903 364.5q0 71.5 11.5 138t40 124t79.5 92.5t127 35t127 -35t80 -91.5t40 -124t11 -139t-11 -139t-40 -124t-80 -91.5t-127 -35t-127 35t-79.5 91.5t-40 124t-11.5 139zM174 1102q0 72 11.5 138.5t40 123.5t79.5 92t127 35t127 -35t80 -91t40 -123.5t11 -139.5
t-11 -139.5t-40 -124t-80 -91t-127 -34.5t-127 34.5t-79.5 91t-40 124t-11.5 139.5zM1161 49q172 0 172 316q0 160 -45 237.5t-126 77.5t-127 -77.5t-46 -238.5t46 -238t126 -77zM383 -25l739 1516h86l-739 -1516h-86zM432 786q172 0 172 316q0 160 -45 237.5t-126 77.5
t-127 -77.5t-46 -238.5t46 -238t126 -77z" />
    <glyph glyph-name="ampersand" unicode="&#x26;" horiz-adv-x="1517" 
d="M786 1200q0 94 -58 149.5t-156 55.5t-157 -56.5t-59 -164.5t183 -314q131 80 189 158t58 172zM897 1192q0 -225 -297 -385l391 -451q49 63 76 183t31 233h-154v86h442v-86h-178q-29 -324 -149 -491l174 -195h203v-86h-287l-158 184q-185 -209 -452 -209
q-199 0 -310.5 116t-111.5 304q0 139 81 242.5t242 185.5q-113 133 -160 214t-47 155q0 129 88.5 214t244 85t243.5 -85t88 -214zM240 377q0 -125 85 -220.5t226 -95.5q238 0 381 195l-432 496q-139 -74 -199.5 -162t-60.5 -213z" />
    <glyph glyph-name="quotesingle" unicode="'" horiz-adv-x="569" 
d="M229 1057v409h111v-409h-111z" />
    <glyph glyph-name="parenleft" unicode="(" horiz-adv-x="569" 
d="M258 587q0 -488 285 -927h-99q-133 196 -215 456t-82 472t79.5 465t217.5 465h99q-285 -443 -285 -931z" />
    <glyph glyph-name="parenright" unicode=")" horiz-adv-x="569" 
d="M311 587q0 490 -284 931h98q135 -202 216 -460t81 -471t-81 -471t-216 -456h-98q284 437 284 927z" />
    <glyph glyph-name="asterisk" unicode="*" horiz-adv-x="831" 
d="M88 1159l37 117l260 -129l-25 319h111l-25 -319l261 129l36 -117l-278 -74l192 -227l-88 -72l-153 267l-154 -267l-88 72l193 227z" />
    <glyph glyph-name="plus" unicode="+" horiz-adv-x="1228" 
d="M559 0v463h-463v110h463v463h111v-463h463v-110h-463v-463h-111z" />
    <glyph glyph-name="comma" unicode="," horiz-adv-x="512" 
d="M182 0v147h148v-147l-90 -262h-86l90 262h-62z" />
    <glyph glyph-name="hyphen" unicode="-" horiz-adv-x="757" 
d="M133 512v98h492v-98h-492z" />
    <glyph glyph-name="period" unicode="." horiz-adv-x="512" 
d="M182 0v147h148v-147h-148z" />
    <glyph glyph-name="slash" unicode="/" horiz-adv-x="720" 
d="M29 -25l553 1516h110l-553 -1516h-110z" />
    <glyph glyph-name="zero" unicode="0" 
d="M201 733q0 -523 119.5 -597.5t191.5 -74.5q152 0 231.5 176.5t79.5 495.5q0 523 -119.5 597.5t-191.5 74.5q-152 0 -231.5 -176.5t-79.5 -495.5zM78 728q0 402 124 582.5t314 180.5q308 0 369 -273.5t61 -479.5q0 -404 -125 -583.5t-313 -179.5q-308 0 -369 273.5
t-61 479.5z" />
    <glyph glyph-name="one" unicode="1" 
d="M635 1466v-1380h207v-86h-541v86h223v1270h-4q-44 -63 -134.5 -149.5t-176.5 -149.5v123q165 130 303 286h123z" />
    <glyph glyph-name="two" unicode="2" 
d="M825 98v234h111v-332h-848v145q449 503 543 636.5t122.5 203.5t28.5 133q0 115 -68.5 195t-195.5 80t-202.5 -92.5t-90.5 -245.5h-110q18 199 124.5 317.5t285.5 118.5t279.5 -105.5t100.5 -267.5q0 -102 -49 -196.5t-154 -216.5l-516 -607h639z" />
    <glyph glyph-name="three" unicode="3" 
d="M513 1491q181 0 287.5 -113.5t106.5 -287.5q0 -129 -77.5 -228.5t-208.5 -118.5v-4q139 -16 219 -114.5t80 -239.5q0 -186 -113 -298t-288 -112t-295 104.5t-120 328.5h123q0 -152 82 -243t212 -91t203 96.5t73 236.5t-92.5 212.5t-258.5 76.5v99q188 0 263 86.5
t75 213.5q0 126 -73.5 212t-191.5 86t-191.5 -78t-89.5 -242h-123q8 182 112.5 300t285.5 118z" />
    <glyph glyph-name="four" unicode="4" 
d="M676 508v848h-4l-551 -848h555zM786 1466v-958h203v-86h-203v-336h183v-86h-516v86h223v336h-641v137l604 907h147z" />
    <glyph glyph-name="five" unicode="5" 
d="M891 1466v-98h-610l-29 -592h6q39 74 113.5 118t167.5 44q195 0 301 -125t106 -340t-107 -356.5t-325 -141.5q-158 0 -272.5 104t-114.5 310h111q8 -150 86.5 -232.5t208.5 -82.5t216.5 103.5t86.5 282.5t-78 279.5t-217 100.5q-104 0 -175 -54.5t-114 -175.5h-111
l29 856h721z" />
    <glyph glyph-name="six" unicode="6" 
d="M213 444.5q0 -178.5 87 -281t218 -102.5t218 102.5t87 281t-87 282.5t-218 104t-218 -104t-87 -282.5zM543 918q182 0 286.5 -135.5t104.5 -331.5q0 -197 -111.5 -336.5t-329.5 -139.5t-306 173t-97 450q0 670 182.5 781.5t288.5 111.5q168 0 263.5 -99.5t99.5 -279.5
h-111q-4 131 -70.5 212t-175.5 81q-151 0 -256.5 -169t-109.5 -550h4q94 232 338 232z" />
    <glyph glyph-name="seven" unicode="7" 
d="M188 1368v-258h-110v356h868v-110q-329 -725 -543 -1356h-122q234 646 555 1368h-648z" />
    <glyph glyph-name="eight" unicode="8" 
d="M211 388q0 -146 79 -236.5t223 -90.5t222 91.5t78 235.5t-78 236.5t-222 92.5t-223 -91.5t-79 -237.5zM233 1106q0 -129 75 -216t212 -87t212 87t75 216t-76 214t-211 85t-211 -85t-76 -214zM123 1140q0 158 115.5 254.5t281.5 96.5t282 -96.5t116 -254.5
q0 -317 -283 -380v-4q139 -27 214 -130.5t75 -244.5q0 -193 -117 -299.5t-294 -106.5t-295 106.5t-118 299.5q0 141 76 244.5t213 130.5v4q-266 62 -266 380z" />
    <glyph glyph-name="nine" unicode="9" 
d="M201 1022q0 -178 87 -282.5t218 -104.5t218 104.5t87 282.5t-87 280.5t-218 102.5t-218 -102.5t-87 -280.5zM457 61q154 0 258 170t108 549h-4q-43 -111 -129 -171t-194 -60q-198 0 -302 137t-104 332q0 194 111.5 333.5t329.5 139.5t306 -173t97 -450
q0 -670 -182.5 -781.5t-288.5 -111.5q-168 0 -263.5 99.5t-99.5 279.5h111q4 -131 70.5 -212t175.5 -81z" />
    <glyph glyph-name="colon" unicode=":" horiz-adv-x="512" 
d="M182 0v147h148v-147h-148zM182 877v147h148v-147h-148z" />
    <glyph glyph-name="semicolon" unicode=";" horiz-adv-x="512" 
d="M182 877v147h148v-147h-148zM182 0v147h148v-147l-90 -262h-86l90 262h-62z" />
    <glyph glyph-name="less" unicode="&#x3c;" horiz-adv-x="1228" 
d="M96 463v110l1037 484v-111l-914 -428l914 -428v-110z" />
    <glyph glyph-name="equal" unicode="=" horiz-adv-x="1228" 
d="M96 264v111h1037v-111h-1037zM96 662v110h1037v-110h-1037z" />
    <glyph glyph-name="greater" unicode="&#x3e;" horiz-adv-x="1228" 
d="M96 -20v110l914 428l-914 428v111l1037 -484v-110z" />
    <glyph glyph-name="question" unicode="?" 
d="M381 0v147h147v-147h-147zM393 313v109q0 117 48.5 193.5t142.5 167.5t140 163t46 186t-72.5 193.5t-201.5 79.5t-196 -86t-67 -213h-122q8 188 113.5 286.5t280.5 98.5t281.5 -98.5t106.5 -272.5q0 -127 -50.5 -208t-144.5 -170t-138 -156.5t-44 -167.5v-105h-123z" />
    <glyph glyph-name="at" unicode="@" horiz-adv-x="1638" 
d="M391 578q0 118 37 222.5t102.5 189.5t154.5 135.5t177 50.5t149.5 -42t82.5 -126h4l47 131h123l-197 -588q-24 -79 -24 -111q1 -63 69 -63q135 0 242.5 152.5t107.5 330.5q0 117 -48 216.5t-177.5 208t-384.5 108.5q-145 0 -272 -53.5t-219.5 -147.5t-142.5 -215
t-50 -252t52 -249t146.5 -209t221 -142t276.5 -51t300.5 73.5t244.5 194.5h123q-98 -170 -283 -268.5t-371 -98.5t-333.5 58.5t-257 163t-170 243t-60.5 294t62.5 293.5t172.5 242.5t254 163t296 58.5q314 0 522.5 -181t208.5 -448q0 -119 -45 -226.5t-118 -187
t-156.5 -124.5t-153.5 -45q-145 0 -156 135h-4q-126 -135 -280 -135q-117 0 -195 90.5t-78 208.5zM502 588q0 -90 54 -150.5t134 -60.5q148 0 252.5 162.5t104.5 318.5q0 94 -47.5 156.5t-127 62.5t-149.5 -44t-119 -114.5t-75.5 -155.5t-26.5 -175z" />
    <glyph glyph-name="A" unicode="A" horiz-adv-x="1478" 
d="M25 0v86h127l514 1380h147l514 -1380h127v-86h-457v86h207l-157 442h-615l-158 -442h207v-86h-456zM463 614h553l-275 754h-4z" />
    <glyph glyph-name="B" unicode="B" horiz-adv-x="1253" 
d="M358 709v-623h310q158 0 250 85t92 227t-80 226.5t-228 84.5h-344zM358 1380v-585h332q125 0 205 83t80 211t-65.5 209.5t-190.5 81.5h-361zM43 0v86h205v1294h-205v86h666q221 0 305 -107t84 -249q0 -141 -73 -236.5t-204 -107.5v-4q163 -4 237.5 -117.5t74.5 -217.5
q0 -193 -116 -310t-284 -117h-690z" />
    <glyph glyph-name="C" unicode="C" horiz-adv-x="1366" 
d="M731 74q358 0 410 415h123q-23 -242 -159 -378t-364 -136q-308 0 -473.5 216.5t-165.5 541.5t165.5 541.5t473.5 216.5q147 0 253 -64.5t155 -181.5h4v221h98v-514h-98q-6 201 -119.5 321t-317.5 120t-347.5 -171.5t-143.5 -487.5t143.5 -488t362.5 -172z" />
    <glyph glyph-name="D" unicode="D" horiz-adv-x="1402" 
d="M43 0v86h205v1294h-205v86h578q326 0 502.5 -199.5t176.5 -533.5t-177 -533.5t-502 -199.5h-578zM358 1380v-1294h250q262 0 416 181t154 468.5t-156 466t-414 178.5h-250z" />
    <glyph glyph-name="E" unicode="E" horiz-adv-x="1253" 
d="M43 0v86h205v1294h-205v86h1073v-432h-98v346h-660v-585h359v239h98v-579h-98v254h-359v-623h670v369h98v-455h-1083z" />
    <glyph glyph-name="F" unicode="F" horiz-adv-x="1138" 
d="M43 0v86h205v1294h-205v86h1040v-446h-98v360h-627v-616h347v242h98v-572h-98v244h-347v-592h250v-86h-565z" />
    <glyph glyph-name="G" unicode="G" horiz-adv-x="1478" 
d="M1171 1245v221h99v-514h-99q-6 203 -120.5 322t-305.5 119q-229 0 -374.5 -170t-145.5 -487.5t143.5 -489.5t354.5 -172t327.5 125t116.5 329v103h-241v86h522v-86h-170v-631h-111v236h-6q-33 -115 -161 -188t-273 -73q-144 0 -264.5 59.5t-200.5 164t-120 242t-40 379
t168.5 456.5t485.5 215q152 0 257 -63.5t154 -182.5h4z" />
    <glyph glyph-name="H" unicode="H" horiz-adv-x="1478" 
d="M915 0v86h205v610h-762v-610h205v-86h-520v86h205v1294h-205v86h520v-86h-205v-585h762v585h-205v86h521v-86h-205v-1294h205v-86h-521z" />
    <glyph glyph-name="I" unicode="I" horiz-adv-x="606" 
d="M248 86v1294h-205v86h520v-86h-205v-1294h205v-86h-520v86h205z" />
    <glyph glyph-name="J" unicode="J" horiz-adv-x="909" 
d="M166 397q0 -323 225 -323q117 0 176.5 75.5t59.5 243.5v987h-205v86h465v-86h-150v-1034q0 -184 -96 -277.5t-253 -93.5t-251 99.5t-94 318.5v58h123v-54z" />
    <glyph glyph-name="K" unicode="K" horiz-adv-x="1251" 
d="M43 0v86h205v1294h-205v86h520v-86h-205v-598l607 598h-181v86h418v-86h-98l-610 -602l618 -692h107v-86h-418v86h176l-619 688v-688h205v-86h-520z" />
    <glyph glyph-name="L" unicode="L" horiz-adv-x="1138" 
d="M963 471h98v-471h-1018v86h205v1294h-205v86h569v-86h-254v-1294h605v385z" />
    <glyph glyph-name="M" unicode="M" horiz-adv-x="1818" 
d="M258 86v1294h-209v86h410l448 -1300h4l449 1300h409v-86h-208v-1294h208v-86h-501v86h182v1294h-10l-482 -1380h-98l-481 1380h-10v-1294h182v-86h-502v86h209z" />
    <glyph glyph-name="N" unicode="N" horiz-adv-x="1478" 
d="M248 86v1294h-205v86h395l719 -1343h4v1257h-205v86h492v-86h-176v-1380h-166l-739 1380h-9v-1294h205v-86h-520v86h205z" />
    <glyph glyph-name="O" unicode="O" horiz-adv-x="1478" 
d="M102 733.5q0 155.5 40 292.5t120 241.5t200 164t277.5 59.5t277.5 -59.5t199.5 -164t119.5 -241.5t40 -292.5t-40 -293t-119.5 -242t-199.5 -164t-277.5 -59.5t-277.5 59.5t-200 164t-120 242t-40 293zM225 733q0 -332 141.5 -502t373 -170t372.5 170t141 502t-141 502
t-372.5 170t-373 -170t-141.5 -502z" />
    <glyph glyph-name="P" unicode="P" horiz-adv-x="1138" 
d="M43 0v86h205v1294h-205v86h623q199 0 314.5 -112t115.5 -306t-115 -305.5t-348 -111.5h-275v-545h246v-86h-561zM358 1380v-663h279q162 0 249 86t87 248t-88 245.5t-262 83.5h-265z" />
    <glyph glyph-name="Q" unicode="Q" horiz-adv-x="1478" 
d="M102 733.5q0 155.5 40 292.5t120 241.5t200 164t352 59.5t397 -216.5t165 -541.5q0 -209 -70.5 -378t-207.5 -265v-4h356v-86h-534q-74 -23 -207 -24q-132 -1 -251.5 58.5t-199.5 164t-120 242t-40 293zM225 733q0 -332 141.5 -502t373 -170t372.5 170t141 502t-141 502
t-372.5 170t-373 -170t-141.5 -502z" />
    <glyph glyph-name="R" unicode="R" horiz-adv-x="1290" 
d="M358 1380v-616h271q174 0 249.5 88t75.5 226q0 139 -80.5 220.5t-263.5 81.5h-252zM43 0v86h205v1294h-205v86h619q217 0 316 -103t99 -302q0 -137 -79.5 -233.5t-198.5 -112.5v-4q86 -16 130 -85t87 -218l90 -322h147v-86h-243l-62 246q-67 269 -115.5 333t-98.5 81.5
t-128 17.5h-248v-592h205v-86h-520z" />
    <glyph glyph-name="S" unicode="S" horiz-adv-x="1064" 
d="M582 -25q-300 0 -377 230h-4v-205h-99v504h99q10 -203 93.5 -323t239.5 -120t241 88.5t85 230.5t-85.5 203t-228.5 110q-142 49 -203.5 75.5t-151 91.5t-89.5 240q0 176 108.5 283.5t291.5 107.5q129 0 217 -56.5t131 -146.5h4v178h98v-495h-98q-6 211 -92 322.5
t-234 111.5t-225.5 -84t-77.5 -211q0 -176 129 -228t223 -82t159 -57.5t156 -97.5t91 -250t-106.5 -300t-294.5 -120z" />
    <glyph glyph-name="T" unicode="T" horiz-adv-x="1253" 
d="M571 86v1282h-407v-356h-98v454h1122v-454h-98v356h-408v-1282h242v-86h-594v86h241z" />
    <glyph glyph-name="U" unicode="U" horiz-adv-x="1363" 
d="M25 1380v86h487v-86h-221v-856q0 -231 106.5 -347t284.5 -116t284.5 116t106.5 347v856h-221v86h487v-86h-155v-854q0 -254 -128 -402.5t-381 -148.5t-374 145.5t-121 405.5v854h-155z" />
    <glyph glyph-name="V" unicode="V" horiz-adv-x="1363" 
d="M-6 1380v86h471v-86h-219l434 -1257h4l434 1257h-219v86h471v-86h-129l-491 -1380h-136l-491 1380h-129z" />
    <glyph glyph-name="W" unicode="W" horiz-adv-x="1855" 
d="M2 1380v86h459v-86h-230l275 -1257h4l336 1343h164l336 -1343h4l274 1257h-217v86h446v-86h-118l-310 -1380h-153l-342 1356h-4l-342 -1356h-154l-309 1380h-119z" />
    <glyph glyph-name="X" unicode="X" horiz-adv-x="1402" 
d="M2 0v86h135l481 684l-430 610h-147v86h471v-86h-188l368 -526l369 526h-189v86h459v-86h-147l-430 -610l477 -684h135v-86h-494v86h224l-418 598l-418 -598h225v-86h-483z" />
    <glyph glyph-name="Y" unicode="Y" horiz-adv-x="1253" 
d="M571 86v526l-444 768h-121v86h459v-86h-215l377 -657l377 657h-195v86h438v-86h-121l-444 -768v-526h242v-86h-594v86h241z" />
    <glyph glyph-name="Z" unicode="Z" horiz-adv-x="1175" 
d="M66 0v123l903 1257h-781v-346h-98v432h977v-123l-903 -1257h823v369h98v-455h-1019z" />
    <glyph glyph-name="bracketleft" unicode="[" horiz-adv-x="569" 
d="M195 -340v1858h268v-86h-158v-1686h158v-86h-268z" />
    <glyph glyph-name="backslash" unicode="\" horiz-adv-x="720" 
d="M582 -25l-553 1516h110l553 -1516h-110z" />
    <glyph glyph-name="bracketright" unicode="]" horiz-adv-x="569" 
d="M264 -254v1686h-158v86h269v-1858h-269v86h158z" />
    <glyph glyph-name="asciicircum" unicode="^" horiz-adv-x="1228" 
d="M301 719h-111l381 747h86l381 -747h-110l-314 612z" />
    <glyph glyph-name="underscore" unicode="_" 
d="M0 -256v102h1024v-102h-1024z" />
    <glyph glyph-name="grave" unicode="`" horiz-adv-x="528" 
d="M285 1217l-234 274h164l180 -274h-110z" />
    <glyph glyph-name="a" unicode="a" 
d="M739 477v62q-141 6 -194 6q-188 0 -272.5 -64.5t-84.5 -199.5q0 -100 64 -162t158 -62q169 0 249 123t80 297zM78 287q0 344 438 344h223v78q0 150 -66.5 220t-186.5 70t-187.5 -67t-73.5 -180h-110q8 162 107.5 247.5t258.5 85.5q369 0 369 -354v-645h141v-86h-239v215
h-4q-47 -133 -133.5 -188.5t-224.5 -55.5t-225 85t-87 231z" />
    <glyph glyph-name="b" unicode="b" horiz-adv-x="1138" 
d="M950 528.5q0 204.5 -89 337.5t-253 133q-130 0 -228.5 -106.5t-98.5 -345.5q0 -339 119.5 -414.5t207.5 -75.5q164 0 253 133.5t89 338zM41 0v86h141v1294h-141v86h252v-587h4q104 207 346 206q197 0 307.5 -153.5t110.5 -403.5q0 -304 -127.5 -430.5t-290.5 -126.5
q-123 0 -203 47.5t-143 161.5h-4v-180h-252z" />
    <glyph glyph-name="c" unicode="c" 
d="M221 528.5q0 -204.5 89 -338t253 -133.5q117 0 189.5 71t95.5 200h98q-12 -162 -118.5 -259.5t-264.5 -97.5q-223 0 -337.5 151.5t-114.5 405.5t114.5 405.5t337.5 151.5q102 0 184 -53t109 -145h4v170h86v-391h-86q-27 333 -297 333q-164 0 -253 -133t-89 -337.5z" />
    <glyph glyph-name="d" unicode="d" horiz-adv-x="1138" 
d="M188 528.5q0 -204.5 89.5 -338t256.5 -133.5t245.5 140.5t78.5 365.5q0 224 -99 330t-229 106q-164 0 -253 -133t-89 -337.5zM846 879v501h-176v86h286v-1380h142v-86h-252v180h-4q-63 -115 -143.5 -162t-177.5 -47t-168.5 26t-173 129t-101.5 402q0 250 110.5 403.5
t307.5 153.5q242 0 346 -206h4z" />
    <glyph glyph-name="e" unicode="e" 
d="M526 999q-146 0 -234 -110.5t-104 -294.5h660q-4 193 -90 299t-232 106zM530 57q265 0 310 258h98q-29 -170 -135.5 -257t-272.5 -87q-223 0 -337.5 151.5t-114.5 405.5t114.5 405.5t334.5 151.5t325.5 -163.5t105.5 -413.5h-770q4 -209 93.5 -330t248.5 -121z" />
    <glyph glyph-name="f" unicode="f" horiz-adv-x="569" 
d="M512 1405q-100 0 -148.5 -55.5t-48.5 -184.5v-108h217v-86h-217v-885h189v-86h-463v86h164v885h-164v86h164v88q0 346 289 346l120 -10v-86q-100 10 -102 10z" />
    <glyph glyph-name="g" unicode="g" horiz-adv-x="1138" 
d="M846 554q0 192 -88 318.5t-240 126.5t-241 -126.5t-89 -321.5t88 -330t245 -135t241 138t84 330zM846 858v199h264v-86h-154v-920q0 -215 -108.5 -317.5t-327.5 -102.5q-258 0 -319.5 100.5t-65.5 176.5h111q18 -106 90 -148.5t190 -42.5q172 0 246 86t74 306v131h-4
q-35 -117 -127.5 -178.5t-204.5 -61.5t-191 42t-133.5 118t-81 174t-26.5 270.5t111.5 326.5t308.5 154q121 0 213 -58t131 -169h4z" />
    <glyph glyph-name="h" unicode="h" horiz-adv-x="1138" 
d="M41 0v86h164v1294h-164v86h274v-575h4q84 195 310 194q166 0 241.5 -95t75.5 -296v-608h152v-86h-439v86h177v608q0 305 -242 305q-125 0 -202 -107.5t-77 -289.5v-516h164v-86h-438z" />
    <glyph glyph-name="i" unicode="i" horiz-adv-x="530" 
d="M193 1278v147h135v-147h-135zM29 0v86h176v885h-176v86h286v-971h164v-86h-450z" />
    <glyph glyph-name="j" unicode="j" horiz-adv-x="491" 
d="M193 1278v147h135v-147h-135zM205 -96v1067h-176v86h286v-1192q0 -123 -51 -178.5t-184 -55.5q-47 1 -84 15v86q43 -14 76 -15q82 0 107.5 42t25.5 145z" />
    <glyph glyph-name="k" unicode="k" 
d="M41 0v86h164v1294h-164v86h274v-954l447 459h-139v86h368v-86h-119l-297 -305l328 -580h107v-86h-348v86h131l-289 504l-189 -195v-309h164v-86h-438z" />
    <glyph glyph-name="l" unicode="l" horiz-adv-x="491" 
d="M29 0v86h176v1294h-176v86h286v-1380h164v-86h-450z" />
    <glyph glyph-name="m" unicode="m" horiz-adv-x="1708" 
d="M41 971v86h274v-172h4q33 90 110 145t189 55t183 -60t94 -157h4q33 100 112 158.5t189 58.5q147 0 231.5 -91t84.5 -255v-653h151v-86h-438v86h176v629q0 139 -61.5 211.5t-169.5 72.5t-183.5 -92t-75.5 -241v-580h152v-86h-438v86h176v608q0 154 -57.5 229.5
t-147.5 75.5q-127 0 -206 -97t-79 -273v-543h164v-86h-438v86h164v885h-164z" />
    <glyph glyph-name="n" unicode="n" horiz-adv-x="1138" 
d="M41 0v86h164v885h-164v86h274v-166h4q84 195 310 194q166 0 241.5 -95t75.5 -296v-608h152v-86h-439v86h177v608q0 305 -242 305q-125 0 -202 -107.5t-77 -289.5v-516h164v-86h-438z" />
    <glyph glyph-name="o" unicode="o" horiz-adv-x="1060" 
d="M188 535q0 -212 89.5 -345t244.5 -133t252.5 126t97.5 338t-89 345t-245 133t-253 -126t-97 -338zM200 931q122 154 338 154q215 0 330 -151.5t115 -402.5t-122.5 -405.5t-330.5 -154.5t-330 156.5t-122 403t122 400.5z" />
    <glyph glyph-name="p" unicode="p" horiz-adv-x="1138" 
d="M950 528.5q0 204.5 -89 337.5t-256 133t-245.5 -140t-78.5 -364t98 -331t229 -107q164 0 253 133.5t89 338zM20 971v86h273v-197h4q63 125 143 175t178 50t169 -25.5t172.5 -127t101.5 -404.5q0 -248 -110.5 -402.5t-307.5 -154.5q-242 0 -346 207h-4v-432h168v-86h-441
v86h162v1225h-162z" />
    <glyph glyph-name="q" unicode="q" horiz-adv-x="1138" 
d="M188 528.5q0 -204.5 89.5 -338t252.5 -133.5q130 0 229 107t99 330t-78.5 364t-246.5 141q-167 0 -256 -133t-89 -337.5zM678 -340v86h168v432h-4q-104 -207 -346 -207q-197 0 -307.5 155t-110.5 402q0 303 127 430t291 127q123 0 202.5 -50t143.5 -175h4v197h272v-86
h-162v-1225h162v-86h-440z" />
    <glyph glyph-name="r" unicode="r" horiz-adv-x="681" 
d="M41 0v86h164v885h-164v86h274v-189h4q31 104 106 160.5t171 56.5q39 0 57 -6v-98q-14 6 -49 6q-141 0 -215 -105.5t-74 -279.5v-516h201v-86h-475z" />
    <glyph glyph-name="s" unicode="s" horiz-adv-x="909" 
d="M436 1085q210 0 281 -153h4v125h86v-363h-86v58q0 117 -74.5 182t-190.5 65t-182.5 -63.5t-66.5 -153.5t50 -129t136 -53l154 -25q145 -23 210.5 -90t65.5 -188q0 -160 -96 -243t-268 -83l-287 170v-141h-86v371h86q6 -154 83 -234t198 -80t190.5 60.5t69.5 162.5
t-49.5 142.5t-178.5 60.5l-133 21q-127 23 -191.5 83t-64.5 169q0 154 99.5 241.5t240.5 87.5z" />
    <glyph glyph-name="t" unicode="t" horiz-adv-x="681" 
d="M410 -29q-205 0 -205 236v764h-189v86h189v225l110 41v-266h285v-86h-285v-740q0 -90 30 -132t75 -42q127 0 127 203v23h86v-39q0 -123 -59.5 -198t-163.5 -75z" />
    <glyph glyph-name="u" unicode="u" horiz-adv-x="1138" 
d="M41 971v86h262v-695q0 -305 242 -305q121 0 199.5 103.5t78.5 281.5v529h-164v86h275v-971h164v-86h-275v172h-4q-41 -94 -122 -147.5t-187 -53.5q-166 0 -241.5 95.5t-75.5 295.5v609h-152z" />
    <glyph glyph-name="v" unicode="v" 
d="M25 971v86h352v-86h-150l283 -848h4l283 848h-150v86h352v-86h-92l-332 -971h-135l-323 971h-92z" />
    <glyph glyph-name="w" unicode="w" horiz-adv-x="1630" 
d="M33 971v86h368v-86h-163l247 -848h4l252 934h148l252 -934h4l248 848h-148v86h352v-86h-94l-284 -971h-148l-254 946h-4l-254 -946h-147l-285 971h-94z" />
    <glyph glyph-name="x" unicode="x" horiz-adv-x="1060" 
d="M33 0v86h92l338 459l-311 426h-91v86h361v-86h-148l256 -353l261 353h-132v86h361v-86h-107l-315 -426l338 -459h92v-86h-360v86h145l-283 385l-282 -385h145v-86h-360z" />
    <glyph glyph-name="y" unicode="y" 
d="M25 971v86h360v-86h-154l291 -811h4l291 811h-153v86h335v-86h-71l-410 -1121q-47 -127 -103.5 -173t-128.5 -46t-110 13v86q31 -12 74 -12t66.5 9t56 52.5t96.5 220.5l-348 971h-96z" />
    <glyph glyph-name="z" unicode="z" horiz-adv-x="948" 
d="M102 0v104l625 867h-520v-209h-98v295h729v-105l-625 -866h535v242h98v-328h-744z" />
    <glyph glyph-name="braceleft" unicode="{" horiz-adv-x="569" 
d="M72 545v86q76 0 113.5 85t37.5 212v340q0 115 53.5 182.5t137.5 67.5h104v-86h-98q-41 0 -63.5 -55.5t-22.5 -139.5v-344q0 -133 -54.5 -212.5t-97.5 -90.5v-4q46 -17 99 -91.5t53 -213.5v-340q0 -82 22.5 -138.5t63.5 -56.5h98v-86h-104q-84 0 -137.5 67.5t-53.5 182.5
v336q0 129 -37.5 214t-113.5 85z" />
    <glyph glyph-name="bar" unicode="|" horiz-adv-x="454" 
d="M172 -512v2048h111v-2048h-111z" />
    <glyph glyph-name="braceright" unicode="}" horiz-adv-x="569" 
d="M498 631v-86q-76 0 -114 -85t-38 -214v-336q0 -115 -52 -182.5t-138 -67.5h-105v86h99q43 0 64.5 56.5t21.5 138.5v340q0 188 67.5 244.5t83.5 60.5v4q-45 17 -98 92t-53 211v344q0 84 -21.5 139.5t-64.5 55.5h-99v86h105q86 0 138 -68t52 -182v-340q0 -127 38 -212
t114 -85z" />
    <glyph glyph-name="asciitilde" unicode="~" horiz-adv-x="1228" 
d="M397 635q93 0 238 -66l84 -35q84 -34 115 -34q91 0 180 145l73 -65q-107 -179 -256 -179q-53 0 -100 16.5t-113 50.5q-134 69 -224 69q-116 0 -179 -146l-74 72q90 172 256 172z" />
    <glyph glyph-name="exclamdown" unicode="&#xa1;" horiz-adv-x="679" 
d="M266 -344l31 1151h86l31 -1151h-148zM266 975v147h148v-147h-148z" />
    <glyph glyph-name="cent" unicode="&#xa2;" 
d="M514 -203v178q-201 16 -302 165.5t-101 387.5t101 388.5t302 168.5v175h74v-175q98 -10 170.5 -62t97.5 -136h4v170h86v-391h-86q-14 160 -81.5 240.5t-190.5 92.5v-938q219 18 260 267h98q-12 -154 -108.5 -249t-249.5 -104v-178h-74zM221 528.5q0 -188.5 76 -318
t217 -149.5v938q-141 -25 -217 -153.5t-76 -317z" />
    <glyph glyph-name="sterling" unicode="&#xa3;" 
d="M340 1036v-168h256v-86h-256v-696h496v231h110v-317h-891v86h174v696h-174v86h174v195q0 193 90.5 310.5t266.5 117.5t266 -87t94 -249h-110q-4 250 -244 250q-252 0 -252 -369z" />
    <glyph glyph-name="currency" unicode="&#xa4;" 
d="M512 1200q162 0 291 -102l104 102l72 -72l-102 -102q102 -127 102 -295t-105 -289l105 -104l-72 -72l-104 105q-122 -105 -288 -105t-294 105l-104 -105l-72 72l105 104q-104 127 -104 290t104 294l-105 102l72 72l104 -102q129 102 291 102zM156 733q0 -166 99 -267
t257 -101t257 101t99 267t-99 267.5t-257 101.5t-257 -101.5t-99 -267.5z" />
    <glyph glyph-name="yen" unicode="&#xa5;" 
d="M270 0v86h193v307h-313v86h313v133l-21 56h-292v86h251l-297 626h-100v86h375v-86h-176l297 -626h24l297 626h-159v86h358v-86h-100l-297 -626h251v-86h-290l-23 -56v-133h313v-86h-313v-307h193v-86h-484z" />
    <glyph glyph-name="brokenbar" unicode="&#xa6;" horiz-adv-x="454" 
d="M172 666v716h111v-716h-111zM172 -358v716h111v-716h-111z" />
    <glyph glyph-name="section" unicode="&#xa7;" 
d="M778 597q0 50 -14 82t-70 77t-286 131q-80 -27 -121 -88.5t-41 -113.5t12 -82t66.5 -78t293.5 -132q78 37 119 95.5t41 108.5zM152 1198q0 115 97.5 204t257.5 89t258.5 -87.5t104.5 -277.5h-110q-10 139 -79 203t-181 64t-175 -56.5t-63 -144.5q0 -120 106.5 -169.5
t188.5 -81.5q152 -59 242 -124.5t90 -185.5q0 -88 -46 -161t-138 -112q167 -89 167 -272q0 -145 -102 -226t-265 -81t-262.5 87t-99.5 269h111q2 -127 69.5 -192.5t171.5 -65.5t161 35t81.5 77t24.5 98q0 103 -67.5 149t-186.5 90q-119 43 -246 99t-127 234q0 86 50.5 166
t148.5 105q-182 91 -182 268z" />
    <glyph glyph-name="dieresis" unicode="&#xa8;" horiz-adv-x="528" 
d="M8 1282v135h135v-135h-135zM385 1282v135h135v-135h-135z" />
    <glyph glyph-name="copyright" unicode="&#xa9;" horiz-adv-x="1638" 
d="M827 272q-183 0 -301 133t-118 331t116.5 327t313.5 129q150 0 254 -81t122 -224h-116q-18 88 -88 147.5t-170 59.5q-147 0 -234.5 -103.5t-87.5 -254.5t92 -258t234 -107q100 0 169 61.5t85 151.5h116q-31 -141 -134 -226.5t-253 -85.5zM172 733q0 -137 50 -258
t139.5 -211t207 -140t250.5 -50t251 50t207 140t139 211t50 258t-50 258t-139 211t-207 140.5t-251 50.5t-250.5 -50.5t-207 -140.5t-139.5 -211t-50 -258zM61 733.5q0 153.5 58.5 291.5t164 243.5t244 164t292 58.5t291.5 -58.5t243.5 -164t164 -243.5t58.5 -291.5
t-58.5 -292t-164 -244t-243.5 -164t-291.5 -58.5t-292 58.5t-244 164t-164 244t-58.5 292z" />
    <glyph glyph-name="ordfeminine" unicode="&#xaa;" horiz-adv-x="665" 
d="M131 1018q0 -64 41 -98.5t104 -34.5q94 0 146.5 71.5t52.5 159.5v41h-121q-117 0 -170 -37.5t-53 -101.5zM68 1280q12 211 260 211q122 0 177.5 -57.5t55.5 -155.5v-377h92v-61h-166v129h-6q-27 -80 -82 -113t-147 -33t-149.5 50.5t-57.5 138.5q0 207 291 207h139v36
q0 88 -43 131.5t-116.5 43.5t-115.5 -41t-46 -109h-86z" />
    <glyph glyph-name="guillemotleft" unicode="&#xab;" horiz-adv-x="909" 
d="M336 115l-174 446l174 447h98l-174 -447l174 -446h-98zM649 115l-174 446l174 447h99l-175 -447l175 -446h-99z" />
    <glyph glyph-name="logicalnot" unicode="&#xac;" horiz-adv-x="1228" 
d="M1022 221v441h-926v110h1037v-551h-111z" />
    <glyph glyph-name="minus" unicode="&#xad;" horiz-adv-x="1228" 
d="M96 463v110h1037v-110h-1037z" />
    <glyph glyph-name="minus" unicode="&#x2212;" horiz-adv-x="1228" 
d="M96 463v110h1037v-110h-1037z" />
    <glyph glyph-name="registered" unicode="&#xae;" horiz-adv-x="1638" 
d="M172 733q0 -137 50 -258t139.5 -211t207 -140t250.5 -50t251 50t207 140t139 211t50 258t-50 258t-139 211t-207 140.5t-251 50.5t-250.5 -50.5t-207 -140.5t-139.5 -211t-50 -258zM61 733.5q0 153.5 58.5 291.5t164 243.5t244 164t292 58.5t291.5 -58.5t243.5 -164
t164 -243.5t58.5 -291.5t-58.5 -292t-164 -244t-243.5 -164t-291.5 -58.5t-292 58.5t-244 164t-164 244t-58.5 292zM537 287v891h337q303 0 304 -242q0 -111 -62.5 -172.5t-157.5 -77.5l246 -399h-110l-246 399h-213v-399h-98zM635 772h194q125 0 187.5 29t62.5 126t-55 131
t-150 34h-239v-320z" />
    <glyph glyph-name="macron" unicode="&#xaf;" horiz-adv-x="528" 
d="M0 1307v86h528v-86h-528z" />
    <glyph glyph-name="degree" unicode="&#xb0;" horiz-adv-x="819" 
d="M203 1198q0 -86 60.5 -146.5t146.5 -60.5t146 60.5t60 146.5t-60 146.5t-146 60.5t-146.5 -60.5t-60.5 -146.5zM117 1198q0 121 86 207t206.5 86t206.5 -86t86 -207t-86 -207t-206.5 -86t-206.5 86t-86 207z" />
    <glyph glyph-name="plusminus" unicode="&#xb1;" horiz-adv-x="1228" 
d="M96 0v111h1037v-111h-1037zM559 666v370h111v-370h463v-111h-463v-371h-111v371h-463v111h463z" />
    <glyph glyph-name="twosuperior" unicode="&#xb2;" horiz-adv-x="665" 
d="M537 670v139h86v-213h-580v102q293 297 356.5 378t82 120t18.5 84t-44 91t-119 46t-123 -56t-52 -147h-99q12 135 77 206t197 71t196.5 -62.5t64.5 -160.5q0 -63 -31.5 -120.5t-99.5 -129.5l-338 -348h408z" />
    <glyph glyph-name="threesuperior" unicode="&#xb3;" horiz-adv-x="665" 
d="M333 1491q124 0 195.5 -67.5t71.5 -159.5t-50 -150.5t-136 -64.5v-7q90 -12 142 -70t52 -158t-74.5 -166t-197.5 -66t-200 64.5t-79 207.5h99q0 -88 52 -143.5t130 -55.5t125 55.5t47 133.5t-60.5 121t-170.5 47v73q172 0 197.5 70t25.5 98q0 66 -47 115t-117 49
t-117 -47t-59 -145h-99q6 121 76 193.5t194 72.5z" />
    <glyph glyph-name="acute" unicode="&#xb4;" horiz-adv-x="528" 
d="M133 1217l180 274h164l-233 -274h-111z" />
    <glyph glyph-name="mu" unicode="&#xb5;" horiz-adv-x="1138" 
d="M41 971v86h262v-695q0 -305 242 -305q121 0 199.5 103.5t78.5 281.5v529h-164v86h275v-971h164v-86h-275v172h-4q-41 -94 -120 -147.5t-161 -53.5q-169 0 -231 97h-4v-408h-110v1311h-152z" />
    <glyph glyph-name="paragraph" unicode="&#xb6;" horiz-adv-x="1228" 
d="M547 -197v951q-164 0 -276.5 101t-112.5 264t110.5 255t309.5 92h430v-1663h-111v1565h-240v-1565h-110z" />
    <glyph glyph-name="periodcentered" unicode="&#xb7;" horiz-adv-x="512" 
d="M182 598v147h148v-147h-148z" />
    <glyph glyph-name="periodcentered" unicode="&#x2219;" horiz-adv-x="512" 
d="M182 598v147h148v-147h-148z" />
    <glyph glyph-name="cedilla" unicode="&#xb8;" horiz-adv-x="528" 
d="M434 -244q0 -70 -59.5 -112.5t-124.5 -42.5q-136 0 -209 49l35 69q90 -45 141 -45t79 23.5t28 59.5t-32 55.5t-68 19.5t-70 -10l-31 39l104 149h86l-77 -104q198 -4 198 -150z" />
    <glyph glyph-name="onesuperior" unicode="&#xb9;" horiz-adv-x="665" 
d="M416 1477v-820h133v-61h-363v61h144v734h-4q-39 -47 -77 -76t-132 -84v74q121 83 207 172h92z" />
    <glyph glyph-name="ordmasculine" unicode="&#xba;" horiz-adv-x="636" 
d="M102 1157q0 -115 56.5 -193.5t159 -78.5t160 78.5t57.5 193.5t-57.5 194t-160 79t-159 -79t-56.5 -194zM16 1157.5q0 153.5 75 243.5t226.5 90t227.5 -90t76 -243.5t-76 -244t-227.5 -90.5t-226.5 90.5t-75 244z" />
    <glyph glyph-name="guillemotright" unicode="&#xbb;" horiz-adv-x="909" 
d="M475 115l174 446l-174 447h98l175 -447l-175 -446h-98zM162 115l174 446l-174 447h98l174 -447l-174 -446h-98z" />
    <glyph glyph-name="onequarter" unicode="&#xbc;" horiz-adv-x="1536" 
d="M399 1477v-820h133v-61h-362v61h143v734h-4q-39 -47 -76.5 -76t-132.5 -84v74q126 86 207 172h92zM240 -55l938 1577h86l-938 -1577h-86zM1219 313v492h-5l-358 -492h363zM1067 0v61h152v191h-424v92l393 535h117v-566h131v-61h-131v-191h116v-61h-354z" />
    <glyph glyph-name="onehalf" unicode="&#xbd;" horiz-adv-x="1536" 
d="M1411 74v139h86v-213h-579v102q277 281 348 370t89.5 129t18.5 85t-44 91t-118 46t-123 -56t-53 -146h-98q12 135 77 205.5t197 70.5t196.5 -62.5t64.5 -144.5t-32 -139t-100 -129l-337 -348h407zM399 1477v-820h133v-61h-362v61h143v734h-4q-39 -47 -76.5 -76
t-132.5 -84v74q126 86 207 172h92zM240 -55l938 1577h86l-938 -1577h-86z" />
    <glyph glyph-name="threequarters" unicode="&#xbe;" horiz-adv-x="1536" 
d="M314 1491q124 0 196 -67.5t72 -159.5t-50.5 -150.5t-136.5 -64.5v-7q90 -12 142.5 -70t52.5 -158t-75 -166t-198 -66t-199.5 64.5t-78.5 207.5h98q0 -88 52.5 -143.5t130.5 -55.5t125 55.5t47 133.5t-60.5 121t-171.5 47v73q175 0 199 70t24 98q0 66 -47 115t-117 49
t-117 -47t-59 -145h-98q6 121 75.5 193.5t193.5 72.5zM303 -55l938 1577h86l-938 -1577h-86zM1280 313v492h-4l-358 -492h362zM1128 0v61h152v191h-424v92l393 535h117v-566h131v-61h-131v-191h117v-61h-355z" />
    <glyph glyph-name="questiondown" unicode="&#xbf;" 
d="M496 975v147h147v-147h-147zM508 705v104h123v-109q0 -117 -48.5 -192.5t-142.5 -167.5t-140 -164t-46 -186t72.5 -193.5t201.5 -79.5t196 86t67 213h122q-8 -188 -113.5 -286.5t-280.5 -98.5t-281.5 98.5t-106.5 272.5q0 127 50.5 208t144.5 171t138 157t44 167z" />
    <glyph glyph-name="Agrave" unicode="&#xc0;" horiz-adv-x="1478" 
d="M25 0v86h127l514 1380h147l514 -1380h127v-86h-457v86h207l-157 442h-615l-158 -442h207v-86h-456zM463 614h553l-275 754h-4zM760 1544l-234 275h164l180 -275h-110z" />
    <glyph glyph-name="Aacute" unicode="&#xc1;" horiz-adv-x="1478" 
d="M25 0v86h127l514 1380h147l514 -1380h127v-86h-457v86h207l-157 442h-615l-158 -442h207v-86h-456zM463 614h553l-275 754h-4zM608 1544l180 275h164l-233 -275h-111z" />
    <glyph glyph-name="Acircumflex" unicode="&#xc2;" horiz-adv-x="1478" 
d="M25 0v86h127l514 1380h147l514 -1380h127v-86h-457v86h207l-157 442h-615l-158 -442h207v-86h-456zM463 614h553l-275 754h-4zM469 1544l209 275h123l209 -275h-123l-148 201l-147 -201h-123z" />
    <glyph glyph-name="Atilde" unicode="&#xc3;" horiz-adv-x="1478" 
d="M25 0v86h127l514 1380h147l514 -1380h127v-86h-457v86h207l-157 442h-615l-158 -442h207v-86h-456zM463 614h553l-275 754h-4zM877 1681q60 0 86 80h73q-10 -90 -54 -134t-94 -44t-122 35l-23 10q-14 6 -55 26t-84 19q-72 0 -88 -84h-74q27 182 160 183q61 0 152 -46
t123 -45z" />
    <glyph glyph-name="Adieresis" unicode="&#xc4;" horiz-adv-x="1478" 
d="M25 0v86h127l514 1380h147l514 -1380h127v-86h-457v86h207l-157 442h-615l-158 -442h207v-86h-456zM463 614h553l-275 754h-4zM483 1610v135h135v-135h-135zM860 1610v135h135v-135h-135z" />
    <glyph glyph-name="Aring" unicode="&#xc5;" horiz-adv-x="1478" 
d="M25 0v86h127l514 1380h147l514 -1380h127v-86h-457v86h207l-157 442h-615l-158 -442h207v-86h-456zM463 614h553l-275 754h-4zM629 1700q0 -45 32.5 -78t77.5 -33t78 33t33 78t-33 77.5t-78 32.5t-77.5 -32.5t-32.5 -77.5zM555 1700q0 78 53.5 131t131 53t131 -53
t53.5 -131t-53.5 -131t-131 -53t-131 53t-53.5 131z" />
    <glyph glyph-name="AE" unicode="&#xc6;" horiz-adv-x="1933" 
d="M1012 614l-113 766h-18l-400 -766h531zM25 0v86h84l710 1380h991v-432h-98v346h-702l86 -585h315v239h98v-561h-98v236h-303l88 -623h537v387h98v-473h-973v86h227l-61 442h-582l-223 -442h211v-86h-405z" />
    <glyph glyph-name="Ccedilla" unicode="&#xc7;" horiz-adv-x="1366" 
d="M915 -244q0 -70 -58.5 -112.5t-124.5 -42.5q-137 0 -210 49l35 69q89 -45 141 -45t79.5 23.5t27.5 59.5t-32 55.5t-68 19.5t-70 -10l-31 39l82 119q-282 20 -433 231.5t-151 529.5t165.5 534t473.5 216q147 0 253 -64.5t155 -181.5h4v221h98v-514h-98q-6 201 -119.5 321
t-317.5 120t-347.5 -171.5t-143.5 -487.5t143.5 -488t362.5 -172q358 0 410 415h123q-23 -236 -151 -370.5t-343 -143.5l-53 -69q198 -4 198 -150z" />
    <glyph glyph-name="Egrave" unicode="&#xc8;" horiz-adv-x="1253" 
d="M43 0v86h205v1294h-205v86h1073v-432h-98v346h-660v-585h359v239h98v-579h-98v254h-359v-623h670v369h98v-455h-1083zM647 1544l-233 275h164l180 -275h-111z" />
    <glyph glyph-name="Eacute" unicode="&#xc9;" horiz-adv-x="1253" 
d="M43 0v86h205v1294h-205v86h1073v-432h-98v346h-660v-585h359v239h98v-579h-98v254h-359v-623h670v369h98v-455h-1083zM496 1544l180 275h164l-234 -275h-110z" />
    <glyph glyph-name="Ecircumflex" unicode="&#xca;" horiz-adv-x="1253" 
d="M43 0v86h205v1294h-205v86h1073v-432h-98v346h-660v-585h359v239h98v-579h-98v254h-359v-623h670v369h98v-455h-1083zM356 1544l209 275h123l209 -275h-123l-147 201l-148 -201h-123z" />
    <glyph glyph-name="Edieresis" unicode="&#xcb;" horiz-adv-x="1253" 
d="M43 0v86h205v1294h-205v86h1073v-432h-98v346h-660v-585h359v239h98v-579h-98v254h-359v-623h670v369h98v-455h-1083zM371 1610v135h135v-135h-135zM748 1610v135h135v-135h-135z" />
    <glyph glyph-name="Igrave" unicode="&#xcc;" horiz-adv-x="606" 
d="M248 86v1294h-205v86h520v-86h-205v-1294h205v-86h-520v86h205zM336 1544l-234 275h164l180 -275h-110z" />
    <glyph glyph-name="Iacute" unicode="&#xcd;" horiz-adv-x="606" 
d="M248 86v1294h-205v86h520v-86h-205v-1294h205v-86h-520v86h205zM184 1544l181 275h163l-233 -275h-111z" />
    <glyph glyph-name="Icircumflex" unicode="&#xce;" horiz-adv-x="606" 
d="M248 86v1294h-205v86h520v-86h-205v-1294h205v-86h-520v86h205zM45 1544l209 275h123l209 -275h-123l-148 201l-147 -201h-123z" />
    <glyph glyph-name="Idieresis" unicode="&#xcf;" horiz-adv-x="606" 
d="M248 86v1294h-205v86h520v-86h-205v-1294h205v-86h-520v86h205zM59 1610v135h136v-135h-136zM436 1610v135h135v-135h-135z" />
    <glyph glyph-name="Eth" unicode="&#xd0;" horiz-adv-x="1402" 
d="M358 1380v-540h385v-86h-385v-668h250q262 0 416 181t154 468.5t-156 466t-414 178.5h-250zM43 0v86h205v668h-205v86h205v540h-205v86h578q326 0 502.5 -199.5t176.5 -533.5t-177 -533.5t-502 -199.5h-578z" />
    <glyph glyph-name="Ntilde" unicode="&#xd1;" horiz-adv-x="1478" 
d="M248 86v1294h-205v86h395l719 -1343h4v1257h-205v86h492v-86h-176v-1380h-166l-739 1380h-9v-1294h205v-86h-520v86h205zM889 1681q60 0 86 80h74q-10 -90 -54.5 -134t-94.5 -44t-122 35l-22 10q-14 6 -56 26t-84 19q-72 0 -88 -84h-73q27 182 159 183q61 0 152 -46
t123 -45z" />
    <glyph glyph-name="Ograve" unicode="&#xd2;" horiz-adv-x="1478" 
d="M102 733.5q0 155.5 40 292.5t120 241.5t200 164t277.5 59.5t277.5 -59.5t199.5 -164t119.5 -241.5t40 -292.5t-40 -293t-119.5 -242t-199.5 -164t-277.5 -59.5t-277.5 59.5t-200 164t-120 242t-40 293zM225 733q0 -332 141.5 -502t373 -170t372.5 170t141 502t-141 502
t-372.5 170t-373 -170t-141.5 -502zM797 1544l-234 275h164l180 -275h-110z" />
    <glyph glyph-name="Oacute" unicode="&#xd3;" horiz-adv-x="1478" 
d="M102 733.5q0 155.5 40 292.5t120 241.5t200 164t277.5 59.5t277.5 -59.5t199.5 -164t119.5 -241.5t40 -292.5t-40 -293t-119.5 -242t-199.5 -164t-277.5 -59.5t-277.5 59.5t-200 164t-120 242t-40 293zM225 733q0 -332 141.5 -502t373 -170t372.5 170t141 502t-141 502
t-372.5 170t-373 -170t-141.5 -502zM645 1544l180 275h164l-233 -275h-111z" />
    <glyph glyph-name="Ocircumflex" unicode="&#xd4;" horiz-adv-x="1478" 
d="M102 733.5q0 155.5 40 292.5t120 241.5t200 164t277.5 59.5t277.5 -59.5t199.5 -164t119.5 -241.5t40 -292.5t-40 -293t-119.5 -242t-199.5 -164t-277.5 -59.5t-277.5 59.5t-200 164t-120 242t-40 293zM225 733q0 -332 141.5 -502t373 -170t372.5 170t141 502t-141 502
t-372.5 170t-373 -170t-141.5 -502zM506 1544l209 275h123l209 -275h-123l-148 201l-147 -201h-123z" />
    <glyph glyph-name="Otilde" unicode="&#xd5;" horiz-adv-x="1478" 
d="M102 733.5q0 155.5 40 292.5t120 241.5t200 164t277.5 59.5t277.5 -59.5t199.5 -164t119.5 -241.5t40 -292.5t-40 -293t-119.5 -242t-199.5 -164t-277.5 -59.5t-277.5 59.5t-200 164t-120 242t-40 293zM225 733q0 -332 141.5 -502t373 -170t372.5 170t141 502t-141 502
t-372.5 170t-373 -170t-141.5 -502zM913 1681q60 0 86 80h74q-10 -90 -54.5 -134t-94.5 -44t-121 35l-23 10q-14 6 -55 26t-84 19q-72 0 -88 -84h-74q27 182 160 183q61 0 151 -46q91 -46 123 -45z" />
    <glyph glyph-name="Odieresis" unicode="&#xd6;" horiz-adv-x="1478" 
d="M102 733.5q0 155.5 40 292.5t120 241.5t200 164t277.5 59.5t277.5 -59.5t199.5 -164t119.5 -241.5t40 -292.5t-40 -293t-119.5 -242t-199.5 -164t-277.5 -59.5t-277.5 59.5t-200 164t-120 242t-40 293zM225 733q0 -332 141.5 -502t373 -170t372.5 170t141 502t-141 502
t-372.5 170t-373 -170t-141.5 -502zM520 1610v135h135v-135h-135zM897 1610v135h135v-135h-135z" />
    <glyph glyph-name="multiply" unicode="&#xd7;" horiz-adv-x="1228" 
d="M225 55l-73 74l389 389l-389 389l73 74l389 -389l390 389l73 -74l-389 -389l389 -389l-73 -74l-390 389z" />
    <glyph glyph-name="Oslash" unicode="&#xd8;" horiz-adv-x="1478" 
d="M740 61q230 0 372 169.5t142 481.5t-111 476l-766 -967q133 -160 363 -160zM738 1405q-230 0 -371.5 -170.5t-141.5 -480.5t111 -478l766 969q-134 160 -364 160zM268 193q-166 206 -166 536t165.5 546t471.5 216q264 0 426 -166l144 184l55 -39l-154 -196
q166 -206 166 -536t-165 -546.5t-472 -216.5q-260 0 -426 166l-143 -184l-55 39z" />
    <glyph glyph-name="Ugrave" unicode="&#xd9;" horiz-adv-x="1363" 
d="M25 1380v86h487v-86h-221v-856q0 -231 106.5 -347t284.5 -116t284.5 116t106.5 347v856h-221v86h487v-86h-155v-854q0 -254 -128 -402.5t-381 -148.5t-374 145.5t-121 405.5v854h-155zM715 1544l-234 275h164l180 -275h-110z" />
    <glyph glyph-name="Uacute" unicode="&#xda;" horiz-adv-x="1363" 
d="M25 1380v86h487v-86h-221v-856q0 -231 106.5 -347t284.5 -116t284.5 116t106.5 347v856h-221v86h487v-86h-155v-854q0 -254 -128 -402.5t-381 -148.5t-374 145.5t-121 405.5v854h-155zM563 1544l180 275h164l-233 -275h-111z" />
    <glyph glyph-name="Ucircumflex" unicode="&#xdb;" horiz-adv-x="1363" 
d="M25 1380v86h487v-86h-221v-856q0 -231 106.5 -347t284.5 -116t284.5 116t106.5 347v856h-221v86h487v-86h-155v-854q0 -254 -128 -402.5t-381 -148.5t-374 145.5t-121 405.5v854h-155zM424 1544l209 275h123l209 -275h-123l-148 201l-147 -201h-123z" />
    <glyph glyph-name="Udieresis" unicode="&#xdc;" horiz-adv-x="1363" 
d="M25 1380v86h487v-86h-221v-856q0 -231 106.5 -347t284.5 -116t284.5 116t106.5 347v856h-221v86h487v-86h-155v-854q0 -254 -128 -402.5t-381 -148.5t-374 145.5t-121 405.5v854h-155zM438 1610v135h135v-135h-135zM815 1610v135h135v-135h-135z" />
    <glyph glyph-name="Yacute" unicode="&#xdd;" horiz-adv-x="1253" 
d="M571 86v526l-444 768h-121v86h459v-86h-215l377 -657l377 657h-195v86h438v-86h-121l-444 -768v-526h242v-86h-594v86h241zM532 1544l181 275h164l-234 -275h-111z" />
    <glyph glyph-name="Thorn" unicode="&#xde;" horiz-adv-x="1138" 
d="M358 451h279q162 0 249 86t87 248t-88 245.5t-262 83.5h-265v-663zM43 0v86h205v1294h-205v86h520v-86h-205v-180h308q199 0 314.5 -112t115.5 -304t-112 -305.5t-320 -113.5h-306v-279h246v-86h-561z" />
    <glyph glyph-name="germandbls" unicode="&#xdf;" 
d="M555 1405q-274 0 -274 -373v-946h98v-86h-338v86h129v952q0 225 99.5 339t281.5 114t269 -102t87 -251q0 -296 -270 -337v-4q164 -18 241.5 -126t77.5 -277t-92 -281.5t-254 -112.5h-94v86h72q119 0 188.5 89t69.5 242t-78 237.5t-254 95.5v98q283 7 283 285
q0 135 -70 203.5t-172 68.5z" />
    <glyph glyph-name="agrave" unicode="&#xe0;" 
d="M739 477v62q-141 6 -194 6q-188 0 -272.5 -64.5t-84.5 -199.5q0 -100 64 -162t158 -62q169 0 249 123t80 297zM78 287q0 344 438 344h223v78q0 150 -66.5 220t-186.5 70t-187.5 -67t-73.5 -180h-110q8 162 107.5 247.5t258.5 85.5q369 0 369 -354v-645h141v-86h-239v215
h-4q-47 -133 -133.5 -188.5t-224.5 -55.5t-225 85t-87 231zM532 1217l-233 274h164l180 -274h-111z" />
    <glyph glyph-name="aacute" unicode="&#xe1;" 
d="M739 477v62q-141 6 -194 6q-188 0 -272.5 -64.5t-84.5 -199.5q0 -100 64 -162t158 -62q169 0 249 123t80 297zM78 287q0 344 438 344h223v78q0 150 -66.5 220t-186.5 70t-187.5 -67t-73.5 -180h-110q8 162 107.5 247.5t258.5 85.5q369 0 369 -354v-645h141v-86h-239v215
h-4q-47 -133 -133.5 -188.5t-224.5 -55.5t-225 85t-87 231zM381 1217l180 274h164l-233 -274h-111z" />
    <glyph glyph-name="acircumflex" unicode="&#xe2;" 
d="M739 477v62q-141 6 -194 6q-188 0 -272.5 -64.5t-84.5 -199.5q0 -100 64 -162t158 -62q169 0 249 123t80 297zM78 287q0 344 438 344h223v78q0 150 -66.5 220t-186.5 70t-187.5 -67t-73.5 -180h-110q8 162 107.5 247.5t258.5 85.5q369 0 369 -354v-645h141v-86h-239v215
h-4q-47 -133 -133.5 -188.5t-224.5 -55.5t-225 85t-87 231zM242 1217l209 274h122l209 -274h-123l-147 200l-147 -200h-123z" />
    <glyph glyph-name="atilde" unicode="&#xe3;" 
d="M739 477v62q-141 6 -194 6q-188 0 -272.5 -64.5t-84.5 -199.5q0 -100 64 -162t158 -62q169 0 249 123t80 297zM78 287q0 344 438 344h223v78q0 150 -66.5 220t-186.5 70t-187.5 -67t-73.5 -180h-110q8 162 107.5 247.5t258.5 85.5q369 0 369 -354v-645h141v-86h-239v215
h-4q-47 -133 -133.5 -188.5t-224.5 -55.5t-225 85t-87 231zM649 1354q60 0 86 80h74q-10 -90 -54.5 -134.5t-94.5 -44.5t-121 35l-23 10q-14 6 -55 26t-84 20q-72 0 -88 -84h-74q27 182 160 182q61 0 150 -45q90 -45 124 -45z" />
    <glyph glyph-name="adieresis" unicode="&#xe4;" 
d="M739 477v62q-141 6 -194 6q-188 0 -272.5 -64.5t-84.5 -199.5q0 -100 64 -162t158 -62q169 0 249 123t80 297zM78 287q0 344 438 344h223v78q0 150 -66.5 220t-186.5 70t-187.5 -67t-73.5 -180h-110q8 162 107.5 247.5t258.5 85.5q369 0 369 -354v-645h141v-86h-239v215
h-4q-47 -133 -133.5 -188.5t-224.5 -55.5t-225 85t-87 231zM256 1282v135h135v-135h-135zM633 1282v135h135v-135h-135z" />
    <glyph glyph-name="aring" unicode="&#xe5;" 
d="M739 477v62q-141 6 -194 6q-188 0 -272.5 -64.5t-84.5 -199.5q0 -100 64 -162t158 -62q169 0 249 123t80 297zM78 287q0 344 438 344h223v78q0 150 -66.5 220t-186.5 70t-187.5 -67t-73.5 -180h-110q8 162 107.5 247.5t258.5 85.5q369 0 369 -354v-645h141v-86h-239v215
h-4q-47 -133 -133.5 -188.5t-224.5 -55.5t-225 85t-87 231zM401 1372q0 -45 33 -77.5t78 -32.5t78 32.5t33 77.5t-33 78t-78 33t-78 -33t-33 -78zM328 1372q0 78 53 131t131 53t131 -53t53 -131t-53 -131t-131 -53t-131 53t-53 131z" />
    <glyph glyph-name="ae" unicode="&#xe6;" horiz-adv-x="1517" 
d="M489 508q-301 0 -301 -227q0 -100 65 -162t163 -62t154.5 54.5t91 156t34.5 240.5h-207zM1329 594q-4 405 -252 405q-121 0 -192.5 -107.5t-89.5 -297.5h534zM78 292q0 151 100.5 226.5t282.5 75.5h235v90q0 160 -49 237.5t-165 77.5t-183.5 -67t-73.5 -180h-110
q8 162 107.5 247.5t258.5 85.5q251 0 291 -206h4q108 206 297 206q261 0 314 -180t53 -313v-84h-645q4 -217 80.5 -334t196.5 -117t181.5 77t67.5 188h111q-14 -156 -108.5 -253.5t-256.5 -97.5t-241.5 102.5t-90.5 184.5h-4q-83 -287 -332 -287q-147 0 -234 85t-87 236z
" />
    <glyph glyph-name="ccedilla" unicode="&#xe7;" 
d="M743 -244q0 -70 -58.5 -112.5t-124.5 -42.5q-137 0 -210 49l35 69q89 -45 141 -45t79.5 23.5t27.5 59.5t-32 55.5t-68 19.5t-70 -10l-31 39l82 114q-201 16 -302 165.5t-101 395.5t114.5 397.5t337.5 151.5q102 0 184 -53t109 -145h4v170h86v-391h-86q-27 333 -297 333
q-164 0 -253 -133t-89 -337.5t89 -338t253 -133.5q117 0 189.5 71t95.5 200h98q-12 -154 -108.5 -250t-241.5 -107l-51 -65q198 -4 198 -150z" />
    <glyph glyph-name="egrave" unicode="&#xe8;" 
d="M526 999q-146 0 -234 -110.5t-104 -294.5h660q-4 193 -90 299t-232 106zM530 57q265 0 310 258h98q-29 -170 -135.5 -257t-272.5 -87q-223 0 -337.5 151.5t-114.5 405.5t114.5 405.5t334.5 151.5t325.5 -163.5t105.5 -413.5h-770q4 -209 93.5 -330t248.5 -121zM569 1217
l-233 274h164l180 -274h-111z" />
    <glyph glyph-name="eacute" unicode="&#xe9;" 
d="M526 999q-146 0 -234 -110.5t-104 -294.5h660q-4 193 -90 299t-232 106zM530 57q265 0 310 258h98q-29 -170 -135.5 -257t-272.5 -87q-223 0 -337.5 151.5t-114.5 405.5t114.5 405.5t334.5 151.5t325.5 -163.5t105.5 -413.5h-770q4 -209 93.5 -330t248.5 -121zM418 1217
l180 274h164l-234 -274h-110z" />
    <glyph glyph-name="ecircumflex" unicode="&#xea;" 
d="M526 999q-146 0 -234 -110.5t-104 -294.5h660q-4 193 -90 299t-232 106zM530 57q265 0 310 258h98q-29 -170 -135.5 -257t-272.5 -87q-223 0 -337.5 151.5t-114.5 405.5t114.5 405.5t334.5 151.5t325.5 -163.5t105.5 -413.5h-770q4 -209 93.5 -330t248.5 -121zM279 1217
l208 274h123l209 -274h-123l-147 200l-148 -200h-122z" />
    <glyph glyph-name="edieresis" unicode="&#xeb;" 
d="M526 999q-146 0 -234 -110.5t-104 -294.5h660q-4 193 -90 299t-232 106zM530 57q265 0 310 258h98q-29 -170 -135.5 -257t-272.5 -87q-223 0 -337.5 151.5t-114.5 405.5t114.5 405.5t334.5 151.5t325.5 -163.5t105.5 -413.5h-770q4 -209 93.5 -330t248.5 -121zM293 1282
v135h135v-135h-135zM670 1282v135h135v-135h-135z" />
    <glyph glyph-name="igrave" unicode="&#xec;" horiz-adv-x="530" 
d="M29 0v86h176v885h-176v86h286v-971h164v-86h-450zM299 1217l-233 274h163l181 -274h-111z" />
    <glyph glyph-name="iacute" unicode="&#xed;" horiz-adv-x="530" 
d="M29 0v86h176v885h-176v86h286v-971h164v-86h-450zM147 1217l181 274h164l-234 -274h-111z" />
    <glyph glyph-name="icircumflex" unicode="&#xee;" horiz-adv-x="530" 
d="M29 0v86h176v885h-176v86h286v-971h164v-86h-450zM-33 1217l209 274h123l209 -274h-123l-147 200l-148 -200h-123z" />
    <glyph glyph-name="idieresis" unicode="&#xef;" horiz-adv-x="530" 
d="M29 0v86h176v885h-176v86h286v-971h164v-86h-450zM23 1282v135h135v-135h-135zM399 1282v135h136v-135h-136z" />
    <glyph glyph-name="eth" unicode="&#xf0;" horiz-adv-x="1060" 
d="M983 527q0 -261 -114.5 -408.5t-337.5 -147.5t-338 151.5t-115 405.5q0 208 120.5 352t327.5 144q172 0 275 -139l4 4q-84 254 -299 391l-230 -145l-51 55l211 133q-117 61 -256 92l25 76q180 -31 321 -111l238 152l51 -57l-217 -138q190 -129 287.5 -339t97.5 -471z
M188 514q0 -222 89.5 -339.5t253 -117.5t252.5 118t89 340t-105 322.5t-236.5 100.5t-237 -101t-105.5 -323z" />
    <glyph glyph-name="ntilde" unicode="&#xf1;" horiz-adv-x="1138" 
d="M41 0v86h164v885h-164v86h274v-166h4q84 195 310 194q166 0 241.5 -95t75.5 -296v-608h152v-86h-439v86h177v608q0 305 -242 305q-125 0 -202 -107.5t-77 -289.5v-516h164v-86h-438zM754 1255q-50 0 -121 35l-23 10q-14 6 -55 26t-84 20q-72 0 -88 -84h-74
q27 182 160 182q61 0 150 -45t124 -45q60 0 86 80h74q-10 -90 -54.5 -134.5t-94.5 -44.5z" />
    <glyph glyph-name="ograve" unicode="&#xf2;" horiz-adv-x="1060" 
d="M188 535q0 -212 89.5 -345t244.5 -133t252.5 126t97.5 338t-89 345t-245 133t-253 -126t-97 -338zM200 931q122 154 338 154q215 0 330 -151.5t115 -402.5t-122.5 -405.5t-330.5 -154.5t-330 156.5t-122 403t122 400.5zM563 1217l-233 274h164l180 -274h-111z" />
    <glyph glyph-name="oacute" unicode="&#xf3;" horiz-adv-x="1060" 
d="M188 535q0 -212 89.5 -345t244.5 -133t252.5 126t97.5 338t-89 345t-245 133t-253 -126t-97 -338zM200 931q122 154 338 154q215 0 330 -151.5t115 -402.5t-122.5 -405.5t-330.5 -154.5t-330 156.5t-122 403t122 400.5zM412 1217l180 274h164l-234 -274h-110z" />
    <glyph glyph-name="ocircumflex" unicode="&#xf4;" horiz-adv-x="1060" 
d="M188 535q0 -212 89.5 -345t244.5 -133t252.5 126t97.5 338t-89 345t-245 133t-253 -126t-97 -338zM200 931q122 154 338 154q215 0 330 -151.5t115 -402.5t-122.5 -405.5t-330.5 -154.5t-330 156.5t-122 403t122 400.5zM272 1217l209 274h123l209 -274h-123l-147 200
l-148 -200h-123z" />
    <glyph glyph-name="otilde" unicode="&#xf5;" horiz-adv-x="1060" 
d="M188 535q0 -212 89.5 -345t244.5 -133t252.5 126t97.5 338t-89 345t-245 133t-253 -126t-97 -338zM200 931q122 154 338 154q215 0 330 -151.5t115 -402.5t-122.5 -405.5t-330.5 -154.5t-330 156.5t-122 403t122 400.5zM691 1255q-50 0 -122 35l-22 10q-13 6 -55 26
t-84 20q-72 0 -89 -84h-73q27 182 160 182q61 0 150 -45t124 -45q60 0 86 80h74q-10 -90 -54.5 -134.5t-94.5 -44.5z" />
    <glyph glyph-name="odieresis" unicode="&#xf6;" horiz-adv-x="1060" 
d="M188 535q0 -212 89.5 -345t244.5 -133t252.5 126t97.5 338t-89 345t-245 133t-253 -126t-97 -338zM200 931q122 154 338 154q215 0 330 -151.5t115 -402.5t-122.5 -405.5t-330.5 -154.5t-330 156.5t-122 403t122 400.5zM287 1282v135h135v-135h-135zM664 1282v135h135
v-135h-135z" />
    <glyph glyph-name="divide" unicode="&#xf7;" horiz-adv-x="1228" 
d="M541 889v147h147v-147h-147zM541 0v147h147v-147h-147zM96 463v110h1037v-110h-1037z" />
    <glyph glyph-name="oslash" unicode="&#xf8;" horiz-adv-x="1060" 
d="M190 139q-112 152 -112 395t122 397t319 154t315 -112l100 131l49 -39l-109 -139q109 -147 109 -397t-122.5 -404t-315.5 -154t-312 119l-106 -137l-49 41zM531 57q146 0 243.5 126.5t97.5 326.5t-69 321l-508 -661q90 -113 236 -113zM188 547q0 -201 70 -320l508 658
q-86 115 -234 115t-246 -126t-98 -327z" />
    <glyph glyph-name="ugrave" unicode="&#xf9;" horiz-adv-x="1138" 
d="M41 971v86h262v-695q0 -305 242 -305q121 0 199.5 103.5t78.5 281.5v529h-164v86h275v-971h164v-86h-275v172h-4q-41 -94 -122 -147.5t-187 -53.5q-166 0 -241.5 95.5t-75.5 295.5v609h-152zM590 1217l-234 274h164l180 -274h-110z" />
    <glyph glyph-name="uacute" unicode="&#xfa;" horiz-adv-x="1138" 
d="M41 971v86h262v-695q0 -305 242 -305q121 0 199.5 103.5t78.5 281.5v529h-164v86h275v-971h164v-86h-275v172h-4q-41 -94 -122 -147.5t-187 -53.5q-166 0 -241.5 95.5t-75.5 295.5v609h-152zM438 1217l180 274h164l-233 -274h-111z" />
    <glyph glyph-name="ucircumflex" unicode="&#xfb;" horiz-adv-x="1138" 
d="M41 971v86h262v-695q0 -305 242 -305q121 0 199.5 103.5t78.5 281.5v529h-164v86h275v-971h164v-86h-275v172h-4q-41 -94 -122 -147.5t-187 -53.5q-166 0 -241.5 95.5t-75.5 295.5v609h-152zM299 1217l209 274h123l209 -274h-123l-148 200l-147 -200h-123z" />
    <glyph glyph-name="udieresis" unicode="&#xfc;" horiz-adv-x="1138" 
d="M41 971v86h262v-695q0 -305 242 -305q121 0 199.5 103.5t78.5 281.5v529h-164v86h275v-971h164v-86h-275v172h-4q-41 -94 -122 -147.5t-187 -53.5q-166 0 -241.5 95.5t-75.5 295.5v609h-152zM313 1282v135h136v-135h-136zM690 1282v135h135v-135h-135z" />
    <glyph glyph-name="yacute" unicode="&#xfd;" 
d="M25 971v86h360v-86h-154l291 -811h4l291 811h-153v86h335v-86h-71l-410 -1121q-47 -127 -103.5 -173t-128.5 -46t-110 13v86q31 -12 74 -12t66.5 9t56 52.5t96.5 220.5l-348 971h-96zM418 1217l180 274h164l-234 -274h-110z" />
    <glyph glyph-name="thorn" unicode="&#xfe;" horiz-adv-x="1138" 
d="M950 528.5q0 204.5 -89 337.5t-256 133t-245.5 -140t-78.5 -364t98 -331t229 -107q164 0 253 133.5t89 338zM20 1380v86h273v-606h4q63 125 143 175t178 50t169 -25.5t172.5 -127t101.5 -404.5q0 -248 -110.5 -402.5t-307.5 -154.5q-242 0 -346 207h-4v-432h168v-86h-441
v86h162v1634h-162z" />
    <glyph glyph-name="ydieresis" unicode="&#xff;" 
d="M25 971v86h360v-86h-154l291 -811h4l291 811h-153v86h335v-86h-71l-410 -1121q-47 -127 -103.5 -173t-128.5 -46t-110 13v86q31 -12 74 -12t66.5 9t56 52.5t96.5 220.5l-348 971h-96zM268 1282v135h135v-135h-135zM645 1282v135h135v-135h-135z" />
    <glyph glyph-name="OE" unicode="&#x152;" horiz-adv-x="1933" 
d="M780 1405q-264 0 -409.5 -162t-145.5 -502t141.5 -510t372.5 -170q145 0 258 25v1294q-85 25 -217 25zM766 1491q126 0 244 -25h786v-432h-98v346h-602v-585h301v239h98v-579h-98v254h-301v-623h612v369h98v-455h-802q-16 -2 -87 -13t-203 -11q-133 -1 -252.5 58.5
t-239.5 216.5t-120 497q0 341 166 542t498 201z" />
    <glyph glyph-name="oe" unicode="&#x153;" horiz-adv-x="1630" 
d="M858 801q77 284 340 284t316 -180t53 -313v-84h-666q4 -219 83 -335t205 -116t187.5 77t67.5 188h110q-14 -156 -108 -253.5t-240 -97.5t-233.5 77t-114.5 198h-4q-104 -275 -367 -275q-180 0 -294.5 147.5t-114.5 404.5t119.5 409.5t311.5 152.5t259.5 -102t85.5 -182h4
zM803 543q0 457 -299 456q-143 0 -229.5 -120.5t-86.5 -340.5t78 -350.5t221.5 -130.5t229.5 121t86 365zM1195 999q-256 0 -294 -405h555q-2 209 -66.5 307t-194.5 98z" />
    <glyph glyph-name="Scaron" unicode="&#x160;" horiz-adv-x="1064" 
d="M582 -25q-300 0 -377 230h-4v-205h-99v504h99q10 -203 93.5 -323t239.5 -120t241 88.5t85 230.5t-85.5 203t-228.5 110q-142 49 -203.5 75.5t-151 91.5t-89.5 240q0 176 108.5 283.5t291.5 107.5q129 0 217 -56.5t131 -146.5h4v178h98v-495h-98q-6 211 -92 322.5
t-234 111.5t-225.5 -84t-77.5 -211q0 -176 129 -228t223 -82t159 -57.5t156 -97.5t91 -250t-106.5 -300t-294.5 -120zM471 1544l-209 275h123l147 -201l148 201h123l-209 -275h-123z" />
    <glyph glyph-name="scaron" unicode="&#x161;" horiz-adv-x="909" 
d="M436 1085q210 0 281 -153h4v125h86v-363h-86v58q0 117 -74.5 182t-190.5 65t-182.5 -63.5t-66.5 -153.5t50 -129t136 -53l154 -25q145 -23 210.5 -90t65.5 -188q0 -160 -96 -243t-268 -83l-287 170v-141h-86v371h86q6 -154 83 -234t198 -80t190.5 60.5t69.5 162.5
t-49.5 142.5t-178.5 60.5l-133 21q-127 23 -191.5 83t-64.5 169q0 154 99.5 241.5t240.5 87.5zM393 1217l-209 274h123l148 -201l147 201h123l-209 -274h-123z" />
    <glyph glyph-name="Ydieresis" unicode="&#x178;" horiz-adv-x="1253" 
d="M571 86v526l-444 768h-121v86h459v-86h-215l377 -657l377 657h-195v86h438v-86h-121l-444 -768v-526h242v-86h-594v86h241zM371 1610v135h135v-135h-135zM748 1610v135h135v-135h-135z" />
    <glyph glyph-name="florin" unicode="&#x192;" 
d="M770 1491q57 0 96 -6l-18 -92h-51q-100 0 -155.5 -84t-78.5 -314h211l-14 -86h-215l-135 -792q-43 -254 -98.5 -309.5t-108.5 -69.5t-148 -21l21 99q98 2 145 52t68 181l145 860h-188l14 86h186q35 284 112.5 390t211.5 106z" />
    <glyph glyph-name="circumflex" unicode="&#x2c6;" horiz-adv-x="528" 
d="M-6 1217l209 274h123l209 -274h-123l-148 200l-147 -200h-123z" />
    <glyph glyph-name="tilde" unicode="&#x2dc;" horiz-adv-x="528" 
d="M401 1354q60 0 86 80h74q-10 -90 -54.5 -134.5t-94.5 -44.5t-121 35l-23 10q-14 6 -55 26t-84 20q-72 0 -88 -84h-74q27 182 160 182q61 0 150 -45q90 -45 124 -45z" />
    <glyph glyph-name="endash" unicode="&#x2013;" 
d="M0 518v86h1024v-86h-1024z" />
    <glyph glyph-name="emdash" unicode="&#x2014;" horiz-adv-x="2048" 
d="M0 518v86h2048v-86h-2048z" />
    <glyph glyph-name="quoteleft" unicode="&#x2018;" horiz-adv-x="569" 
d="M197 1057v147l90 262h86l-90 -262h61v-147h-147z" />
    <glyph glyph-name="quoteright" unicode="&#x2019;" horiz-adv-x="569" 
d="M225 1319v147h148v-147l-90 -262h-86l90 262h-62z" />
    <glyph glyph-name="quotesinglbase" unicode="&#x201a;" horiz-adv-x="569" 
d="M225 0v147h148v-147l-90 -262h-86l90 262h-62z" />
    <glyph glyph-name="quotedblleft" unicode="&#x201c;" horiz-adv-x="909" 
d="M186 1057v147l90 262h86l-90 -262h62v-147h-148zM547 1057v147l90 262h86l-90 -262h61v-147h-147z" />
    <glyph glyph-name="quotedblright" unicode="&#x201d;" horiz-adv-x="909" 
d="M575 1319v147h148v-147l-90 -262h-86l90 262h-62zM215 1319v147h147v-147l-90 -262h-86l90 262h-61z" />
    <glyph glyph-name="quotedblbase" unicode="&#x201e;" horiz-adv-x="909" 
d="M575 0v147h148v-147l-90 -262h-86l90 262h-62zM215 0v147h147v-147l-90 -262h-86l90 262h-61z" />
    <glyph glyph-name="dagger" unicode="&#x2020;" 
d="M457 1038v428h110v-428h336v-86h-336v-952h-110v952h-336v86h336z" />
    <glyph glyph-name="daggerdbl" unicode="&#x2021;" 
d="M121 348v86h336v598h-336v86h336v348h110v-348h336v-86h-336v-598h336v-86h-336v-348h-110v348h-336z" />
    <glyph glyph-name="bullet" unicode="&#x2022;" 
d="M186 367v731h652v-731h-652z" />
    <glyph glyph-name="ellipsis" unicode="&#x2026;" horiz-adv-x="2048" 
d="M1632 0v147h148v-147h-148zM950 0v147h148v-147h-148zM268 0v147h148v-147h-148z" />
    <glyph glyph-name="perthousand" unicode="&#x2030;" horiz-adv-x="2048" 
d="M887 354.5q0 -137.5 44 -221.5t125 -84t124 84t43 222t-43 221t-124 83t-125 -83.5t-44 -221zM801 354q0 174 64.5 276.5t190.5 102.5t189.5 -101.5t63.5 -277.5t-63.5 -277.5t-189.5 -101.5t-190.5 102.5t-64.5 276.5zM88 1112q0 174 64.5 276.5t190.5 102.5
t189.5 -101.5t63.5 -277.5t-63.5 -277.5t-189.5 -101.5t-190.5 102.5t-64.5 276.5zM1452 354q0 174 64.5 276.5t190.5 102.5t189.5 -101.5t63.5 -277.5t-63.5 -277.5t-189.5 -101.5t-190.5 102.5t-64.5 276.5zM174 1112q0 -137 44 -221t125 -84t124 84t43 222t-43 221
t-124 83t-125 -84t-44 -221zM287 -25l739 1516h86l-739 -1516h-86zM1538 354.5q0 -137.5 44 -221.5t125 -84t124 84t43 222t-43 221t-124 83t-125 -83.5t-44 -221z" />
    <glyph glyph-name="guilsinglleft" unicode="&#x2039;" horiz-adv-x="569" 
d="M315 115l-174 446l174 447h99l-174 -447l174 -446h-99z" />
    <glyph glyph-name="guilsinglright" unicode="&#x203a;" horiz-adv-x="569" 
d="M156 115l174 446l-174 447h98l174 -447l-174 -446h-98z" />
    <glyph glyph-name="trademark" unicode="&#x2122;" horiz-adv-x="2027" 
d="M1704 629v727h-4l-293 -727h-74l-293 727h-4v-727h-110v837h186l262 -661l254 661h187v-837h-111zM356 629v739h-274v98h659v-98h-274v-739h-111z" />
    </font>
</defs>
</svg>
